<?xml version="1.0" encoding="UTF-8"?><svg id="Layer_1" xmlns="http://www.w3.org/2000/svg" viewBox="0 0 504 360"><defs><style>.cls-1{stroke-width:5px;}.cls-1,.cls-2{fill:none;stroke:#43ad49;stroke-miterlimit:10;}.cls-2{stroke-linecap:round;stroke-width:.5px;}</style></defs><g><g><line class="cls-1" x1="129.43" y1="97.5" x2="125.66" y2="97.5"/><line class="cls-1" x1="127.55" y1="90.85" x2="125.66" y2="90.85"/><line class="cls-1" x1="131.32" y1="104.16" x2="125.66" y2="104.16"/><line class="cls-1" x1="127.55" y1="90.85" x2="125.66" y2="90.85"/><line class="cls-1" x1="127.55" y1="90.85" x2="125.66" y2="90.85"/><line class="cls-1" x1="136.97" y1="124.11" x2="125.66" y2="124.11"/><line class="cls-1" x1="133.2" y1="110.81" x2="125.66" y2="110.81"/><line class="cls-1" x1="127.55" y1="90.85" x2="125.66" y2="90.85"/><line class="cls-1" x1="131.32" y1="104.16" x2="125.66" y2="104.16"/><line class="cls-1" x1="127.55" y1="90.85" x2="125.66" y2="90.85"/><line class="cls-1" x1="127.55" y1="90.85" x2="125.66" y2="90.85"/><line class="cls-1" x1="127.55" y1="90.85" x2="125.66" y2="90.85"/><line class="cls-1" x1="127.55" y1="90.85" x2="125.66" y2="90.85"/><line class="cls-1" x1="127.55" y1="90.85" x2="125.66" y2="90.85"/><line class="cls-1" x1="127.55" y1="90.85" x2="125.66" y2="90.85"/></g><g><line class="cls-1" x1="255.77" y1="144.07" x2="238.8" y2="144.07"/><line class="cls-1" x1="240.69" y1="90.84" x2="238.8" y2="90.84"/><line class="cls-1" x1="240.69" y1="90.84" x2="238.8" y2="90.84"/><line class="cls-1" x1="246.34" y1="110.81" x2="238.8" y2="110.81"/><line class="cls-1" x1="257.66" y1="150.72" x2="238.8" y2="150.72"/><line class="cls-1" x1="246.34" y1="110.81" x2="238.8" y2="110.81"/><line class="cls-1" x1="240.69" y1="90.84" x2="238.8" y2="90.84"/><line class="cls-1" x1="246.34" y1="110.81" x2="238.8" y2="110.81"/><line class="cls-1" x1="242.57" y1="97.5" x2="238.8" y2="97.5"/><line class="cls-1" x1="253.89" y1="137.42" x2="238.8" y2="137.42"/><line class="cls-1" x1="252" y1="130.76" x2="238.8" y2="130.76"/><line class="cls-1" x1="240.69" y1="90.84" x2="238.8" y2="90.84"/><line class="cls-1" x1="240.69" y1="90.84" x2="238.8" y2="90.84"/><line class="cls-1" x1="244.46" y1="104.15" x2="238.8" y2="104.15"/><line class="cls-1" x1="252" y1="130.76" x2="238.8" y2="130.76"/><line class="cls-1" x1="253.89" y1="137.42" x2="238.8" y2="137.42"/><line class="cls-1" x1="253.89" y1="137.42" x2="238.8" y2="137.42"/><line class="cls-1" x1="257.66" y1="150.72" x2="238.8" y2="150.72"/><line class="cls-1" x1="248.23" y1="117.46" x2="238.8" y2="117.46"/><line class="cls-1" x1="248.23" y1="117.46" x2="238.8" y2="117.46"/><line class="cls-1" x1="242.57" y1="97.5" x2="238.8" y2="97.5"/><line class="cls-1" x1="240.69" y1="90.84" x2="238.8" y2="90.84"/><line class="cls-1" x1="246.34" y1="110.81" x2="238.8" y2="110.81"/><line class="cls-1" x1="255.77" y1="144.07" x2="238.8" y2="144.07"/><line class="cls-1" x1="240.69" y1="90.84" x2="238.8" y2="90.84"/><line class="cls-1" x1="265.2" y1="177.34" x2="238.8" y2="177.34"/><line class="cls-1" x1="270.86" y1="197.3" x2="238.8" y2="197.3"/><line class="cls-1" x1="252" y1="130.76" x2="238.8" y2="130.76"/><line class="cls-1" x1="244.46" y1="104.15" x2="238.8" y2="104.15"/><line class="cls-1" x1="257.66" y1="150.72" x2="238.8" y2="150.72"/></g><g><line class="cls-1" x1="297.26" y1="90.85" x2="295.37" y2="90.85"/><line class="cls-1" x1="302.91" y1="110.81" x2="295.37" y2="110.81"/><line class="cls-1" x1="301.03" y1="104.16" x2="295.37" y2="104.16"/><line class="cls-1" x1="306.69" y1="124.11" x2="295.37" y2="124.11"/><line class="cls-1" x1="297.26" y1="90.85" x2="295.37" y2="90.85"/><line class="cls-1" x1="299.14" y1="97.5" x2="295.37" y2="97.5"/><line class="cls-1" x1="297.26" y1="90.85" x2="295.37" y2="90.85"/><line class="cls-1" x1="302.91" y1="110.81" x2="295.37" y2="110.81"/><line class="cls-1" x1="297.26" y1="90.85" x2="295.37" y2="90.85"/><line class="cls-1" x1="302.91" y1="110.81" x2="295.37" y2="110.81"/><line class="cls-1" x1="297.26" y1="90.85" x2="295.37" y2="90.85"/><line class="cls-1" x1="297.26" y1="90.85" x2="295.37" y2="90.85"/><line class="cls-1" x1="302.91" y1="110.81" x2="295.37" y2="110.81"/><line class="cls-1" x1="314.23" y1="150.73" x2="295.37" y2="150.73"/><line class="cls-1" x1="301.03" y1="104.16" x2="295.37" y2="104.16"/><line class="cls-1" x1="297.26" y1="90.85" x2="295.37" y2="90.85"/><line class="cls-1" x1="299.14" y1="97.5" x2="295.37" y2="97.5"/><line class="cls-1" x1="297.26" y1="90.85" x2="295.37" y2="90.85"/><line class="cls-1" x1="299.14" y1="97.5" x2="295.37" y2="97.5"/><line class="cls-1" x1="297.26" y1="90.85" x2="295.37" y2="90.85"/><line class="cls-1" x1="334.97" y1="223.92" x2="295.37" y2="223.92"/><line class="cls-1" x1="299.14" y1="97.5" x2="295.37" y2="97.5"/><line class="cls-1" x1="306.69" y1="124.11" x2="295.37" y2="124.11"/></g><g><line class="cls-1" x1="378.34" y1="177.34" x2="351.94" y2="177.34"/><line class="cls-1" x1="353.83" y1="90.84" x2="351.94" y2="90.84"/><line class="cls-1" x1="359.48" y1="110.8" x2="351.94" y2="110.8"/><line class="cls-1" x1="353.83" y1="90.84" x2="351.94" y2="90.84"/><line class="cls-1" x1="355.71" y1="97.5" x2="351.94" y2="97.5"/><line class="cls-1" x1="357.6" y1="104.15" x2="351.94" y2="104.15"/><line class="cls-1" x1="353.83" y1="90.84" x2="351.94" y2="90.84"/><line class="cls-1" x1="353.83" y1="90.84" x2="351.94" y2="90.84"/><line class="cls-1" x1="359.48" y1="110.8" x2="351.94" y2="110.8"/><line class="cls-1" x1="359.48" y1="110.8" x2="351.94" y2="110.8"/><line class="cls-1" x1="353.83" y1="90.84" x2="351.94" y2="90.84"/><line class="cls-1" x1="359.48" y1="110.8" x2="351.94" y2="110.8"/><line class="cls-1" x1="353.83" y1="90.84" x2="351.94" y2="90.84"/><line class="cls-1" x1="353.83" y1="90.84" x2="351.94" y2="90.84"/><line class="cls-1" x1="368.91" y1="144.07" x2="351.94" y2="144.07"/><line class="cls-1" x1="353.83" y1="90.84" x2="351.94" y2="90.84"/><line class="cls-1" x1="353.83" y1="90.84" x2="351.94" y2="90.84"/><line class="cls-1" x1="353.83" y1="90.84" x2="351.94" y2="90.84"/><line class="cls-1" x1="365.14" y1="130.76" x2="351.94" y2="130.76"/><line class="cls-1" x1="361.37" y1="117.46" x2="351.94" y2="117.46"/><line class="cls-1" x1="353.83" y1="90.84" x2="351.94" y2="90.84"/><line class="cls-1" x1="359.48" y1="110.8" x2="351.94" y2="110.8"/><line class="cls-1" x1="355.71" y1="97.5" x2="351.94" y2="97.5"/></g><g><line class="cls-1" x1="159.6" y1="104.15" x2="153.94" y2="104.15"/><line class="cls-1" x1="159.6" y1="104.15" x2="153.94" y2="104.15"/><line class="cls-1" x1="167.14" y1="130.76" x2="153.94" y2="130.76"/><line class="cls-1" x1="167.14" y1="130.76" x2="153.94" y2="130.76"/><line class="cls-1" x1="161.49" y1="110.81" x2="153.94" y2="110.81"/><line class="cls-1" x1="161.49" y1="110.81" x2="153.94" y2="110.81"/><line class="cls-1" x1="161.49" y1="110.81" x2="153.94" y2="110.81"/><line class="cls-1" x1="159.6" y1="104.15" x2="153.94" y2="104.15"/><line class="cls-1" x1="155.83" y1="90.84" x2="153.94" y2="90.84"/><line class="cls-1" x1="157.72" y1="97.5" x2="153.94" y2="97.5"/><line class="cls-1" x1="157.72" y1="97.5" x2="153.94" y2="97.5"/><line class="cls-1" x1="161.49" y1="110.81" x2="153.94" y2="110.81"/><line class="cls-1" x1="159.6" y1="104.15" x2="153.94" y2="104.15"/><line class="cls-1" x1="163.37" y1="117.46" x2="153.94" y2="117.46"/><line class="cls-1" x1="157.72" y1="97.5" x2="153.94" y2="97.5"/><line class="cls-1" x1="161.49" y1="110.81" x2="153.94" y2="110.81"/><line class="cls-1" x1="155.83" y1="90.84" x2="153.94" y2="90.84"/><line class="cls-1" x1="161.49" y1="110.81" x2="153.94" y2="110.81"/><line class="cls-1" x1="157.72" y1="97.5" x2="153.94" y2="97.5"/><line class="cls-1" x1="161.49" y1="110.81" x2="153.94" y2="110.81"/><line class="cls-1" x1="161.49" y1="110.81" x2="153.94" y2="110.81"/><line class="cls-1" x1="163.37" y1="117.46" x2="153.94" y2="117.46"/><line class="cls-1" x1="161.49" y1="110.81" x2="153.94" y2="110.81"/><line class="cls-1" x1="157.72" y1="97.5" x2="153.94" y2="97.5"/><line class="cls-1" x1="155.83" y1="90.84" x2="153.94" y2="90.84"/><line class="cls-1" x1="157.72" y1="97.5" x2="153.94" y2="97.5"/><line class="cls-1" x1="165.26" y1="124.11" x2="153.94" y2="124.11"/><line class="cls-1" x1="155.83" y1="90.84" x2="153.94" y2="90.84"/></g><g><line class="cls-1" x1="184.12" y1="90.84" x2="182.23" y2="90.84"/><line class="cls-1" x1="201.09" y1="150.72" x2="182.23" y2="150.72"/><line class="cls-1" x1="184.12" y1="90.84" x2="182.23" y2="90.84"/><line class="cls-1" x1="184.12" y1="90.84" x2="182.23" y2="90.84"/><line class="cls-1" x1="186" y1="97.5" x2="182.23" y2="97.5"/><line class="cls-1" x1="184.12" y1="90.84" x2="182.23" y2="90.84"/><line class="cls-1" x1="184.12" y1="90.84" x2="182.23" y2="90.84"/><line class="cls-1" x1="184.12" y1="90.84" x2="182.23" y2="90.84"/><line class="cls-1" x1="195.43" y1="130.76" x2="182.23" y2="130.76"/><line class="cls-1" x1="191.66" y1="117.46" x2="182.23" y2="117.46"/><line class="cls-1" x1="184.12" y1="90.84" x2="182.23" y2="90.84"/><line class="cls-1" x1="187.89" y1="104.15" x2="182.23" y2="104.15"/><line class="cls-1" x1="206.74" y1="170.68" x2="182.23" y2="170.68"/><line class="cls-1" x1="184.12" y1="90.84" x2="182.23" y2="90.84"/><line class="cls-1" x1="195.43" y1="130.76" x2="182.23" y2="130.76"/><line class="cls-1" x1="184.12" y1="90.84" x2="182.23" y2="90.84"/><line class="cls-1" x1="193.54" y1="124.11" x2="182.23" y2="124.11"/><line class="cls-1" x1="186" y1="97.5" x2="182.23" y2="97.5"/><line class="cls-1" x1="186" y1="97.5" x2="182.23" y2="97.5"/><line class="cls-1" x1="184.12" y1="90.84" x2="182.23" y2="90.84"/><line class="cls-1" x1="184.12" y1="90.84" x2="182.23" y2="90.84"/><line class="cls-1" x1="184.12" y1="90.84" x2="182.23" y2="90.84"/><line class="cls-1" x1="187.89" y1="104.15" x2="182.23" y2="104.15"/><line class="cls-1" x1="197.31" y1="137.41" x2="182.23" y2="137.41"/><line class="cls-1" x1="189.77" y1="110.8" x2="182.23" y2="110.8"/></g><g><line class="cls-1" x1="229.37" y1="150.73" x2="210.51" y2="150.73"/><line class="cls-1" x1="223.71" y1="130.76" x2="210.51" y2="130.76"/><line class="cls-1" x1="229.37" y1="150.73" x2="210.51" y2="150.73"/><line class="cls-1" x1="219.94" y1="117.47" x2="210.51" y2="117.47"/><line class="cls-1" x1="218.06" y1="110.81" x2="210.51" y2="110.81"/><line class="cls-1" x1="229.37" y1="150.73" x2="210.51" y2="150.73"/><line class="cls-1" x1="231.26" y1="157.38" x2="210.51" y2="157.38"/><line class="cls-1" x1="219.94" y1="117.47" x2="210.51" y2="117.47"/><line class="cls-1" x1="216.17" y1="104.16" x2="210.51" y2="104.16"/><line class="cls-1" x1="221.83" y1="124.11" x2="210.51" y2="124.11"/><line class="cls-1" x1="221.83" y1="124.11" x2="210.51" y2="124.11"/><line class="cls-1" x1="223.71" y1="130.76" x2="210.51" y2="130.76"/><line class="cls-1" x1="229.37" y1="150.73" x2="210.51" y2="150.73"/><line class="cls-1" x1="212.4" y1="90.85" x2="210.51" y2="90.85"/><line class="cls-1" x1="221.83" y1="124.11" x2="210.51" y2="124.11"/><line class="cls-1" x1="214.29" y1="97.5" x2="210.51" y2="97.5"/><line class="cls-1" x1="218.06" y1="110.81" x2="210.51" y2="110.81"/><line class="cls-1" x1="218.06" y1="110.81" x2="210.51" y2="110.81"/><line class="cls-1" x1="221.83" y1="124.11" x2="210.51" y2="124.11"/><line class="cls-1" x1="223.71" y1="130.76" x2="210.51" y2="130.76"/><line class="cls-1" x1="212.4" y1="90.85" x2="210.51" y2="90.85"/><line class="cls-1" x1="218.06" y1="110.81" x2="210.51" y2="110.81"/><line class="cls-1" x1="218.06" y1="110.81" x2="210.51" y2="110.81"/><line class="cls-1" x1="218.06" y1="110.81" x2="210.51" y2="110.81"/><line class="cls-1" x1="214.29" y1="97.5" x2="210.51" y2="97.5"/><line class="cls-1" x1="218.06" y1="110.81" x2="210.51" y2="110.81"/><line class="cls-1" x1="223.71" y1="130.76" x2="210.51" y2="130.76"/><line class="cls-1" x1="218.06" y1="110.81" x2="210.51" y2="110.81"/><line class="cls-1" x1="223.71" y1="130.76" x2="210.51" y2="130.76"/><line class="cls-1" x1="218.06" y1="110.81" x2="210.51" y2="110.81"/><line class="cls-1" x1="218.06" y1="110.81" x2="210.51" y2="110.81"/><line class="cls-1" x1="212.4" y1="90.85" x2="210.51" y2="90.85"/><line class="cls-1" x1="216.17" y1="104.16" x2="210.51" y2="104.16"/><line class="cls-1" x1="229.37" y1="150.73" x2="210.51" y2="150.73"/><line class="cls-1" x1="219.94" y1="117.47" x2="210.51" y2="117.47"/><line class="cls-1" x1="216.17" y1="104.16" x2="210.51" y2="104.16"/><line class="cls-1" x1="219.94" y1="117.47" x2="210.51" y2="117.47"/><line class="cls-1" x1="229.37" y1="150.73" x2="210.51" y2="150.73"/><line class="cls-1" x1="212.4" y1="90.85" x2="210.51" y2="90.85"/><line class="cls-1" x1="218.06" y1="110.81" x2="210.51" y2="110.81"/><line class="cls-1" x1="218.06" y1="110.81" x2="210.51" y2="110.81"/><line class="cls-1" x1="221.83" y1="124.11" x2="210.51" y2="124.11"/></g><g><line class="cls-1" x1="274.63" y1="110.8" x2="267.09" y2="110.8"/><line class="cls-1" x1="270.86" y1="97.5" x2="267.09" y2="97.5"/><line class="cls-1" x1="274.63" y1="110.8" x2="267.09" y2="110.8"/><line class="cls-1" x1="268.97" y1="90.84" x2="267.09" y2="90.84"/><line class="cls-1" x1="274.63" y1="110.8" x2="267.09" y2="110.8"/><line class="cls-1" x1="270.86" y1="97.5" x2="267.09" y2="97.5"/><line class="cls-1" x1="274.63" y1="110.8" x2="267.09" y2="110.8"/><line class="cls-1" x1="268.97" y1="90.84" x2="267.09" y2="90.84"/><line class="cls-1" x1="268.97" y1="90.84" x2="267.09" y2="90.84"/><line class="cls-1" x1="268.97" y1="90.84" x2="267.09" y2="90.84"/><line class="cls-1" x1="272.74" y1="104.15" x2="267.09" y2="104.15"/><line class="cls-1" x1="280.29" y1="130.76" x2="267.09" y2="130.76"/><line class="cls-1" x1="278.4" y1="124.11" x2="267.09" y2="124.11"/><line class="cls-1" x1="268.97" y1="90.84" x2="267.09" y2="90.84"/><line class="cls-1" x1="274.63" y1="110.8" x2="267.09" y2="110.8"/><line class="cls-1" x1="278.4" y1="124.11" x2="267.09" y2="124.11"/><line class="cls-1" x1="274.63" y1="110.8" x2="267.09" y2="110.8"/><line class="cls-1" x1="274.63" y1="110.8" x2="267.09" y2="110.8"/><line class="cls-1" x1="272.74" y1="104.15" x2="267.09" y2="104.15"/><line class="cls-1" x1="274.63" y1="110.8" x2="267.09" y2="110.8"/><line class="cls-1" x1="268.97" y1="90.84" x2="267.09" y2="90.84"/><line class="cls-1" x1="268.97" y1="90.84" x2="267.09" y2="90.84"/><line class="cls-1" x1="274.63" y1="110.8" x2="267.09" y2="110.8"/><line class="cls-1" x1="272.74" y1="104.15" x2="267.09" y2="104.15"/><line class="cls-1" x1="274.63" y1="110.8" x2="267.09" y2="110.8"/><line class="cls-1" x1="274.63" y1="110.8" x2="267.09" y2="110.8"/><line class="cls-1" x1="272.74" y1="104.15" x2="267.09" y2="104.15"/><line class="cls-1" x1="274.63" y1="110.8" x2="267.09" y2="110.8"/><line class="cls-1" x1="280.29" y1="130.76" x2="267.09" y2="130.76"/><line class="cls-1" x1="285.94" y1="150.72" x2="267.09" y2="150.72"/><line class="cls-1" x1="272.74" y1="104.15" x2="267.09" y2="104.15"/></g><g><line class="cls-1" x1="331.2" y1="110.81" x2="323.66" y2="110.81"/><line class="cls-1" x1="329.31" y1="104.15" x2="323.66" y2="104.15"/><line class="cls-1" x1="325.54" y1="90.84" x2="323.66" y2="90.84"/><line class="cls-1" x1="325.54" y1="90.84" x2="323.66" y2="90.84"/><line class="cls-1" x1="329.31" y1="104.15" x2="323.66" y2="104.15"/><line class="cls-1" x1="333.08" y1="117.46" x2="323.66" y2="117.46"/><line class="cls-1" x1="331.2" y1="110.81" x2="323.66" y2="110.81"/><line class="cls-1" x1="333.08" y1="117.46" x2="323.66" y2="117.46"/><line class="cls-1" x1="331.2" y1="110.81" x2="323.66" y2="110.81"/><line class="cls-1" x1="333.08" y1="117.46" x2="323.66" y2="117.46"/><line class="cls-1" x1="325.54" y1="90.84" x2="323.66" y2="90.84"/><line class="cls-1" x1="334.97" y1="124.11" x2="323.66" y2="124.11"/><line class="cls-1" x1="325.54" y1="90.84" x2="323.66" y2="90.84"/><line class="cls-1" x1="331.2" y1="110.81" x2="323.66" y2="110.81"/><line class="cls-1" x1="333.08" y1="117.46" x2="323.66" y2="117.46"/><line class="cls-1" x1="336.86" y1="130.76" x2="323.66" y2="130.76"/><line class="cls-1" x1="331.2" y1="110.81" x2="323.66" y2="110.81"/><line class="cls-1" x1="329.31" y1="104.15" x2="323.66" y2="104.15"/><line class="cls-1" x1="329.31" y1="104.15" x2="323.66" y2="104.15"/><line class="cls-1" x1="340.63" y1="144.07" x2="323.66" y2="144.07"/><line class="cls-1" x1="336.86" y1="130.76" x2="323.66" y2="130.76"/><line class="cls-1" x1="325.54" y1="90.84" x2="323.66" y2="90.84"/><line class="cls-1" x1="331.2" y1="110.81" x2="323.66" y2="110.81"/><line class="cls-1" x1="325.54" y1="90.84" x2="323.66" y2="90.84"/><line class="cls-1" x1="325.54" y1="90.84" x2="323.66" y2="90.84"/><line class="cls-1" x1="325.54" y1="90.84" x2="323.66" y2="90.84"/><line class="cls-1" x1="331.2" y1="110.81" x2="323.66" y2="110.81"/><line class="cls-1" x1="336.86" y1="130.76" x2="323.66" y2="130.76"/><line class="cls-1" x1="336.86" y1="130.76" x2="323.66" y2="130.76"/><line class="cls-1" x1="325.54" y1="90.84" x2="323.66" y2="90.84"/><line class="cls-1" x1="336.86" y1="130.76" x2="323.66" y2="130.76"/><line class="cls-1" x1="331.2" y1="110.81" x2="323.66" y2="110.81"/><line class="cls-1" x1="333.08" y1="117.46" x2="323.66" y2="117.46"/><line class="cls-1" x1="340.63" y1="144.07" x2="323.66" y2="144.07"/><line class="cls-1" x1="340.63" y1="144.07" x2="323.66" y2="144.07"/><line class="cls-1" x1="336.86" y1="130.76" x2="323.66" y2="130.76"/><line class="cls-1" x1="336.86" y1="130.76" x2="323.66" y2="130.76"/><line class="cls-1" x1="348.17" y1="170.69" x2="323.66" y2="170.69"/><line class="cls-1" x1="346.28" y1="164.03" x2="323.66" y2="164.03"/><line class="cls-1" x1="327.43" y1="97.5" x2="323.66" y2="97.5"/><line class="cls-1" x1="336.86" y1="130.76" x2="323.66" y2="130.76"/><line class="cls-1" x1="333.08" y1="117.46" x2="323.66" y2="117.46"/></g></g><g><line class="cls-2" x1="238.8" y1="84.19" x2="238.8" y2="275.81"/><line class="cls-2" x1="351.94" y1="84.19" x2="351.94" y2="275.81"/><line class="cls-2" x1="125.66" y1="84.19" x2="125.66" y2="275.81"/><line class="cls-2" x1="153.94" y1="84.19" x2="153.94" y2="275.81"/><line class="cls-2" x1="182.23" y1="84.19" x2="182.23" y2="275.81"/><line class="cls-2" x1="210.51" y1="84.19" x2="210.51" y2="275.81"/><line class="cls-2" x1="267.09" y1="84.19" x2="267.09" y2="275.81"/><line class="cls-2" x1="295.37" y1="84.19" x2="295.37" y2="275.81"/><line class="cls-2" x1="323.66" y1="84.19" x2="323.66" y2="275.81"/></g></svg>