<?xml version="1.0" encoding="UTF-8"?><svg id="Layer_1" xmlns="http://www.w3.org/2000/svg" viewBox="0 0 504 360"><defs><style>.cls-1{stroke-width:2px;}.cls-1,.cls-2{fill:none;stroke:#43ad49;stroke-miterlimit:10;}.cls-2{stroke-width:.5px;}</style></defs><g><line class="cls-1" x1="91.73" y1="122.05" x2="86.8" y2="122.05"/><line class="cls-1" x1="89.27" y1="125.56" x2="86.8" y2="125.56"/><line class="cls-1" x1="94.2" y1="115.02" x2="86.8" y2="115.02"/><line class="cls-1" x1="89.27" y1="129.07" x2="86.8" y2="129.07"/><line class="cls-1" x1="89.27" y1="132.59" x2="86.8" y2="132.59"/><line class="cls-1" x1="101.6" y1="108" x2="86.8" y2="108"/><line class="cls-1" x1="96.67" y1="111.51" x2="86.8" y2="111.51"/><line class="cls-1" x1="89.27" y1="136.1" x2="86.8" y2="136.1"/><line class="cls-1" x1="94.2" y1="118.54" x2="86.8" y2="118.54"/><line class="cls-1" x1="89.27" y1="139.61" x2="86.8" y2="139.61"/><line class="cls-1" x1="89.27" y1="143.12" x2="86.8" y2="143.12"/><line class="cls-1" x1="89.27" y1="146.63" x2="86.8" y2="146.63"/><line class="cls-1" x1="89.27" y1="150.15" x2="86.8" y2="150.15"/><line class="cls-1" x1="89.27" y1="153.66" x2="86.8" y2="153.66"/><line class="cls-1" x1="89.27" y1="157.17" x2="86.8" y2="157.17"/></g><g><line class="cls-1" x1="256.93" y1="125.56" x2="234.74" y2="125.56"/><line class="cls-1" x1="237.21" y1="188.78" x2="234.74" y2="188.78"/><line class="cls-1" x1="237.21" y1="192.29" x2="234.74" y2="192.29"/><line class="cls-1" x1="244.6" y1="160.68" x2="234.74" y2="160.68"/><line class="cls-1" x1="259.4" y1="115.02" x2="234.74" y2="115.02"/><line class="cls-1" x1="244.6" y1="164.2" x2="234.74" y2="164.2"/><line class="cls-1" x1="237.21" y1="195.8" x2="234.74" y2="195.8"/><line class="cls-1" x1="244.6" y1="167.71" x2="234.74" y2="167.71"/><line class="cls-1" x1="239.67" y1="181.76" x2="234.74" y2="181.76"/><line class="cls-1" x1="254.47" y1="132.59" x2="234.74" y2="132.59"/><line class="cls-1" x1="252" y1="143.12" x2="234.74" y2="143.12"/><line class="cls-1" x1="237.21" y1="199.32" x2="234.74" y2="199.32"/><line class="cls-1" x1="237.21" y1="202.83" x2="234.74" y2="202.83"/><line class="cls-1" x1="242.14" y1="174.73" x2="234.74" y2="174.73"/><line class="cls-1" x1="252" y1="146.63" x2="234.74" y2="146.63"/><line class="cls-1" x1="254.47" y1="136.1" x2="234.74" y2="136.1"/><line class="cls-1" x1="254.47" y1="139.61" x2="234.74" y2="139.61"/><line class="cls-1" x1="259.4" y1="118.54" x2="234.74" y2="118.54"/><line class="cls-1" x1="247.07" y1="153.66" x2="234.74" y2="153.66"/><line class="cls-1" x1="247.07" y1="157.17" x2="234.74" y2="157.17"/><line class="cls-1" x1="239.67" y1="185.27" x2="234.74" y2="185.27"/><line class="cls-1" x1="237.21" y1="206.34" x2="234.74" y2="206.34"/><line class="cls-1" x1="244.6" y1="171.22" x2="234.74" y2="171.22"/><line class="cls-1" x1="256.93" y1="129.07" x2="234.74" y2="129.07"/><line class="cls-1" x1="237.21" y1="209.85" x2="234.74" y2="209.85"/><line class="cls-1" x1="269.26" y1="111.51" x2="234.74" y2="111.51"/><line class="cls-1" x1="276.66" y1="108" x2="234.74" y2="108"/><line class="cls-1" x1="252" y1="150.15" x2="234.74" y2="150.15"/><line class="cls-1" x1="242.14" y1="178.24" x2="234.74" y2="178.24"/><line class="cls-1" x1="259.4" y1="122.05" x2="234.74" y2="122.05"/></g><line class="cls-1" x1="311.18" y1="157.17" x2="308.71" y2="157.17"/><line class="cls-1" x1="318.57" y1="122.05" x2="308.71" y2="122.05"/><line class="cls-1" x1="316.11" y1="136.1" x2="308.71" y2="136.1"/><line class="cls-1" x1="323.5" y1="115.02" x2="308.71" y2="115.02"/><line class="cls-1" x1="311.18" y1="160.68" x2="308.71" y2="160.68"/><line class="cls-1" x1="313.64" y1="143.12" x2="308.71" y2="143.12"/><line class="cls-1" x1="311.18" y1="164.2" x2="308.71" y2="164.2"/><line class="cls-1" x1="318.57" y1="125.56" x2="308.71" y2="125.56"/><line class="cls-1" x1="311.18" y1="167.71" x2="308.71" y2="167.71"/><line class="cls-1" x1="318.57" y1="129.07" x2="308.71" y2="129.07"/><line class="cls-1" x1="311.18" y1="171.22" x2="308.71" y2="171.22"/><line class="cls-1" x1="311.18" y1="174.73" x2="308.71" y2="174.73"/><line class="cls-1" x1="318.57" y1="132.59" x2="308.71" y2="132.59"/><line class="cls-1" x1="333.37" y1="111.51" x2="308.71" y2="111.51"/><line class="cls-1" x1="316.11" y1="139.61" x2="308.71" y2="139.61"/><line class="cls-1" x1="311.18" y1="178.24" x2="308.71" y2="178.24"/><line class="cls-1" x1="313.64" y1="146.63" x2="308.71" y2="146.63"/><line class="cls-1" x1="311.18" y1="181.76" x2="308.71" y2="181.76"/><line class="cls-1" x1="313.64" y1="150.15" x2="308.71" y2="150.15"/><line class="cls-1" x1="311.18" y1="185.27" x2="308.71" y2="185.27"/><line class="cls-1" x1="360.49" y1="108" x2="308.71" y2="108"/><line class="cls-1" x1="313.64" y1="153.66" x2="308.71" y2="153.66"/><line class="cls-1" x1="323.5" y1="118.54" x2="308.71" y2="118.54"/><g><line class="cls-1" x1="417.2" y1="108" x2="382.68" y2="108"/><line class="cls-1" x1="385.14" y1="150.15" x2="382.68" y2="150.15"/><line class="cls-1" x1="392.54" y1="122.05" x2="382.68" y2="122.05"/><line class="cls-1" x1="385.14" y1="153.66" x2="382.68" y2="153.66"/><line class="cls-1" x1="387.61" y1="143.12" x2="382.68" y2="143.12"/><line class="cls-1" x1="390.08" y1="139.61" x2="382.68" y2="139.61"/><line class="cls-1" x1="385.14" y1="157.17" x2="382.68" y2="157.17"/><line class="cls-1" x1="385.14" y1="160.68" x2="382.68" y2="160.68"/><line class="cls-1" x1="392.54" y1="125.56" x2="382.68" y2="125.56"/><line class="cls-1" x1="392.54" y1="129.07" x2="382.68" y2="129.07"/><line class="cls-1" x1="385.14" y1="164.2" x2="382.68" y2="164.2"/><line class="cls-1" x1="392.54" y1="132.59" x2="382.68" y2="132.59"/><line class="cls-1" x1="385.14" y1="167.71" x2="382.68" y2="167.71"/><line class="cls-1" x1="385.14" y1="171.22" x2="382.68" y2="171.22"/><line class="cls-1" x1="404.87" y1="111.51" x2="382.68" y2="111.51"/><line class="cls-1" x1="385.14" y1="174.73" x2="382.68" y2="174.73"/><line class="cls-1" x1="385.14" y1="178.24" x2="382.68" y2="178.24"/><line class="cls-1" x1="385.14" y1="181.76" x2="382.68" y2="181.76"/><line class="cls-1" x1="399.94" y1="115.02" x2="382.68" y2="115.02"/><line class="cls-1" x1="395.01" y1="118.54" x2="382.68" y2="118.54"/><line class="cls-1" x1="385.14" y1="185.27" x2="382.68" y2="185.27"/><line class="cls-1" x1="392.54" y1="136.1" x2="382.68" y2="136.1"/><line class="cls-1" x1="387.61" y1="146.63" x2="382.68" y2="146.63"/></g><g><line class="cls-1" x1="131.18" y1="157.17" x2="123.79" y2="157.17"/><line class="cls-1" x1="131.18" y1="160.68" x2="123.79" y2="160.68"/><line class="cls-1" x1="141.05" y1="111.51" x2="123.79" y2="111.51"/><line class="cls-1" x1="141.05" y1="108" x2="123.79" y2="108"/><line class="cls-1" x1="133.65" y1="125.56" x2="123.79" y2="125.56"/><line class="cls-1" x1="133.65" y1="129.07" x2="123.79" y2="129.07"/><line class="cls-1" x1="133.65" y1="132.59" x2="123.79" y2="132.59"/><line class="cls-1" x1="131.18" y1="164.2" x2="123.79" y2="164.2"/><line class="cls-1" x1="126.25" y1="192.29" x2="123.79" y2="192.29"/><line class="cls-1" x1="128.72" y1="171.22" x2="123.79" y2="171.22"/><line class="cls-1" x1="128.72" y1="174.73" x2="123.79" y2="174.73"/><line class="cls-1" x1="133.65" y1="136.1" x2="123.79" y2="136.1"/><line class="cls-1" x1="131.18" y1="167.71" x2="123.79" y2="167.71"/><line class="cls-1" x1="136.12" y1="118.54" x2="123.79" y2="118.54"/><line class="cls-1" x1="128.72" y1="178.24" x2="123.79" y2="178.24"/><line class="cls-1" x1="133.65" y1="139.61" x2="123.79" y2="139.61"/><line class="cls-1" x1="126.25" y1="195.8" x2="123.79" y2="195.8"/><line class="cls-1" x1="133.65" y1="143.12" x2="123.79" y2="143.12"/><line class="cls-1" x1="128.72" y1="181.76" x2="123.79" y2="181.76"/><line class="cls-1" x1="133.65" y1="146.63" x2="123.79" y2="146.63"/><line class="cls-1" x1="133.65" y1="150.15" x2="123.79" y2="150.15"/><line class="cls-1" x1="136.12" y1="122.05" x2="123.79" y2="122.05"/><line class="cls-1" x1="133.65" y1="153.66" x2="123.79" y2="153.66"/><line class="cls-1" x1="128.72" y1="185.27" x2="123.79" y2="185.27"/><line class="cls-1" x1="126.25" y1="199.32" x2="123.79" y2="199.32"/><line class="cls-1" x1="128.72" y1="188.78" x2="123.79" y2="188.78"/><line class="cls-1" x1="138.58" y1="115.02" x2="123.79" y2="115.02"/><line class="cls-1" x1="126.25" y1="202.83" x2="123.79" y2="202.83"/></g><g><line class="cls-1" x1="163.24" y1="153.66" x2="160.77" y2="153.66"/><line class="cls-1" x1="185.43" y1="111.51" x2="160.77" y2="111.51"/><line class="cls-1" x1="163.24" y1="157.17" x2="160.77" y2="157.17"/><line class="cls-1" x1="163.24" y1="160.68" x2="160.77" y2="160.68"/><line class="cls-1" x1="165.71" y1="143.12" x2="160.77" y2="143.12"/><line class="cls-1" x1="163.24" y1="164.2" x2="160.77" y2="164.2"/><line class="cls-1" x1="163.24" y1="167.71" x2="160.77" y2="167.71"/><line class="cls-1" x1="163.24" y1="171.22" x2="160.77" y2="171.22"/><line class="cls-1" x1="178.03" y1="118.54" x2="160.77" y2="118.54"/><line class="cls-1" x1="173.1" y1="129.07" x2="160.77" y2="129.07"/><line class="cls-1" x1="163.24" y1="174.73" x2="160.77" y2="174.73"/><line class="cls-1" x1="168.17" y1="136.1" x2="160.77" y2="136.1"/><line class="cls-1" x1="192.82" y1="108" x2="160.77" y2="108"/><line class="cls-1" x1="163.24" y1="178.24" x2="160.77" y2="178.24"/><line class="cls-1" x1="178.03" y1="122.05" x2="160.77" y2="122.05"/><line class="cls-1" x1="163.24" y1="181.76" x2="160.77" y2="181.76"/><line class="cls-1" x1="175.56" y1="125.56" x2="160.77" y2="125.56"/><line class="cls-1" x1="165.71" y1="146.63" x2="160.77" y2="146.63"/><line class="cls-1" x1="165.71" y1="150.15" x2="160.77" y2="150.15"/><line class="cls-1" x1="163.24" y1="185.27" x2="160.77" y2="185.27"/><line class="cls-1" x1="163.24" y1="188.78" x2="160.77" y2="188.78"/><line class="cls-1" x1="163.24" y1="192.29" x2="160.77" y2="192.29"/><line class="cls-1" x1="168.17" y1="139.61" x2="160.77" y2="139.61"/><line class="cls-1" x1="180.5" y1="115.02" x2="160.77" y2="115.02"/><line class="cls-1" x1="170.63" y1="132.59" x2="160.77" y2="132.59"/></g><g><line class="cls-1" x1="222.41" y1="111.51" x2="197.76" y2="111.51"/><line class="cls-1" x1="215.01" y1="132.59" x2="197.76" y2="132.59"/><line class="cls-1" x1="222.41" y1="115.02" x2="197.76" y2="115.02"/><line class="cls-1" x1="210.09" y1="167.71" x2="197.76" y2="167.71"/><line class="cls-1" x1="207.62" y1="181.76" x2="197.76" y2="181.76"/><line class="cls-1" x1="222.41" y1="118.54" x2="197.76" y2="118.54"/><line class="cls-1" x1="224.88" y1="108" x2="197.76" y2="108"/><line class="cls-1" x1="210.09" y1="171.22" x2="197.76" y2="171.22"/><line class="cls-1" x1="205.15" y1="223.9" x2="197.76" y2="223.9"/><line class="cls-1" x1="212.55" y1="150.15" x2="197.76" y2="150.15"/><line class="cls-1" x1="212.55" y1="153.66" x2="197.76" y2="153.66"/><line class="cls-1" x1="215.01" y1="136.1" x2="197.76" y2="136.1"/><line class="cls-1" x1="222.41" y1="122.05" x2="197.76" y2="122.05"/><line class="cls-1" x1="200.22" y1="241.46" x2="197.76" y2="241.46"/><line class="cls-1" x1="212.55" y1="157.17" x2="197.76" y2="157.17"/><line class="cls-1" x1="202.69" y1="234.44" x2="197.76" y2="234.44"/><line class="cls-1" x1="207.62" y1="185.27" x2="197.76" y2="185.27"/><line class="cls-1" x1="207.62" y1="188.78" x2="197.76" y2="188.78"/><line class="cls-1" x1="212.55" y1="160.68" x2="197.76" y2="160.68"/><line class="cls-1" x1="215.01" y1="139.61" x2="197.76" y2="139.61"/><line class="cls-1" x1="200.22" y1="244.98" x2="197.76" y2="244.98"/><line class="cls-1" x1="207.62" y1="192.29" x2="197.76" y2="192.29"/><line class="cls-1" x1="207.62" y1="195.8" x2="197.76" y2="195.8"/><line class="cls-1" x1="207.62" y1="199.32" x2="197.76" y2="199.32"/><line class="cls-1" x1="202.69" y1="237.95" x2="197.76" y2="237.95"/><line class="cls-1" x1="207.62" y1="202.83" x2="197.76" y2="202.83"/><line class="cls-1" x1="215.01" y1="143.12" x2="197.76" y2="143.12"/><line class="cls-1" x1="207.62" y1="206.34" x2="197.76" y2="206.34"/><line class="cls-1" x1="215.01" y1="146.63" x2="197.76" y2="146.63"/><line class="cls-1" x1="207.62" y1="209.85" x2="197.76" y2="209.85"/><line class="cls-1" x1="207.62" y1="213.37" x2="197.76" y2="213.37"/><line class="cls-1" x1="200.22" y1="248.49" x2="197.76" y2="248.49"/><line class="cls-1" x1="205.15" y1="227.41" x2="197.76" y2="227.41"/><line class="cls-1" x1="222.41" y1="125.56" x2="197.76" y2="125.56"/><line class="cls-1" x1="210.09" y1="174.73" x2="197.76" y2="174.73"/><line class="cls-1" x1="205.15" y1="230.93" x2="197.76" y2="230.93"/><line class="cls-1" x1="210.09" y1="178.24" x2="197.76" y2="178.24"/><line class="cls-1" x1="222.41" y1="129.07" x2="197.76" y2="129.07"/><line class="cls-1" x1="200.22" y1="252" x2="197.76" y2="252"/><line class="cls-1" x1="207.62" y1="216.88" x2="197.76" y2="216.88"/><line class="cls-1" x1="207.62" y1="220.39" x2="197.76" y2="220.39"/><line class="cls-1" x1="212.55" y1="164.2" x2="197.76" y2="164.2"/></g><g><line class="cls-1" x1="281.59" y1="125.56" x2="271.73" y2="125.56"/><line class="cls-1" x1="276.66" y1="185.27" x2="271.73" y2="185.27"/><line class="cls-1" x1="281.59" y1="129.07" x2="271.73" y2="129.07"/><line class="cls-1" x1="274.19" y1="192.29" x2="271.73" y2="192.29"/><line class="cls-1" x1="281.59" y1="132.59" x2="271.73" y2="132.59"/><line class="cls-1" x1="276.66" y1="188.78" x2="271.73" y2="188.78"/><line class="cls-1" x1="281.59" y1="136.1" x2="271.73" y2="136.1"/><line class="cls-1" x1="274.19" y1="195.8" x2="271.73" y2="195.8"/><line class="cls-1" x1="274.19" y1="199.32" x2="271.73" y2="199.32"/><line class="cls-1" x1="274.19" y1="202.83" x2="271.73" y2="202.83"/><line class="cls-1" x1="279.12" y1="167.71" x2="271.73" y2="167.71"/><line class="cls-1" x1="288.99" y1="111.51" x2="271.73" y2="111.51"/><line class="cls-1" x1="286.52" y1="118.54" x2="271.73" y2="118.54"/><line class="cls-1" x1="274.19" y1="206.34" x2="271.73" y2="206.34"/><line class="cls-1" x1="281.59" y1="139.61" x2="271.73" y2="139.61"/><line class="cls-1" x1="286.52" y1="122.05" x2="271.73" y2="122.05"/><line class="cls-1" x1="281.59" y1="143.12" x2="271.73" y2="143.12"/><line class="cls-1" x1="281.59" y1="146.63" x2="271.73" y2="146.63"/><line class="cls-1" x1="279.12" y1="171.22" x2="271.73" y2="171.22"/><line class="cls-1" x1="281.59" y1="150.15" x2="271.73" y2="150.15"/><line class="cls-1" x1="274.19" y1="209.85" x2="271.73" y2="209.85"/><line class="cls-1" x1="274.19" y1="213.37" x2="271.73" y2="213.37"/><line class="cls-1" x1="281.59" y1="153.66" x2="271.73" y2="153.66"/><line class="cls-1" x1="279.12" y1="174.73" x2="271.73" y2="174.73"/><line class="cls-1" x1="281.59" y1="157.17" x2="271.73" y2="157.17"/><line class="cls-1" x1="281.59" y1="160.68" x2="271.73" y2="160.68"/><line class="cls-1" x1="279.12" y1="178.24" x2="271.73" y2="178.24"/><line class="cls-1" x1="281.59" y1="164.2" x2="271.73" y2="164.2"/><line class="cls-1" x1="288.99" y1="115.02" x2="271.73" y2="115.02"/><line class="cls-1" x1="296.38" y1="108" x2="271.73" y2="108"/><line class="cls-1" x1="279.12" y1="181.76" x2="271.73" y2="181.76"/></g><g><line class="cls-1" x1="355.56" y1="178.24" x2="345.69" y2="178.24"/><line class="cls-1" x1="353.09" y1="206.34" x2="345.69" y2="206.34"/><line class="cls-1" x1="348.16" y1="223.9" x2="345.69" y2="223.9"/><line class="cls-1" x1="348.16" y1="227.41" x2="345.69" y2="227.41"/><line class="cls-1" x1="353.09" y1="209.85" x2="345.69" y2="209.85"/><line class="cls-1" x1="358.02" y1="157.17" x2="345.69" y2="157.17"/><line class="cls-1" x1="355.56" y1="181.76" x2="345.69" y2="181.76"/><line class="cls-1" x1="358.02" y1="160.68" x2="345.69" y2="160.68"/><line class="cls-1" x1="355.56" y1="185.27" x2="345.69" y2="185.27"/><line class="cls-1" x1="358.02" y1="164.2" x2="345.69" y2="164.2"/><line class="cls-1" x1="348.16" y1="230.93" x2="345.69" y2="230.93"/><line class="cls-1" x1="360.49" y1="153.66" x2="345.69" y2="153.66"/><line class="cls-1" x1="348.16" y1="234.44" x2="345.69" y2="234.44"/><line class="cls-1" x1="355.56" y1="188.78" x2="345.69" y2="188.78"/><line class="cls-1" x1="358.02" y1="167.71" x2="345.69" y2="167.71"/><line class="cls-1" x1="362.95" y1="125.56" x2="345.69" y2="125.56"/><line class="cls-1" x1="355.56" y1="192.29" x2="345.69" y2="192.29"/><line class="cls-1" x1="353.09" y1="213.37" x2="345.69" y2="213.37"/><line class="cls-1" x1="353.09" y1="216.88" x2="345.69" y2="216.88"/><line class="cls-1" x1="367.88" y1="115.02" x2="345.69" y2="115.02"/><line class="cls-1" x1="362.95" y1="129.07" x2="345.69" y2="129.07"/><line class="cls-1" x1="348.16" y1="237.95" x2="345.69" y2="237.95"/><line class="cls-1" x1="355.56" y1="195.8" x2="345.69" y2="195.8"/><line class="cls-1" x1="348.16" y1="241.46" x2="345.69" y2="241.46"/><line class="cls-1" x1="348.16" y1="244.98" x2="345.69" y2="244.98"/><line class="cls-1" x1="348.16" y1="248.49" x2="345.69" y2="248.49"/><line class="cls-1" x1="355.56" y1="199.32" x2="345.69" y2="199.32"/><line class="cls-1" x1="362.95" y1="132.59" x2="345.69" y2="132.59"/><line class="cls-1" x1="362.95" y1="136.1" x2="345.69" y2="136.1"/><line class="cls-1" x1="348.16" y1="252" x2="345.69" y2="252"/><line class="cls-1" x1="362.95" y1="139.61" x2="345.69" y2="139.61"/><line class="cls-1" x1="355.56" y1="202.83" x2="345.69" y2="202.83"/><line class="cls-1" x1="358.02" y1="171.22" x2="345.69" y2="171.22"/><line class="cls-1" x1="367.88" y1="118.54" x2="345.69" y2="118.54"/><line class="cls-1" x1="367.88" y1="122.05" x2="345.69" y2="122.05"/><line class="cls-1" x1="362.95" y1="143.12" x2="345.69" y2="143.12"/><line class="cls-1" x1="362.95" y1="146.63" x2="345.69" y2="146.63"/><line class="cls-1" x1="377.75" y1="108" x2="345.69" y2="108"/><line class="cls-1" x1="375.28" y1="111.51" x2="345.69" y2="111.51"/><line class="cls-1" x1="350.63" y1="220.39" x2="345.69" y2="220.39"/><line class="cls-1" x1="362.95" y1="150.15" x2="345.69" y2="150.15"/><line class="cls-1" x1="358.02" y1="174.73" x2="345.69" y2="174.73"/></g><g><line class="cls-2" x1="234.74" y1="107" x2="234.74" y2="253"/><line class="cls-2" x1="382.68" y1="107" x2="382.68" y2="253"/><line class="cls-2" x1="86.8" y1="107" x2="86.8" y2="253"/><line class="cls-2" x1="123.79" y1="107" x2="123.79" y2="253"/><line class="cls-2" x1="160.77" y1="107" x2="160.77" y2="253"/><line class="cls-2" x1="197.76" y1="107" x2="197.76" y2="253"/><line class="cls-2" x1="271.73" y1="107" x2="271.73" y2="253"/><line class="cls-2" x1="308.71" y1="107" x2="308.71" y2="253"/><line class="cls-2" x1="345.69" y1="107" x2="345.69" y2="253"/></g></svg>