<?xml version="1.0" encoding="UTF-8"?><svg id="Layer_1" xmlns="http://www.w3.org/2000/svg" viewBox="0 0 504 360"><defs><style>.cls-1{stroke:#000;}.cls-1,.cls-2{fill:none;stroke-linecap:round;stroke-miterlimit:10;stroke-width:2px;}.cls-2{opacity:.2;stroke:#43ad49;}.cls-3{opacity:.5;}</style></defs><g class="cls-3"><line class="cls-1" x1="229.77" y1="152.7" x2="229.77" y2="207.3"/><line class="cls-1" x1="420.32" y1="152.7" x2="420.32" y2="207.3"/><line class="cls-1" x1="39.22" y1="152.7" x2="39.22" y2="207.3"/><line class="cls-1" x1="86.86" y1="152.7" x2="86.86" y2="207.3"/><line class="cls-1" x1="134.5" y1="152.7" x2="134.5" y2="207.3"/><line class="cls-1" x1="182.13" y1="152.7" x2="182.13" y2="207.3"/><line class="cls-1" x1="277.41" y1="152.7" x2="277.41" y2="207.3"/><line class="cls-1" x1="325.04" y1="152.7" x2="325.04" y2="207.3"/><line class="cls-1" x1="372.68" y1="152.7" x2="372.68" y2="207.3"/></g><line class="cls-2" x1="45.57" y1="152.7" x2="39.22" y2="207.3"/><line class="cls-2" x1="42.4" y1="152.7" x2="39.22" y2="207.3"/><line class="cls-2" x1="48.75" y1="152.7" x2="39.22" y2="207.3"/><line class="cls-2" x1="42.4" y1="152.7" x2="39.22" y2="207.3"/><line class="cls-2" x1="42.4" y1="152.7" x2="39.22" y2="207.3"/><line class="cls-2" x1="58.28" y1="152.7" x2="39.22" y2="207.3"/><line class="cls-2" x1="51.92" y1="152.7" x2="39.22" y2="207.3"/><line class="cls-2" x1="42.4" y1="152.7" x2="39.22" y2="207.3"/><line class="cls-2" x1="48.75" y1="152.7" x2="39.22" y2="207.3"/><line class="cls-2" x1="42.4" y1="152.7" x2="39.22" y2="207.3"/><line class="cls-2" x1="42.4" y1="152.7" x2="39.22" y2="207.3"/><line class="cls-2" x1="42.4" y1="152.7" x2="39.22" y2="207.3"/><line class="cls-2" x1="42.4" y1="152.7" x2="39.22" y2="207.3"/><line class="cls-2" x1="42.4" y1="152.7" x2="39.22" y2="207.3"/><line class="cls-2" x1="42.4" y1="152.7" x2="39.22" y2="207.3"/><line class="cls-2" x1="258.35" y1="152.7" x2="229.77" y2="207.3"/><line class="cls-2" x1="232.94" y1="152.7" x2="229.77" y2="207.3"/><line class="cls-2" x1="232.94" y1="152.7" x2="229.77" y2="207.3"/><line class="cls-2" x1="242.47" y1="152.7" x2="229.77" y2="207.3"/><line class="cls-2" x1="261.53" y1="152.7" x2="229.77" y2="207.3"/><line class="cls-2" x1="242.47" y1="152.7" x2="229.77" y2="207.3"/><line class="cls-2" x1="232.94" y1="152.7" x2="229.77" y2="207.3"/><line class="cls-2" x1="242.47" y1="152.7" x2="229.77" y2="207.3"/><line class="cls-2" x1="236.12" y1="152.7" x2="229.77" y2="207.3"/><line class="cls-2" x1="255.18" y1="152.7" x2="229.77" y2="207.3"/><line class="cls-2" x1="252" y1="152.7" x2="229.77" y2="207.3"/><line class="cls-2" x1="232.94" y1="152.7" x2="229.77" y2="207.3"/><line class="cls-2" x1="232.94" y1="152.7" x2="229.77" y2="207.3"/><line class="cls-2" x1="239.3" y1="152.7" x2="229.77" y2="207.3"/><line class="cls-2" x1="252" y1="152.7" x2="229.77" y2="207.3"/><line class="cls-2" x1="255.18" y1="152.7" x2="229.77" y2="207.3"/><line class="cls-2" x1="255.18" y1="152.7" x2="229.77" y2="207.3"/><line class="cls-2" x1="261.53" y1="152.7" x2="229.77" y2="207.3"/><line class="cls-2" x1="245.65" y1="152.7" x2="229.77" y2="207.3"/><line class="cls-2" x1="245.65" y1="152.7" x2="229.77" y2="207.3"/><line class="cls-2" x1="236.12" y1="152.7" x2="229.77" y2="207.3"/><line class="cls-2" x1="232.94" y1="152.7" x2="229.77" y2="207.3"/><line class="cls-2" x1="242.47" y1="152.7" x2="229.77" y2="207.3"/><line class="cls-2" x1="258.35" y1="152.7" x2="229.77" y2="207.3"/><line class="cls-2" x1="232.94" y1="152.7" x2="229.77" y2="207.3"/><line class="cls-2" x1="274.23" y1="152.7" x2="229.77" y2="207.3"/><line class="cls-2" x1="283.76" y1="152.7" x2="229.77" y2="207.3"/><line class="cls-2" x1="252" y1="152.7" x2="229.77" y2="207.3"/><line class="cls-2" x1="239.3" y1="152.7" x2="229.77" y2="207.3"/><line class="cls-2" x1="261.53" y1="152.7" x2="229.77" y2="207.3"/><line class="cls-2" x1="328.22" y1="152.7" x2="325.04" y2="207.3"/><line class="cls-2" x1="337.75" y1="152.7" x2="325.04" y2="207.3"/><line class="cls-2" x1="334.57" y1="152.7" x2="325.04" y2="207.3"/><line class="cls-2" x1="344.1" y1="152.7" x2="325.04" y2="207.3"/><line class="cls-2" x1="328.22" y1="152.7" x2="325.04" y2="207.3"/><line class="cls-2" x1="331.39" y1="152.7" x2="325.04" y2="207.3"/><line class="cls-2" x1="328.22" y1="152.7" x2="325.04" y2="207.3"/><line class="cls-2" x1="337.75" y1="152.7" x2="325.04" y2="207.3"/><line class="cls-2" x1="328.22" y1="152.7" x2="325.04" y2="207.3"/><line class="cls-2" x1="337.75" y1="152.7" x2="325.04" y2="207.3"/><line class="cls-2" x1="328.22" y1="152.7" x2="325.04" y2="207.3"/><line class="cls-2" x1="328.22" y1="152.7" x2="325.04" y2="207.3"/><line class="cls-2" x1="337.75" y1="152.7" x2="325.04" y2="207.3"/><line class="cls-2" x1="356.8" y1="152.7" x2="325.04" y2="207.3"/><line class="cls-2" x1="334.57" y1="152.7" x2="325.04" y2="207.3"/><line class="cls-2" x1="328.22" y1="152.7" x2="325.04" y2="207.3"/><line class="cls-2" x1="331.39" y1="152.7" x2="325.04" y2="207.3"/><line class="cls-2" x1="328.22" y1="152.7" x2="325.04" y2="207.3"/><line class="cls-2" x1="331.39" y1="152.7" x2="325.04" y2="207.3"/><line class="cls-2" x1="328.22" y1="152.7" x2="325.04" y2="207.3"/><line class="cls-2" x1="391.74" y1="152.7" x2="325.04" y2="207.3"/><line class="cls-2" x1="331.39" y1="152.7" x2="325.04" y2="207.3"/><line class="cls-2" x1="344.1" y1="152.7" x2="325.04" y2="207.3"/><line class="cls-2" x1="464.78" y1="152.7" x2="420.32" y2="207.3"/><line class="cls-2" x1="423.49" y1="152.7" x2="420.32" y2="207.3"/><line class="cls-2" x1="433.02" y1="152.7" x2="420.32" y2="207.3"/><line class="cls-2" x1="423.49" y1="152.7" x2="420.32" y2="207.3"/><line class="cls-2" x1="426.67" y1="152.7" x2="420.32" y2="207.3"/><line class="cls-2" x1="429.85" y1="152.7" x2="420.32" y2="207.3"/><line class="cls-2" x1="423.49" y1="152.7" x2="420.32" y2="207.3"/><line class="cls-2" x1="423.49" y1="152.7" x2="420.32" y2="207.3"/><line class="cls-2" x1="433.02" y1="152.7" x2="420.32" y2="207.3"/><line class="cls-2" x1="433.02" y1="152.7" x2="420.32" y2="207.3"/><line class="cls-2" x1="423.49" y1="152.7" x2="420.32" y2="207.3"/><line class="cls-2" x1="433.02" y1="152.7" x2="420.32" y2="207.3"/><line class="cls-2" x1="423.49" y1="152.7" x2="420.32" y2="207.3"/><line class="cls-2" x1="423.49" y1="152.7" x2="420.32" y2="207.3"/><line class="cls-2" x1="448.9" y1="152.7" x2="420.32" y2="207.3"/><line class="cls-2" x1="423.49" y1="152.7" x2="420.32" y2="207.3"/><line class="cls-2" x1="423.49" y1="152.7" x2="420.32" y2="207.3"/><line class="cls-2" x1="423.49" y1="152.7" x2="420.32" y2="207.3"/><line class="cls-2" x1="442.55" y1="152.7" x2="420.32" y2="207.3"/><line class="cls-2" x1="436.2" y1="152.7" x2="420.32" y2="207.3"/><line class="cls-2" x1="423.49" y1="152.7" x2="420.32" y2="207.3"/><line class="cls-2" x1="433.02" y1="152.7" x2="420.32" y2="207.3"/><line class="cls-2" x1="426.67" y1="152.7" x2="420.32" y2="207.3"/><line class="cls-2" x1="96.38" y1="152.7" x2="86.86" y2="207.3"/><line class="cls-2" x1="96.38" y1="152.7" x2="86.86" y2="207.3"/><line class="cls-2" x1="109.09" y1="152.7" x2="86.86" y2="207.3"/><line class="cls-2" x1="109.09" y1="152.7" x2="86.86" y2="207.3"/><line class="cls-2" x1="99.56" y1="152.7" x2="86.86" y2="207.3"/><line class="cls-2" x1="99.56" y1="152.7" x2="86.86" y2="207.3"/><line class="cls-2" x1="99.56" y1="152.7" x2="86.86" y2="207.3"/><line class="cls-2" x1="96.38" y1="152.7" x2="86.86" y2="207.3"/><line class="cls-2" x1="90.03" y1="152.7" x2="86.86" y2="207.3"/><line class="cls-2" x1="93.21" y1="152.7" x2="86.86" y2="207.3"/><line class="cls-2" x1="93.21" y1="152.7" x2="86.86" y2="207.3"/><line class="cls-2" x1="99.56" y1="152.7" x2="86.86" y2="207.3"/><line class="cls-2" x1="96.38" y1="152.7" x2="86.86" y2="207.3"/><line class="cls-2" x1="102.74" y1="152.7" x2="86.86" y2="207.3"/><line class="cls-2" x1="93.21" y1="152.7" x2="86.86" y2="207.3"/><line class="cls-2" x1="99.56" y1="152.7" x2="86.86" y2="207.3"/><line class="cls-2" x1="90.03" y1="152.7" x2="86.86" y2="207.3"/><line class="cls-2" x1="99.56" y1="152.7" x2="86.86" y2="207.3"/><line class="cls-2" x1="93.21" y1="152.7" x2="86.86" y2="207.3"/><line class="cls-2" x1="99.56" y1="152.7" x2="86.86" y2="207.3"/><line class="cls-2" x1="99.56" y1="152.7" x2="86.86" y2="207.3"/><line class="cls-2" x1="102.74" y1="152.7" x2="86.86" y2="207.3"/><line class="cls-2" x1="99.56" y1="152.7" x2="86.86" y2="207.3"/><line class="cls-2" x1="93.21" y1="152.7" x2="86.86" y2="207.3"/><line class="cls-2" x1="90.03" y1="152.7" x2="86.86" y2="207.3"/><line class="cls-2" x1="93.21" y1="152.7" x2="86.86" y2="207.3"/><line class="cls-2" x1="105.91" y1="152.7" x2="86.86" y2="207.3"/><line class="cls-2" x1="90.03" y1="152.7" x2="86.86" y2="207.3"/><line class="cls-2" x1="137.67" y1="152.7" x2="134.5" y2="207.3"/><line class="cls-2" x1="166.25" y1="152.7" x2="134.5" y2="207.3"/><line class="cls-2" x1="137.67" y1="152.7" x2="134.5" y2="207.3"/><line class="cls-2" x1="137.67" y1="152.7" x2="134.5" y2="207.3"/><line class="cls-2" x1="140.85" y1="152.7" x2="134.5" y2="207.3"/><line class="cls-2" x1="137.67" y1="152.7" x2="134.5" y2="207.3"/><line class="cls-2" x1="137.67" y1="152.7" x2="134.5" y2="207.3"/><line class="cls-2" x1="137.67" y1="152.7" x2="134.5" y2="207.3"/><line class="cls-2" x1="156.73" y1="152.7" x2="134.5" y2="207.3"/><line class="cls-2" x1="150.37" y1="152.7" x2="134.5" y2="207.3"/><line class="cls-2" x1="137.67" y1="152.7" x2="134.5" y2="207.3"/><line class="cls-2" x1="144.02" y1="152.7" x2="134.5" y2="207.3"/><line class="cls-2" x1="175.78" y1="152.7" x2="134.5" y2="207.3"/><line class="cls-2" x1="137.67" y1="152.7" x2="134.5" y2="207.3"/><line class="cls-2" x1="156.73" y1="152.7" x2="134.5" y2="207.3"/><line class="cls-2" x1="137.67" y1="152.7" x2="134.5" y2="207.3"/><line class="cls-2" x1="153.55" y1="152.7" x2="134.5" y2="207.3"/><line class="cls-2" x1="140.85" y1="152.7" x2="134.5" y2="207.3"/><line class="cls-2" x1="140.85" y1="152.7" x2="134.5" y2="207.3"/><line class="cls-2" x1="137.67" y1="152.7" x2="134.5" y2="207.3"/><line class="cls-2" x1="137.67" y1="152.7" x2="134.5" y2="207.3"/><line class="cls-2" x1="137.67" y1="152.7" x2="134.5" y2="207.3"/><line class="cls-2" x1="144.02" y1="152.7" x2="134.5" y2="207.3"/><line class="cls-2" x1="159.9" y1="152.7" x2="134.5" y2="207.3"/><line class="cls-2" x1="147.2" y1="152.7" x2="134.5" y2="207.3"/><line class="cls-2" x1="213.89" y1="152.7" x2="182.13" y2="207.3"/><line class="cls-2" x1="204.36" y1="152.7" x2="182.13" y2="207.3"/><line class="cls-2" x1="213.89" y1="152.7" x2="182.13" y2="207.3"/><line class="cls-2" x1="198.01" y1="152.7" x2="182.13" y2="207.3"/><line class="cls-2" x1="194.84" y1="152.7" x2="182.13" y2="207.3"/><line class="cls-2" x1="213.89" y1="152.7" x2="182.13" y2="207.3"/><line class="cls-2" x1="217.07" y1="152.7" x2="182.13" y2="207.3"/><line class="cls-2" x1="198.01" y1="152.7" x2="182.13" y2="207.3"/><line class="cls-2" x1="191.66" y1="152.7" x2="182.13" y2="207.3"/><line class="cls-2" x1="201.19" y1="152.7" x2="182.13" y2="207.3"/><line class="cls-2" x1="201.19" y1="152.7" x2="182.13" y2="207.3"/><line class="cls-2" x1="204.36" y1="152.7" x2="182.13" y2="207.3"/><line class="cls-2" x1="213.89" y1="152.7" x2="182.13" y2="207.3"/><line class="cls-2" x1="185.31" y1="152.7" x2="182.13" y2="207.3"/><line class="cls-2" x1="201.19" y1="152.7" x2="182.13" y2="207.3"/><line class="cls-2" x1="188.48" y1="152.7" x2="182.13" y2="207.3"/><line class="cls-2" x1="194.84" y1="152.7" x2="182.13" y2="207.3"/><line class="cls-2" x1="194.84" y1="152.7" x2="182.13" y2="207.3"/><line class="cls-2" x1="201.19" y1="152.7" x2="182.13" y2="207.3"/><line class="cls-2" x1="204.36" y1="152.7" x2="182.13" y2="207.3"/><line class="cls-2" x1="185.31" y1="152.7" x2="182.13" y2="207.3"/><line class="cls-2" x1="194.84" y1="152.7" x2="182.13" y2="207.3"/><line class="cls-2" x1="194.84" y1="152.7" x2="182.13" y2="207.3"/><line class="cls-2" x1="194.84" y1="152.7" x2="182.13" y2="207.3"/><line class="cls-2" x1="188.48" y1="152.7" x2="182.13" y2="207.3"/><line class="cls-2" x1="194.84" y1="152.7" x2="182.13" y2="207.3"/><line class="cls-2" x1="204.36" y1="152.7" x2="182.13" y2="207.3"/><line class="cls-2" x1="194.84" y1="152.7" x2="182.13" y2="207.3"/><line class="cls-2" x1="204.36" y1="152.7" x2="182.13" y2="207.3"/><line class="cls-2" x1="194.84" y1="152.7" x2="182.13" y2="207.3"/><line class="cls-2" x1="194.84" y1="152.7" x2="182.13" y2="207.3"/><line class="cls-2" x1="185.31" y1="152.7" x2="182.13" y2="207.3"/><line class="cls-2" x1="191.66" y1="152.7" x2="182.13" y2="207.3"/><line class="cls-2" x1="213.89" y1="152.7" x2="182.13" y2="207.3"/><line class="cls-2" x1="198.01" y1="152.7" x2="182.13" y2="207.3"/><line class="cls-2" x1="191.66" y1="152.7" x2="182.13" y2="207.3"/><line class="cls-2" x1="198.01" y1="152.7" x2="182.13" y2="207.3"/><line class="cls-2" x1="213.89" y1="152.7" x2="182.13" y2="207.3"/><line class="cls-2" x1="185.31" y1="152.7" x2="182.13" y2="207.3"/><line class="cls-2" x1="194.84" y1="152.7" x2="182.13" y2="207.3"/><line class="cls-2" x1="194.84" y1="152.7" x2="182.13" y2="207.3"/><line class="cls-2" x1="201.19" y1="152.7" x2="182.13" y2="207.3"/><line class="cls-2" x1="290.11" y1="152.7" x2="277.41" y2="207.3"/><line class="cls-2" x1="283.76" y1="152.7" x2="277.41" y2="207.3"/><line class="cls-2" x1="290.11" y1="152.7" x2="277.41" y2="207.3"/><line class="cls-2" x1="280.58" y1="152.7" x2="277.41" y2="207.3"/><line class="cls-2" x1="290.11" y1="152.7" x2="277.41" y2="207.3"/><line class="cls-2" x1="283.76" y1="152.7" x2="277.41" y2="207.3"/><line class="cls-2" x1="290.11" y1="152.7" x2="277.41" y2="207.3"/><line class="cls-2" x1="280.58" y1="152.7" x2="277.41" y2="207.3"/><line class="cls-2" x1="280.58" y1="152.7" x2="277.41" y2="207.3"/><line class="cls-2" x1="280.58" y1="152.7" x2="277.41" y2="207.3"/><line class="cls-2" x1="286.93" y1="152.7" x2="277.41" y2="207.3"/><line class="cls-2" x1="299.64" y1="152.7" x2="277.41" y2="207.3"/><line class="cls-2" x1="296.46" y1="152.7" x2="277.41" y2="207.3"/><line class="cls-2" x1="280.58" y1="152.7" x2="277.41" y2="207.3"/><line class="cls-2" x1="290.11" y1="152.7" x2="277.41" y2="207.3"/><line class="cls-2" x1="296.46" y1="152.7" x2="277.41" y2="207.3"/><line class="cls-2" x1="290.11" y1="152.7" x2="277.41" y2="207.3"/><line class="cls-2" x1="290.11" y1="152.7" x2="277.41" y2="207.3"/><line class="cls-2" x1="286.93" y1="152.7" x2="277.41" y2="207.3"/><line class="cls-2" x1="290.11" y1="152.7" x2="277.41" y2="207.3"/><line class="cls-2" x1="280.58" y1="152.7" x2="277.41" y2="207.3"/><line class="cls-2" x1="280.58" y1="152.7" x2="277.41" y2="207.3"/><line class="cls-2" x1="290.11" y1="152.7" x2="277.41" y2="207.3"/><line class="cls-2" x1="286.93" y1="152.7" x2="277.41" y2="207.3"/><line class="cls-2" x1="290.11" y1="152.7" x2="277.41" y2="207.3"/><line class="cls-2" x1="290.11" y1="152.7" x2="277.41" y2="207.3"/><line class="cls-2" x1="286.93" y1="152.7" x2="277.41" y2="207.3"/><line class="cls-2" x1="290.11" y1="152.7" x2="277.41" y2="207.3"/><line class="cls-2" x1="299.64" y1="152.7" x2="277.41" y2="207.3"/><line class="cls-2" x1="309.17" y1="152.7" x2="277.41" y2="207.3"/><line class="cls-2" x1="286.93" y1="152.7" x2="277.41" y2="207.3"/><line class="cls-2" x1="385.39" y1="152.7" x2="372.68" y2="207.3"/><line class="cls-2" x1="382.21" y1="152.7" x2="372.68" y2="207.3"/><line class="cls-2" x1="375.86" y1="152.7" x2="372.68" y2="207.3"/><line class="cls-2" x1="375.86" y1="152.7" x2="372.68" y2="207.3"/><line class="cls-2" x1="382.21" y1="152.7" x2="372.68" y2="207.3"/><line class="cls-2" x1="388.56" y1="152.7" x2="372.68" y2="207.3"/><line class="cls-2" x1="385.39" y1="152.7" x2="372.68" y2="207.3"/><line class="cls-2" x1="388.56" y1="152.7" x2="372.68" y2="207.3"/><line class="cls-2" x1="385.39" y1="152.7" x2="372.68" y2="207.3"/><line class="cls-2" x1="388.56" y1="152.7" x2="372.68" y2="207.3"/><line class="cls-2" x1="375.86" y1="152.7" x2="372.68" y2="207.3"/><line class="cls-2" x1="391.74" y1="152.7" x2="372.68" y2="207.3"/><line class="cls-2" x1="375.86" y1="152.7" x2="372.68" y2="207.3"/><line class="cls-2" x1="385.39" y1="152.7" x2="372.68" y2="207.3"/><line class="cls-2" x1="388.56" y1="152.7" x2="372.68" y2="207.3"/><line class="cls-2" x1="394.91" y1="152.7" x2="372.68" y2="207.3"/><line class="cls-2" x1="385.39" y1="152.7" x2="372.68" y2="207.3"/><line class="cls-2" x1="382.21" y1="152.7" x2="372.68" y2="207.3"/><line class="cls-2" x1="382.21" y1="152.7" x2="372.68" y2="207.3"/><line class="cls-2" x1="401.26" y1="152.7" x2="372.68" y2="207.3"/><line class="cls-2" x1="394.91" y1="152.7" x2="372.68" y2="207.3"/><line class="cls-2" x1="375.86" y1="152.7" x2="372.68" y2="207.3"/><line class="cls-2" x1="385.39" y1="152.7" x2="372.68" y2="207.3"/><line class="cls-2" x1="375.86" y1="152.7" x2="372.68" y2="207.3"/><line class="cls-2" x1="375.86" y1="152.7" x2="372.68" y2="207.3"/><line class="cls-2" x1="375.86" y1="152.7" x2="372.68" y2="207.3"/><line class="cls-2" x1="385.39" y1="152.7" x2="372.68" y2="207.3"/><line class="cls-2" x1="394.91" y1="152.7" x2="372.68" y2="207.3"/><line class="cls-2" x1="394.91" y1="152.7" x2="372.68" y2="207.3"/><line class="cls-2" x1="375.86" y1="152.7" x2="372.68" y2="207.3"/><line class="cls-2" x1="394.91" y1="152.7" x2="372.68" y2="207.3"/><line class="cls-2" x1="385.39" y1="152.7" x2="372.68" y2="207.3"/><line class="cls-2" x1="388.56" y1="152.7" x2="372.68" y2="207.3"/><line class="cls-2" x1="401.26" y1="152.7" x2="372.68" y2="207.3"/><line class="cls-2" x1="401.26" y1="152.7" x2="372.68" y2="207.3"/><line class="cls-2" x1="394.91" y1="152.7" x2="372.68" y2="207.3"/><line class="cls-2" x1="394.91" y1="152.7" x2="372.68" y2="207.3"/><line class="cls-2" x1="413.97" y1="152.7" x2="372.68" y2="207.3"/><line class="cls-2" x1="410.79" y1="152.7" x2="372.68" y2="207.3"/><line class="cls-2" x1="379.03" y1="152.7" x2="372.68" y2="207.3"/><line class="cls-2" x1="394.91" y1="152.7" x2="372.68" y2="207.3"/><line class="cls-2" x1="388.56" y1="152.7" x2="372.68" y2="207.3"/></svg>