<?xml version="1.0" encoding="UTF-8"?><svg id="Layer_1" xmlns="http://www.w3.org/2000/svg" viewBox="0 0 504 360"><defs><style>.cls-1{stroke-linecap:round;stroke-width:.5px;}.cls-1,.cls-2{fill:none;stroke:#43ad49;stroke-miterlimit:10;}.cls-2{opacity:.1;stroke-width:10px;}</style></defs><line class="cls-2" x1="47.48" y1="180" x2="41.19" y2="180"/><line class="cls-2" x1="44.34" y1="180" x2="41.19" y2="180"/><line class="cls-2" x1="50.63" y1="180" x2="41.19" y2="180"/><line class="cls-2" x1="44.34" y1="180" x2="41.19" y2="180"/><line class="cls-2" x1="44.34" y1="180" x2="41.19" y2="180"/><line class="cls-2" x1="60.07" y1="180" x2="41.19" y2="180"/><line class="cls-2" x1="53.78" y1="180" x2="41.19" y2="180"/><line class="cls-2" x1="44.34" y1="180" x2="41.19" y2="180"/><line class="cls-2" x1="50.63" y1="180" x2="41.19" y2="180"/><line class="cls-2" x1="44.34" y1="180" x2="41.19" y2="180"/><line class="cls-2" x1="44.34" y1="180" x2="41.19" y2="180"/><line class="cls-2" x1="44.34" y1="180" x2="41.19" y2="180"/><line class="cls-2" x1="44.34" y1="180" x2="41.19" y2="180"/><line class="cls-2" x1="44.34" y1="180" x2="41.19" y2="180"/><line class="cls-2" x1="44.34" y1="180" x2="41.19" y2="180"/><line class="cls-2" x1="258.29" y1="180" x2="229.98" y2="180"/><line class="cls-2" x1="233.12" y1="180" x2="229.98" y2="180"/><line class="cls-2" x1="233.12" y1="180" x2="229.98" y2="180"/><line class="cls-2" x1="242.56" y1="180" x2="229.98" y2="180"/><line class="cls-2" x1="261.44" y1="180" x2="229.98" y2="180"/><line class="cls-2" x1="242.56" y1="180" x2="229.98" y2="180"/><line class="cls-2" x1="233.12" y1="180" x2="229.98" y2="180"/><line class="cls-2" x1="242.56" y1="180" x2="229.98" y2="180"/><line class="cls-2" x1="236.27" y1="180" x2="229.98" y2="180"/><line class="cls-2" x1="255.15" y1="180" x2="229.98" y2="180"/><line class="cls-2" x1="252" y1="180" x2="229.98" y2="180"/><line class="cls-2" x1="233.12" y1="180" x2="229.98" y2="180"/><line class="cls-2" x1="233.12" y1="180" x2="229.98" y2="180"/><line class="cls-2" x1="239.41" y1="180" x2="229.98" y2="180"/><line class="cls-2" x1="252" y1="180" x2="229.98" y2="180"/><line class="cls-2" x1="255.15" y1="180" x2="229.98" y2="180"/><line class="cls-2" x1="255.15" y1="180" x2="229.98" y2="180"/><line class="cls-2" x1="261.44" y1="180" x2="229.98" y2="180"/><line class="cls-2" x1="245.71" y1="180" x2="229.98" y2="180"/><line class="cls-2" x1="245.71" y1="180" x2="229.98" y2="180"/><line class="cls-2" x1="236.27" y1="180" x2="229.98" y2="180"/><line class="cls-2" x1="233.12" y1="180" x2="229.98" y2="180"/><line class="cls-2" x1="242.56" y1="180" x2="229.98" y2="180"/><line class="cls-2" x1="258.29" y1="180" x2="229.98" y2="180"/><line class="cls-2" x1="233.12" y1="180" x2="229.98" y2="180"/><line class="cls-2" x1="274.02" y1="180" x2="229.98" y2="180"/><line class="cls-2" x1="283.47" y1="180" x2="229.98" y2="180"/><line class="cls-2" x1="252" y1="180" x2="229.98" y2="180"/><line class="cls-2" x1="239.41" y1="180" x2="229.98" y2="180"/><line class="cls-2" x1="261.44" y1="180" x2="229.98" y2="180"/><line class="cls-2" x1="327.52" y1="180" x2="324.37" y2="180"/><line class="cls-2" x1="336.95" y1="180" x2="324.37" y2="180"/><line class="cls-2" x1="333.81" y1="180" x2="324.37" y2="180"/><line class="cls-2" x1="343.25" y1="180" x2="324.37" y2="180"/><line class="cls-2" x1="327.52" y1="180" x2="324.37" y2="180"/><line class="cls-2" x1="330.66" y1="180" x2="324.37" y2="180"/><line class="cls-2" x1="327.52" y1="180" x2="324.37" y2="180"/><line class="cls-2" x1="336.95" y1="180" x2="324.37" y2="180"/><line class="cls-2" x1="327.52" y1="180" x2="324.37" y2="180"/><line class="cls-2" x1="336.95" y1="180" x2="324.37" y2="180"/><line class="cls-2" x1="327.52" y1="180" x2="324.37" y2="180"/><line class="cls-2" x1="327.52" y1="180" x2="324.37" y2="180"/><line class="cls-2" x1="336.95" y1="180" x2="324.37" y2="180"/><line class="cls-2" x1="355.83" y1="180" x2="324.37" y2="180"/><line class="cls-2" x1="333.81" y1="180" x2="324.37" y2="180"/><line class="cls-2" x1="327.52" y1="180" x2="324.37" y2="180"/><line class="cls-2" x1="330.66" y1="180" x2="324.37" y2="180"/><line class="cls-2" x1="327.52" y1="180" x2="324.37" y2="180"/><line class="cls-2" x1="330.66" y1="180" x2="324.37" y2="180"/><line class="cls-2" x1="327.52" y1="180" x2="324.37" y2="180"/><line class="cls-2" x1="390.44" y1="180" x2="324.37" y2="180"/><line class="cls-2" x1="330.66" y1="180" x2="324.37" y2="180"/><line class="cls-2" x1="343.25" y1="180" x2="324.37" y2="180"/><line class="cls-2" x1="462.81" y1="180" x2="418.76" y2="180"/><line class="cls-2" x1="421.91" y1="180" x2="418.76" y2="180"/><line class="cls-2" x1="431.34" y1="180" x2="418.76" y2="180"/><line class="cls-2" x1="421.91" y1="180" x2="418.76" y2="180"/><line class="cls-2" x1="425.05" y1="180" x2="418.76" y2="180"/><line class="cls-2" x1="428.2" y1="180" x2="418.76" y2="180"/><line class="cls-2" x1="421.91" y1="180" x2="418.76" y2="180"/><line class="cls-2" x1="421.91" y1="180" x2="418.76" y2="180"/><line class="cls-2" x1="431.34" y1="180" x2="418.76" y2="180"/><line class="cls-2" x1="431.34" y1="180" x2="418.76" y2="180"/><line class="cls-2" x1="421.91" y1="180" x2="418.76" y2="180"/><line class="cls-2" x1="431.34" y1="180" x2="418.76" y2="180"/><line class="cls-2" x1="421.91" y1="180" x2="418.76" y2="180"/><line class="cls-2" x1="421.91" y1="180" x2="418.76" y2="180"/><line class="cls-2" x1="447.08" y1="180" x2="418.76" y2="180"/><line class="cls-2" x1="421.91" y1="180" x2="418.76" y2="180"/><line class="cls-2" x1="421.91" y1="180" x2="418.76" y2="180"/><line class="cls-2" x1="421.91" y1="180" x2="418.76" y2="180"/><line class="cls-2" x1="440.79" y1="180" x2="418.76" y2="180"/><line class="cls-2" x1="434.49" y1="180" x2="418.76" y2="180"/><line class="cls-2" x1="421.91" y1="180" x2="418.76" y2="180"/><line class="cls-2" x1="431.34" y1="180" x2="418.76" y2="180"/><line class="cls-2" x1="425.05" y1="180" x2="418.76" y2="180"/><line class="cls-2" x1="97.83" y1="180" x2="88.39" y2="180"/><line class="cls-2" x1="97.83" y1="180" x2="88.39" y2="180"/><line class="cls-2" x1="110.41" y1="180" x2="88.39" y2="180"/><line class="cls-2" x1="110.41" y1="180" x2="88.39" y2="180"/><line class="cls-2" x1="100.97" y1="180" x2="88.39" y2="180"/><line class="cls-2" x1="100.97" y1="180" x2="88.39" y2="180"/><line class="cls-2" x1="100.97" y1="180" x2="88.39" y2="180"/><line class="cls-2" x1="97.83" y1="180" x2="88.39" y2="180"/><line class="cls-2" x1="91.53" y1="180" x2="88.39" y2="180"/><line class="cls-2" x1="94.68" y1="180" x2="88.39" y2="180"/><line class="cls-2" x1="94.68" y1="180" x2="88.39" y2="180"/><line class="cls-2" x1="100.97" y1="180" x2="88.39" y2="180"/><line class="cls-2" x1="97.83" y1="180" x2="88.39" y2="180"/><line class="cls-2" x1="104.12" y1="180" x2="88.39" y2="180"/><line class="cls-2" x1="94.68" y1="180" x2="88.39" y2="180"/><line class="cls-2" x1="100.97" y1="180" x2="88.39" y2="180"/><line class="cls-2" x1="91.53" y1="180" x2="88.39" y2="180"/><line class="cls-2" x1="100.97" y1="180" x2="88.39" y2="180"/><line class="cls-2" x1="94.68" y1="180" x2="88.39" y2="180"/><line class="cls-2" x1="100.97" y1="180" x2="88.39" y2="180"/><line class="cls-2" x1="100.97" y1="180" x2="88.39" y2="180"/><line class="cls-2" x1="104.12" y1="180" x2="88.39" y2="180"/><line class="cls-2" x1="100.97" y1="180" x2="88.39" y2="180"/><line class="cls-2" x1="94.68" y1="180" x2="88.39" y2="180"/><line class="cls-2" x1="91.53" y1="180" x2="88.39" y2="180"/><line class="cls-2" x1="94.68" y1="180" x2="88.39" y2="180"/><line class="cls-2" x1="107.27" y1="180" x2="88.39" y2="180"/><line class="cls-2" x1="91.53" y1="180" x2="88.39" y2="180"/><line class="cls-2" x1="138.73" y1="180" x2="135.59" y2="180"/><line class="cls-2" x1="167.05" y1="180" x2="135.59" y2="180"/><line class="cls-2" x1="138.73" y1="180" x2="135.59" y2="180"/><line class="cls-2" x1="138.73" y1="180" x2="135.59" y2="180"/><line class="cls-2" x1="141.88" y1="180" x2="135.59" y2="180"/><line class="cls-2" x1="138.73" y1="180" x2="135.59" y2="180"/><line class="cls-2" x1="138.73" y1="180" x2="135.59" y2="180"/><line class="cls-2" x1="138.73" y1="180" x2="135.59" y2="180"/><line class="cls-2" x1="157.61" y1="180" x2="135.59" y2="180"/><line class="cls-2" x1="151.32" y1="180" x2="135.59" y2="180"/><line class="cls-2" x1="138.73" y1="180" x2="135.59" y2="180"/><line class="cls-2" x1="145.02" y1="180" x2="135.59" y2="180"/><line class="cls-2" x1="176.48" y1="180" x2="135.59" y2="180"/><line class="cls-2" x1="138.73" y1="180" x2="135.59" y2="180"/><line class="cls-2" x1="157.61" y1="180" x2="135.59" y2="180"/><line class="cls-2" x1="138.73" y1="180" x2="135.59" y2="180"/><line class="cls-2" x1="154.46" y1="180" x2="135.59" y2="180"/><line class="cls-2" x1="141.88" y1="180" x2="135.59" y2="180"/><line class="cls-2" x1="141.88" y1="180" x2="135.59" y2="180"/><line class="cls-2" x1="138.73" y1="180" x2="135.59" y2="180"/><line class="cls-2" x1="138.73" y1="180" x2="135.59" y2="180"/><line class="cls-2" x1="138.73" y1="180" x2="135.59" y2="180"/><line class="cls-2" x1="145.02" y1="180" x2="135.59" y2="180"/><line class="cls-2" x1="160.75" y1="180" x2="135.59" y2="180"/><line class="cls-2" x1="148.17" y1="180" x2="135.59" y2="180"/><line class="cls-2" x1="214.24" y1="180" x2="182.78" y2="180"/><line class="cls-2" x1="204.8" y1="180" x2="182.78" y2="180"/><line class="cls-2" x1="214.24" y1="180" x2="182.78" y2="180"/><line class="cls-2" x1="198.51" y1="180" x2="182.78" y2="180"/><line class="cls-2" x1="195.36" y1="180" x2="182.78" y2="180"/><line class="cls-2" x1="214.24" y1="180" x2="182.78" y2="180"/><line class="cls-2" x1="217.39" y1="180" x2="182.78" y2="180"/><line class="cls-2" x1="198.51" y1="180" x2="182.78" y2="180"/><line class="cls-2" x1="192.22" y1="180" x2="182.78" y2="180"/><line class="cls-2" x1="201.66" y1="180" x2="182.78" y2="180"/><line class="cls-2" x1="201.66" y1="180" x2="182.78" y2="180"/><line class="cls-2" x1="204.8" y1="180" x2="182.78" y2="180"/><line class="cls-2" x1="214.24" y1="180" x2="182.78" y2="180"/><line class="cls-2" x1="185.93" y1="180" x2="182.78" y2="180"/><line class="cls-2" x1="201.66" y1="180" x2="182.78" y2="180"/><line class="cls-2" x1="189.07" y1="180" x2="182.78" y2="180"/><line class="cls-2" x1="195.36" y1="180" x2="182.78" y2="180"/><line class="cls-2" x1="195.36" y1="180" x2="182.78" y2="180"/><line class="cls-2" x1="201.66" y1="180" x2="182.78" y2="180"/><line class="cls-2" x1="204.8" y1="180" x2="182.78" y2="180"/><line class="cls-2" x1="185.93" y1="180" x2="182.78" y2="180"/><line class="cls-2" x1="195.36" y1="180" x2="182.78" y2="180"/><line class="cls-2" x1="195.36" y1="180" x2="182.78" y2="180"/><line class="cls-2" x1="195.36" y1="180" x2="182.78" y2="180"/><line class="cls-2" x1="189.07" y1="180" x2="182.78" y2="180"/><line class="cls-2" x1="195.36" y1="180" x2="182.78" y2="180"/><line class="cls-2" x1="204.8" y1="180" x2="182.78" y2="180"/><line class="cls-2" x1="195.36" y1="180" x2="182.78" y2="180"/><line class="cls-2" x1="204.8" y1="180" x2="182.78" y2="180"/><line class="cls-2" x1="195.36" y1="180" x2="182.78" y2="180"/><line class="cls-2" x1="195.36" y1="180" x2="182.78" y2="180"/><line class="cls-2" x1="185.93" y1="180" x2="182.78" y2="180"/><line class="cls-2" x1="192.22" y1="180" x2="182.78" y2="180"/><line class="cls-2" x1="214.24" y1="180" x2="182.78" y2="180"/><line class="cls-2" x1="198.51" y1="180" x2="182.78" y2="180"/><line class="cls-2" x1="192.22" y1="180" x2="182.78" y2="180"/><line class="cls-2" x1="198.51" y1="180" x2="182.78" y2="180"/><line class="cls-2" x1="214.24" y1="180" x2="182.78" y2="180"/><line class="cls-2" x1="185.93" y1="180" x2="182.78" y2="180"/><line class="cls-2" x1="195.36" y1="180" x2="182.78" y2="180"/><line class="cls-2" x1="195.36" y1="180" x2="182.78" y2="180"/><line class="cls-2" x1="201.66" y1="180" x2="182.78" y2="180"/><line class="cls-2" x1="289.76" y1="180" x2="277.17" y2="180"/><line class="cls-2" x1="283.47" y1="180" x2="277.17" y2="180"/><line class="cls-2" x1="289.76" y1="180" x2="277.17" y2="180"/><line class="cls-2" x1="280.32" y1="180" x2="277.17" y2="180"/><line class="cls-2" x1="289.76" y1="180" x2="277.17" y2="180"/><line class="cls-2" x1="283.47" y1="180" x2="277.17" y2="180"/><line class="cls-2" x1="289.76" y1="180" x2="277.17" y2="180"/><line class="cls-2" x1="280.32" y1="180" x2="277.17" y2="180"/><line class="cls-2" x1="280.32" y1="180" x2="277.17" y2="180"/><line class="cls-2" x1="280.32" y1="180" x2="277.17" y2="180"/><line class="cls-2" x1="286.61" y1="180" x2="277.17" y2="180"/><line class="cls-2" x1="299.2" y1="180" x2="277.17" y2="180"/><line class="cls-2" x1="296.05" y1="180" x2="277.17" y2="180"/><line class="cls-2" x1="280.32" y1="180" x2="277.17" y2="180"/><line class="cls-2" x1="289.76" y1="180" x2="277.17" y2="180"/><line class="cls-2" x1="296.05" y1="180" x2="277.17" y2="180"/><line class="cls-2" x1="289.76" y1="180" x2="277.17" y2="180"/><line class="cls-2" x1="289.76" y1="180" x2="277.17" y2="180"/><line class="cls-2" x1="286.61" y1="180" x2="277.17" y2="180"/><line class="cls-2" x1="289.76" y1="180" x2="277.17" y2="180"/><line class="cls-2" x1="280.32" y1="180" x2="277.17" y2="180"/><line class="cls-2" x1="280.32" y1="180" x2="277.17" y2="180"/><line class="cls-2" x1="289.76" y1="180" x2="277.17" y2="180"/><line class="cls-2" x1="286.61" y1="180" x2="277.17" y2="180"/><line class="cls-2" x1="289.76" y1="180" x2="277.17" y2="180"/><line class="cls-2" x1="289.76" y1="180" x2="277.17" y2="180"/><line class="cls-2" x1="286.61" y1="180" x2="277.17" y2="180"/><line class="cls-2" x1="289.76" y1="180" x2="277.17" y2="180"/><line class="cls-2" x1="299.2" y1="180" x2="277.17" y2="180"/><line class="cls-2" x1="308.64" y1="180" x2="277.17" y2="180"/><line class="cls-2" x1="286.61" y1="180" x2="277.17" y2="180"/><line class="cls-2" x1="384.15" y1="180" x2="371.56" y2="180"/><line class="cls-2" x1="381" y1="180" x2="371.56" y2="180"/><line class="cls-2" x1="374.71" y1="180" x2="371.56" y2="180"/><line class="cls-2" x1="374.71" y1="180" x2="371.56" y2="180"/><line class="cls-2" x1="381" y1="180" x2="371.56" y2="180"/><line class="cls-2" x1="387.29" y1="180" x2="371.56" y2="180"/><line class="cls-2" x1="384.15" y1="180" x2="371.56" y2="180"/><line class="cls-2" x1="387.29" y1="180" x2="371.56" y2="180"/><line class="cls-2" x1="384.15" y1="180" x2="371.56" y2="180"/><line class="cls-2" x1="387.29" y1="180" x2="371.56" y2="180"/><line class="cls-2" x1="374.71" y1="180" x2="371.56" y2="180"/><line class="cls-2" x1="390.44" y1="180" x2="371.56" y2="180"/><line class="cls-2" x1="374.71" y1="180" x2="371.56" y2="180"/><line class="cls-2" x1="384.15" y1="180" x2="371.56" y2="180"/><line class="cls-2" x1="387.29" y1="180" x2="371.56" y2="180"/><line class="cls-2" x1="393.59" y1="180" x2="371.56" y2="180"/><line class="cls-2" x1="384.15" y1="180" x2="371.56" y2="180"/><line class="cls-2" x1="381" y1="180" x2="371.56" y2="180"/><line class="cls-2" x1="381" y1="180" x2="371.56" y2="180"/><line class="cls-2" x1="399.88" y1="180" x2="371.56" y2="180"/><line class="cls-2" x1="393.59" y1="180" x2="371.56" y2="180"/><line class="cls-2" x1="374.71" y1="180" x2="371.56" y2="180"/><line class="cls-2" x1="384.15" y1="180" x2="371.56" y2="180"/><line class="cls-2" x1="374.71" y1="180" x2="371.56" y2="180"/><line class="cls-2" x1="374.71" y1="180" x2="371.56" y2="180"/><line class="cls-2" x1="374.71" y1="180" x2="371.56" y2="180"/><line class="cls-2" x1="384.15" y1="180" x2="371.56" y2="180"/><line class="cls-2" x1="393.59" y1="180" x2="371.56" y2="180"/><line class="cls-2" x1="393.59" y1="180" x2="371.56" y2="180"/><line class="cls-2" x1="374.71" y1="180" x2="371.56" y2="180"/><line class="cls-2" x1="393.59" y1="180" x2="371.56" y2="180"/><line class="cls-2" x1="384.15" y1="180" x2="371.56" y2="180"/><line class="cls-2" x1="387.29" y1="180" x2="371.56" y2="180"/><line class="cls-2" x1="399.88" y1="180" x2="371.56" y2="180"/><line class="cls-2" x1="399.88" y1="180" x2="371.56" y2="180"/><line class="cls-2" x1="393.59" y1="180" x2="371.56" y2="180"/><line class="cls-2" x1="393.59" y1="180" x2="371.56" y2="180"/><line class="cls-2" x1="412.47" y1="180" x2="371.56" y2="180"/><line class="cls-2" x1="409.32" y1="180" x2="371.56" y2="180"/><line class="cls-2" x1="377.86" y1="180" x2="371.56" y2="180"/><line class="cls-2" x1="393.59" y1="180" x2="371.56" y2="180"/><line class="cls-2" x1="387.29" y1="180" x2="371.56" y2="180"/><g><line class="cls-1" x1="229.98" y1="136.72" x2="229.98" y2="223.28"/><line class="cls-1" x1="418.76" y1="136.72" x2="418.76" y2="223.28"/><line class="cls-1" x1="41.19" y1="136.72" x2="41.19" y2="223.28"/><line class="cls-1" x1="88.39" y1="136.72" x2="88.39" y2="223.28"/><line class="cls-1" x1="135.59" y1="136.72" x2="135.59" y2="223.28"/><line class="cls-1" x1="182.78" y1="136.72" x2="182.78" y2="223.28"/><line class="cls-1" x1="277.17" y1="136.72" x2="277.17" y2="223.28"/><line class="cls-1" x1="324.37" y1="136.72" x2="324.37" y2="223.28"/><line class="cls-1" x1="371.56" y1="136.72" x2="371.56" y2="223.28"/></g></svg>