<?xml version="1.0" encoding="UTF-8"?><svg id="Layer_1" xmlns="http://www.w3.org/2000/svg" viewBox="0 0 360 1693.86"><defs><style>.cls-1{stroke:#939598;stroke-linecap:round;stroke-miterlimit:10;stroke-width:.5px;}.cls-1,.cls-2,.cls-3,.cls-4,.cls-5{fill:none;}.cls-2,.cls-3{stroke-width:.75px;}.cls-2,.cls-3,.cls-4,.cls-5{stroke-linejoin:round;}.cls-2,.cls-5{stroke:#43ad49;}.cls-3,.cls-4{stroke:#0051aa;}.cls-6{fill:#939598;font-family:Helvetica, Helvetica;font-size:6px;}.cls-4,.cls-5{stroke-width:2px;}</style></defs><text class="cls-6" transform="translate(94.64 278.29)"><tspan x="0" y="0">This is the bus I usually take</tspan></text><g><g><line class="cls-1" x1="0" y1="298.33" x2="360" y2="298.33"/><line class="cls-1" x1="0" y1="1149.14" x2="360" y2="1149.14"/><line class="cls-1" x1="0" y1="674.8" x2="360" y2="674.8"/><line class="cls-1" y1="1623.46" x2="360" y2="1623.46"/></g><g><text class="cls-6" transform="translate(174.17 295.33)"><tspan x="0" y="0">8am</tspan></text><text class="cls-6" transform="translate(172.5 671.8)"><tspan x="0" y="0">12pm</tspan></text><text class="cls-6" transform="translate(174.17 1146.14)"><tspan x="0" y="0">5pm</tspan></text><text class="cls-6" transform="translate(172.5 1620.46)"><tspan x="0" y="0">10pm</tspan></text></g></g><line class="cls-5" x1="170" y1="711.04" x2="170" y2="707.88"/><line class="cls-5" x1="170" y1="1632.94" x2="170" y2="1631.36"/><line class="cls-5" x1="170" y1="712.62" x2="170" y2="707.88"/><line class="cls-5" x1="170" y1="709.46" x2="170" y2="707.88"/><line class="cls-5" x1="170" y1="712.62" x2="170" y2="707.88"/><line class="cls-5" x1="170" y1="712.62" x2="170" y2="707.88"/><line class="cls-5" x1="170" y1="711.04" x2="170" y2="707.88"/><g><line class="cls-5" x1="170" y1="1511.18" x2="170" y2="1489.04"/><line class="cls-5" x1="155.61" y1="1490.63" x2="155.61" y2="1489.04"/><line class="cls-5" x1="167.12" y1="1501.69" x2="167.12" y2="1489.04"/><line class="cls-5" x1="158.49" y1="1492.21" x2="158.49" y2="1489.04"/><line class="cls-5" x1="164.24" y1="1495.37" x2="164.24" y2="1489.04"/><line class="cls-5" x1="161.37" y1="1492.21" x2="161.37" y2="1489.04"/></g><line class="cls-5" x1="170" y1="711.04" x2="170" y2="707.88"/><line class="cls-5" x1="170" y1="709.46" x2="170" y2="707.88"/><line class="cls-5" x1="170" y1="521.28" x2="170" y2="518.12"/><line class="cls-5" x1="170" y1="712.62" x2="170" y2="707.88"/><line class="cls-5" x1="170" y1="711.04" x2="170" y2="707.88"/><g><line class="cls-5" x1="167.12" y1="807.5" x2="167.12" y2="802.76"/><line class="cls-5" x1="164.24" y1="805.92" x2="164.24" y2="802.76"/><line class="cls-5" x1="161.37" y1="805.92" x2="161.37" y2="802.76"/><line class="cls-5" x1="170" y1="809.08" x2="170" y2="802.76"/></g><g><line class="cls-5" x1="152.73" y1="733.18" x2="152.73" y2="731.6"/><line class="cls-5" x1="167.12" y1="736.34" x2="167.12" y2="731.6"/><line class="cls-5" x1="161.37" y1="734.76" x2="161.37" y2="731.6"/><line class="cls-5" x1="170" y1="736.34" x2="170" y2="731.6"/><line class="cls-5" x1="164.24" y1="734.76" x2="164.24" y2="731.6"/><line class="cls-5" x1="155.61" y1="733.18" x2="155.61" y2="731.6"/><line class="cls-5" x1="158.49" y1="733.18" x2="158.49" y2="731.6"/><line class="cls-5" x1="149.85" y1="733.18" x2="149.85" y2="731.6"/></g><g><line class="cls-5" x1="161.37" y1="260.37" x2="161.37" y2="257.21"/><line class="cls-5" x1="164.24" y1="261.95" x2="164.24" y2="257.21"/><line class="cls-5" x1="167.12" y1="261.95" x2="167.12" y2="257.21"/><line class="cls-5" x1="170" y1="268.28" x2="170" y2="257.21"/></g><g><line class="cls-5" x1="170" y1="883.4" x2="170" y2="875.5"/><line class="cls-5" x1="164.24" y1="881.82" x2="164.24" y2="875.5"/><line class="cls-5" x1="167.12" y1="881.82" x2="167.12" y2="875.5"/><line class="cls-5" x1="161.37" y1="878.66" x2="161.37" y2="875.5"/><line class="cls-5" x1="152.73" y1="877.08" x2="152.73" y2="875.5"/><line class="cls-5" x1="155.61" y1="877.08" x2="155.61" y2="875.5"/><line class="cls-5" x1="158.49" y1="877.08" x2="158.49" y2="875.5"/><line class="cls-5" x1="149.85" y1="877.08" x2="149.85" y2="875.5"/></g><g><line class="cls-5" x1="158.49" y1="307.81" x2="158.49" y2="304.65"/><line class="cls-5" x1="161.37" y1="307.81" x2="161.37" y2="304.65"/><line class="cls-5" x1="164.24" y1="307.81" x2="164.24" y2="304.65"/><line class="cls-5" x1="167.12" y1="307.81" x2="167.12" y2="304.65"/><line class="cls-5" x1="170" y1="309.39" x2="170" y2="304.65"/><line class="cls-5" x1="155.61" y1="307.81" x2="155.61" y2="304.65"/></g><line class="cls-5" x1="170" y1="472.27" x2="170" y2="470.68"/><g><line class="cls-5" x1="158.49" y1="829.64" x2="158.49" y2="826.48"/><line class="cls-5" x1="167.12" y1="832.8" x2="167.12" y2="826.48"/><line class="cls-5" x1="144.09" y1="828.06" x2="144.09" y2="826.48"/><line class="cls-5" x1="146.97" y1="828.06" x2="146.97" y2="826.48"/><line class="cls-5" x1="164.24" y1="831.22" x2="164.24" y2="826.48"/><line class="cls-5" x1="149.85" y1="828.06" x2="149.85" y2="826.48"/><line class="cls-5" x1="152.73" y1="828.06" x2="152.73" y2="826.48"/><line class="cls-5" x1="170" y1="832.8" x2="170" y2="826.48"/><line class="cls-5" x1="161.37" y1="829.64" x2="161.37" y2="826.48"/><line class="cls-5" x1="155.61" y1="828.06" x2="155.61" y2="826.48"/><line class="cls-5" x1="141.21" y1="828.06" x2="141.21" y2="826.48"/></g><g><line class="cls-5" x1="164.24" y1="124.38" x2="164.24" y2="116.47"/><line class="cls-5" x1="144.08" y1="118.05" x2="144.08" y2="116.47"/><line class="cls-5" x1="146.96" y1="118.05" x2="146.96" y2="116.47"/><line class="cls-5" x1="167.12" y1="125.96" x2="167.12" y2="116.47"/><line class="cls-5" x1="158.48" y1="119.63" x2="158.48" y2="116.47"/><line class="cls-5" x1="149.84" y1="118.05" x2="149.84" y2="116.47"/><line class="cls-5" x1="170" y1="125.96" x2="170" y2="116.47"/><line class="cls-5" x1="152.72" y1="118.05" x2="152.72" y2="116.47"/><line class="cls-5" x1="161.36" y1="119.63" x2="161.36" y2="116.47"/><line class="cls-5" x1="155.6" y1="118.05" x2="155.6" y2="116.47"/><line class="cls-5" x1="141.2" y1="118.05" x2="141.2" y2="116.47"/></g><g><line class="cls-5" x1="158.49" y1="926.1" x2="158.49" y2="922.94"/><line class="cls-5" x1="132.57" y1="924.52" x2="132.57" y2="922.94"/><line class="cls-5" x1="161.37" y1="927.68" x2="161.37" y2="922.94"/><line class="cls-5" x1="135.45" y1="924.52" x2="135.45" y2="922.94"/><line class="cls-5" x1="138.33" y1="924.52" x2="138.33" y2="922.94"/><line class="cls-5" x1="170" y1="932.42" x2="170" y2="922.94"/><line class="cls-5" x1="167.12" y1="929.26" x2="167.12" y2="922.94"/><line class="cls-5" x1="141.21" y1="924.52" x2="141.21" y2="922.94"/><line class="cls-5" x1="164.24" y1="927.68" x2="164.24" y2="922.94"/><line class="cls-5" x1="144.09" y1="924.52" x2="144.09" y2="922.94"/><line class="cls-5" x1="146.97" y1="924.52" x2="146.97" y2="922.94"/><line class="cls-5" x1="149.85" y1="924.52" x2="149.85" y2="922.94"/><line class="cls-5" x1="152.73" y1="924.52" x2="152.73" y2="922.94"/><line class="cls-5" x1="155.61" y1="924.52" x2="155.61" y2="922.94"/><line class="cls-5" x1="129.69" y1="924.52" x2="129.69" y2="922.94"/></g><g><line class="cls-5" x1="152.73" y1="1032.05" x2="152.73" y2="1017.81"/><line class="cls-5" x1="89.37" y1="1019.39" x2="89.37" y2="1017.81"/><line class="cls-5" x1="92.25" y1="1019.39" x2="92.25" y2="1017.81"/><line class="cls-5" x1="118.17" y1="1024.14" x2="118.17" y2="1017.81"/><line class="cls-5" x1="158.49" y1="1033.63" x2="158.49" y2="1017.81"/><line class="cls-5" x1="121.05" y1="1024.14" x2="121.05" y2="1017.81"/><line class="cls-5" x1="95.13" y1="1019.39" x2="95.13" y2="1017.81"/><line class="cls-5" x1="123.93" y1="1024.14" x2="123.93" y2="1017.81"/><line class="cls-5" x1="106.65" y1="1020.98" x2="106.65" y2="1017.81"/><line class="cls-5" x1="144.09" y1="1030.47" x2="144.09" y2="1017.81"/><line class="cls-5" x1="135.45" y1="1028.88" x2="135.45" y2="1017.81"/><line class="cls-5" x1="98.01" y1="1019.39" x2="98.01" y2="1017.81"/><line class="cls-5" x1="100.89" y1="1019.39" x2="100.89" y2="1017.81"/><line class="cls-5" x1="112.41" y1="1022.56" x2="112.41" y2="1017.81"/><line class="cls-5" x1="138.33" y1="1028.88" x2="138.33" y2="1017.81"/><line class="cls-5" x1="146.97" y1="1030.47" x2="146.97" y2="1017.81"/><line class="cls-5" x1="149.85" y1="1030.47" x2="149.85" y2="1017.81"/><line class="cls-5" x1="161.37" y1="1033.63" x2="161.37" y2="1017.81"/><line class="cls-5" x1="129.69" y1="1025.72" x2="129.69" y2="1017.81"/><line class="cls-5" x1="132.57" y1="1025.72" x2="132.57" y2="1017.81"/><line class="cls-5" x1="109.53" y1="1020.98" x2="109.53" y2="1017.81"/><line class="cls-5" x1="103.77" y1="1019.39" x2="103.77" y2="1017.81"/><line class="cls-5" x1="126.81" y1="1024.14" x2="126.81" y2="1017.81"/><line class="cls-5" x1="155.61" y1="1032.05" x2="155.61" y2="1017.81"/><line class="cls-5" x1="86.49" y1="1019.39" x2="86.49" y2="1017.81"/><line class="cls-5" x1="167.12" y1="1039.95" x2="167.12" y2="1017.81"/><line class="cls-5" x1="170" y1="1044.7" x2="170" y2="1017.81"/><line class="cls-5" x1="141.21" y1="1028.88" x2="141.21" y2="1017.81"/><line class="cls-5" x1="115.29" y1="1022.56" x2="115.29" y2="1017.81"/><line class="cls-5" x1="164.24" y1="1033.63" x2="164.24" y2="1017.81"/></g><g><line class="cls-5" x1="170" y1="616.16" x2="170" y2="613"/><line class="cls-5" x1="167.12" y1="614.58" x2="167.12" y2="613"/></g><g><line class="cls-5" x1="164.24" y1="758.48" x2="164.24" y2="755.32"/><line class="cls-5" x1="167.12" y1="761.64" x2="167.12" y2="755.32"/><line class="cls-5" x1="161.37" y1="756.9" x2="161.37" y2="755.32"/><line class="cls-5" x1="170" y1="764.81" x2="170" y2="755.32"/></g><g><line class="cls-5" x1="170" y1="358.41" x2="170" y2="352.09"/><line class="cls-5" x1="149.85" y1="355.25" x2="149.85" y2="352.09"/><line class="cls-5" x1="152.73" y1="355.25" x2="152.73" y2="352.09"/><line class="cls-5" x1="141.21" y1="353.67" x2="141.21" y2="352.09"/><line class="cls-5" x1="144.09" y1="353.67" x2="144.09" y2="352.09"/><line class="cls-5" x1="155.61" y1="355.25" x2="155.61" y2="352.09"/><line class="cls-5" x1="167.12" y1="356.83" x2="167.12" y2="352.09"/><line class="cls-5" x1="158.49" y1="355.25" x2="158.49" y2="352.09"/><line class="cls-5" x1="146.97" y1="353.67" x2="146.97" y2="352.09"/><line class="cls-5" x1="161.37" y1="355.25" x2="161.37" y2="352.09"/><line class="cls-5" x1="164.24" y1="355.25" x2="164.24" y2="352.09"/><line class="cls-5" x1="138.33" y1="353.67" x2="138.33" y2="352.09"/></g><g><line class="cls-5" x1="167.12" y1="378.97" x2="167.12" y2="375.81"/><line class="cls-5" x1="164.24" y1="378.97" x2="164.24" y2="375.81"/><line class="cls-5" x1="170" y1="378.97" x2="170" y2="375.81"/></g><g><line class="cls-5" x1="167.12" y1="405.85" x2="167.12" y2="399.52"/><line class="cls-5" x1="161.37" y1="401.11" x2="161.37" y2="399.52"/><line class="cls-5" x1="158.49" y1="401.11" x2="158.49" y2="399.52"/><line class="cls-5" x1="170" y1="405.85" x2="170" y2="399.52"/><line class="cls-5" x1="164.24" y1="402.69" x2="164.24" y2="399.52"/></g><line class="cls-5" x1="170" y1="717.37" x2="170" y2="707.88"/><g><line class="cls-5" x1="126.92" y1="1443.19" x2="126.92" y2="1441.6"/><line class="cls-5" x1="170" y1="1479.56" x2="170" y2="1441.6"/><line class="cls-5" x1="149.73" y1="1444.77" x2="149.73" y2="1441.6"/><line class="cls-5" x1="129.45" y1="1443.19" x2="129.45" y2="1441.6"/><line class="cls-5" x1="164.94" y1="1447.93" x2="164.94" y2="1441.6"/><line class="cls-5" x1="157.33" y1="1446.35" x2="157.33" y2="1441.6"/><line class="cls-5" x1="159.87" y1="1446.35" x2="159.87" y2="1441.6"/><line class="cls-5" x1="167.47" y1="1447.93" x2="167.47" y2="1441.6"/><line class="cls-5" x1="131.98" y1="1443.19" x2="131.98" y2="1441.6"/><line class="cls-5" x1="134.52" y1="1443.19" x2="134.52" y2="1441.6"/><line class="cls-5" x1="137.05" y1="1443.19" x2="137.05" y2="1441.6"/><line class="cls-5" x1="139.59" y1="1443.19" x2="139.59" y2="1441.6"/><line class="cls-5" x1="142.12" y1="1443.19" x2="142.12" y2="1441.6"/><line class="cls-5" x1="144.66" y1="1443.19" x2="144.66" y2="1441.6"/><line class="cls-5" x1="152.26" y1="1444.77" x2="152.26" y2="1441.6"/><line class="cls-5" x1="154.8" y1="1444.77" x2="154.8" y2="1441.6"/><line class="cls-5" x1="147.19" y1="1443.19" x2="147.19" y2="1441.6"/><line class="cls-5" x1="162.4" y1="1446.35" x2="162.4" y2="1441.6"/><line class="cls-5" x1="124.38" y1="1443.19" x2="124.38" y2="1441.6"/></g><g><line class="cls-5" x1="149.85" y1="662.02" x2="149.85" y2="660.44"/><line class="cls-5" x1="164.24" y1="666.76" x2="164.24" y2="660.44"/><line class="cls-5" x1="161.37" y1="663.6" x2="161.37" y2="660.44"/><line class="cls-5" x1="152.73" y1="662.02" x2="152.73" y2="660.44"/><line class="cls-5" x1="167.12" y1="666.76" x2="167.12" y2="660.44"/><line class="cls-5" x1="155.61" y1="662.02" x2="155.61" y2="660.44"/><line class="cls-5" x1="170" y1="666.76" x2="170" y2="660.44"/><line class="cls-5" x1="158.49" y1="662.02" x2="158.49" y2="660.44"/><line class="cls-5" x1="146.97" y1="662.02" x2="146.97" y2="660.44"/></g><g><line class="cls-5" x1="164.24" y1="690.48" x2="164.24" y2="684.16"/><line class="cls-5" x1="167.12" y1="690.48" x2="167.12" y2="684.16"/><line class="cls-5" x1="152.73" y1="685.74" x2="152.73" y2="684.16"/><line class="cls-5" x1="161.37" y1="688.9" x2="161.37" y2="684.16"/><line class="cls-5" x1="155.61" y1="685.74" x2="155.61" y2="684.16"/><line class="cls-5" x1="158.49" y1="685.74" x2="158.49" y2="684.16"/><line class="cls-5" x1="149.85" y1="685.74" x2="149.85" y2="684.16"/><line class="cls-5" x1="170" y1="693.65" x2="170" y2="684.16"/></g><line class="cls-5" x1="170" y1="712.62" x2="170" y2="707.88"/><g><line class="cls-5" x1="146.96" y1="86.43" x2="146.96" y2="84.85"/><line class="cls-5" x1="152.72" y1="88.01" x2="152.72" y2="84.85"/><line class="cls-5" x1="155.6" y1="88.01" x2="155.6" y2="84.85"/><line class="cls-5" x1="161.36" y1="89.59" x2="161.36" y2="84.85"/><line class="cls-5" x1="167.12" y1="91.17" x2="167.12" y2="84.85"/><line class="cls-5" x1="149.84" y1="86.43" x2="149.84" y2="84.85"/><line class="cls-5" x1="158.48" y1="88.01" x2="158.48" y2="84.85"/><line class="cls-5" x1="144.08" y1="86.43" x2="144.08" y2="84.85"/><line class="cls-5" x1="170" y1="92.75" x2="170" y2="84.85"/><line class="cls-5" x1="164.24" y1="89.59" x2="164.24" y2="84.85"/></g><g><line class="cls-5" x1="170" y1="454.87" x2="170" y2="446.96"/><line class="cls-5" x1="164.24" y1="450.13" x2="164.24" y2="446.96"/><line class="cls-5" x1="158.49" y1="448.54" x2="158.49" y2="446.96"/><line class="cls-5" x1="167.12" y1="450.13" x2="167.12" y2="446.96"/><line class="cls-5" x1="161.37" y1="448.54" x2="161.37" y2="446.96"/><line class="cls-5" x1="155.61" y1="448.54" x2="155.61" y2="446.96"/></g><g><line class="cls-5" x1="144.09" y1="780.62" x2="144.09" y2="779.04"/><line class="cls-5" x1="146.97" y1="780.62" x2="146.97" y2="779.04"/><line class="cls-5" x1="149.85" y1="780.62" x2="149.85" y2="779.04"/><line class="cls-5" x1="164.24" y1="785.36" x2="164.24" y2="779.04"/><line class="cls-5" x1="152.73" y1="780.62" x2="152.73" y2="779.04"/><line class="cls-5" x1="155.61" y1="780.62" x2="155.61" y2="779.04"/><line class="cls-5" x1="158.49" y1="780.62" x2="158.49" y2="779.04"/><line class="cls-5" x1="161.37" y1="780.62" x2="161.37" y2="779.04"/><line class="cls-5" x1="167.12" y1="785.36" x2="167.12" y2="779.04"/><line class="cls-5" x1="141.21" y1="780.62" x2="141.21" y2="779.04"/><line class="cls-5" x1="170" y1="785.36" x2="170" y2="779.04"/></g><g><line class="cls-5" x1="109.53" y1="1066.84" x2="109.53" y2="1065.25"/><line class="cls-5" x1="149.85" y1="1071.58" x2="149.85" y2="1065.25"/><line class="cls-5" x1="144.09" y1="1070" x2="144.09" y2="1065.25"/><line class="cls-5" x1="161.37" y1="1074.74" x2="161.37" y2="1065.25"/><line class="cls-5" x1="112.41" y1="1066.84" x2="112.41" y2="1065.25"/><line class="cls-5" x1="132.57" y1="1068.42" x2="132.57" y2="1065.25"/><line class="cls-5" x1="115.29" y1="1066.84" x2="115.29" y2="1065.25"/><line class="cls-5" x1="152.73" y1="1071.58" x2="152.73" y2="1065.25"/><line class="cls-5" x1="118.17" y1="1066.84" x2="118.17" y2="1065.25"/><line class="cls-5" x1="155.61" y1="1071.58" x2="155.61" y2="1065.25"/><line class="cls-5" x1="121.05" y1="1066.84" x2="121.05" y2="1065.25"/><line class="cls-5" x1="123.93" y1="1066.84" x2="123.93" y2="1065.25"/><line class="cls-5" x1="158.49" y1="1071.58" x2="158.49" y2="1065.25"/><line class="cls-5" x1="167.12" y1="1081.07" x2="167.12" y2="1065.25"/><line class="cls-5" x1="146.97" y1="1070" x2="146.97" y2="1065.25"/><line class="cls-5" x1="126.81" y1="1066.84" x2="126.81" y2="1065.25"/><line class="cls-5" x1="135.45" y1="1068.42" x2="135.45" y2="1065.25"/><line class="cls-5" x1="129.69" y1="1066.84" x2="129.69" y2="1065.25"/><line class="cls-5" x1="138.33" y1="1068.42" x2="138.33" y2="1065.25"/><line class="cls-5" x1="106.65" y1="1066.84" x2="106.65" y2="1065.25"/><line class="cls-5" x1="170" y1="1098.46" x2="170" y2="1065.25"/><line class="cls-5" x1="141.21" y1="1068.42" x2="141.21" y2="1065.25"/><line class="cls-5" x1="164.24" y1="1074.74" x2="164.24" y2="1065.25"/></g><g><line class="cls-5" x1="170" y1="1134.83" x2="170" y2="1112.69"/><line class="cls-5" x1="109.53" y1="1114.27" x2="109.53" y2="1112.69"/><line class="cls-5" x1="146.97" y1="1119.02" x2="146.97" y2="1112.69"/><line class="cls-5" x1="112.41" y1="1114.27" x2="112.41" y2="1112.69"/><line class="cls-5" x1="138.33" y1="1115.86" x2="138.33" y2="1112.69"/><line class="cls-5" x1="144.09" y1="1117.44" x2="144.09" y2="1112.69"/><line class="cls-5" x1="115.29" y1="1114.27" x2="115.29" y2="1112.69"/><line class="cls-5" x1="118.17" y1="1114.27" x2="118.17" y2="1112.69"/><line class="cls-5" x1="149.85" y1="1119.02" x2="149.85" y2="1112.69"/><line class="cls-5" x1="152.73" y1="1119.02" x2="152.73" y2="1112.69"/><line class="cls-5" x1="121.05" y1="1114.27" x2="121.05" y2="1112.69"/><line class="cls-5" x1="155.61" y1="1119.02" x2="155.61" y2="1112.69"/><line class="cls-5" x1="123.93" y1="1114.27" x2="123.93" y2="1112.69"/><line class="cls-5" x1="126.81" y1="1114.27" x2="126.81" y2="1112.69"/><line class="cls-5" x1="167.12" y1="1126.93" x2="167.12" y2="1112.69"/><line class="cls-5" x1="129.69" y1="1114.27" x2="129.69" y2="1112.69"/><line class="cls-5" x1="132.57" y1="1114.27" x2="132.57" y2="1112.69"/><line class="cls-5" x1="135.45" y1="1114.27" x2="135.45" y2="1112.69"/><line class="cls-5" x1="164.24" y1="1123.76" x2="164.24" y2="1112.69"/><line class="cls-5" x1="161.37" y1="1120.6" x2="161.37" y2="1112.69"/><line class="cls-5" x1="106.65" y1="1114.27" x2="106.65" y2="1112.69"/><line class="cls-5" x1="158.49" y1="1119.02" x2="158.49" y2="1112.69"/><line class="cls-5" x1="141.21" y1="1115.86" x2="141.21" y2="1112.69"/></g><g><line class="cls-5" x1="149.85" y1="1587.08" x2="149.85" y2="1583.92"/><line class="cls-5" x1="132.57" y1="1585.5" x2="132.57" y2="1583.92"/><line class="cls-5" x1="152.73" y1="1587.08" x2="152.73" y2="1583.92"/><line class="cls-5" x1="167.12" y1="1591.83" x2="167.12" y2="1583.92"/><line class="cls-5" x1="135.45" y1="1585.5" x2="135.45" y2="1583.92"/><line class="cls-5" x1="138.33" y1="1585.5" x2="138.33" y2="1583.92"/><line class="cls-5" x1="141.21" y1="1585.5" x2="141.21" y2="1583.92"/><line class="cls-5" x1="155.61" y1="1588.66" x2="155.61" y2="1583.92"/><line class="cls-5" x1="170" y1="1596.57" x2="170" y2="1583.92"/><line class="cls-5" x1="158.49" y1="1588.66" x2="158.49" y2="1583.92"/><line class="cls-5" x1="144.09" y1="1585.5" x2="144.09" y2="1583.92"/><line class="cls-5" x1="164.24" y1="1590.25" x2="164.24" y2="1583.92"/><line class="cls-5" x1="161.37" y1="1588.66" x2="161.37" y2="1583.92"/><line class="cls-5" x1="146.97" y1="1585.5" x2="146.97" y2="1583.92"/><line class="cls-5" x1="129.69" y1="1585.5" x2="129.69" y2="1583.92"/></g><g><line class="cls-5" x1="155.6" y1="190.79" x2="155.6" y2="187.63"/><line class="cls-5" x1="158.48" y1="190.79" x2="158.48" y2="187.63"/><line class="cls-5" x1="161.36" y1="190.79" x2="161.36" y2="187.63"/><line class="cls-5" x1="146.96" y1="189.21" x2="146.96" y2="187.63"/><line class="cls-5" x1="164.24" y1="190.79" x2="164.24" y2="187.63"/><line class="cls-5" x1="170" y1="193.95" x2="170" y2="187.63"/><line class="cls-5" x1="167.12" y1="190.79" x2="167.12" y2="187.63"/><line class="cls-5" x1="149.84" y1="189.21" x2="149.84" y2="187.63"/><line class="cls-5" x1="152.72" y1="189.21" x2="152.72" y2="187.63"/><line class="cls-5" x1="144.08" y1="189.21" x2="144.08" y2="187.63"/></g><g><line class="cls-5" x1="144.09" y1="212.93" x2="144.09" y2="211.35"/><line class="cls-5" x1="155.61" y1="216.09" x2="155.61" y2="211.35"/><line class="cls-5" x1="146.97" y1="212.93" x2="146.97" y2="211.35"/><line class="cls-5" x1="141.21" y1="212.93" x2="141.21" y2="211.35"/><line class="cls-5" x1="158.49" y1="216.09" x2="158.49" y2="211.35"/><line class="cls-5" x1="161.37" y1="216.09" x2="161.37" y2="211.35"/><line class="cls-5" x1="164.24" y1="216.09" x2="164.24" y2="211.35"/><line class="cls-5" x1="149.85" y1="214.51" x2="149.85" y2="211.35"/><line class="cls-5" x1="167.12" y1="219.26" x2="167.12" y2="211.35"/><line class="cls-5" x1="152.73" y1="214.51" x2="152.73" y2="211.35"/><line class="cls-5" x1="170" y1="219.26" x2="170" y2="211.35"/></g><g><line class="cls-5" x1="138.33" y1="495.98" x2="138.33" y2="494.4"/><line class="cls-5" x1="161.37" y1="500.73" x2="161.37" y2="494.4"/><line class="cls-5" x1="141.21" y1="495.98" x2="141.21" y2="494.4"/><line class="cls-5" x1="155.61" y1="499.15" x2="155.61" y2="494.4"/><line class="cls-5" x1="144.09" y1="495.98" x2="144.09" y2="494.4"/><line class="cls-5" x1="146.97" y1="495.98" x2="146.97" y2="494.4"/><line class="cls-5" x1="149.85" y1="495.98" x2="149.85" y2="494.4"/><line class="cls-5" x1="164.24" y1="500.73" x2="164.24" y2="494.4"/><line class="cls-5" x1="158.49" y1="499.15" x2="158.49" y2="494.4"/><line class="cls-5" x1="152.73" y1="495.98" x2="152.73" y2="494.4"/><line class="cls-5" x1="135.45" y1="495.98" x2="135.45" y2="494.4"/><line class="cls-5" x1="167.12" y1="500.73" x2="167.12" y2="494.4"/><line class="cls-5" x1="170" y1="500.73" x2="170" y2="494.4"/></g><g><line class="cls-5" x1="149.84" y1="165.49" x2="149.84" y2="163.91"/><line class="cls-5" x1="158.48" y1="167.07" x2="158.48" y2="163.91"/><line class="cls-5" x1="161.36" y1="167.07" x2="161.36" y2="163.91"/><line class="cls-5" x1="152.72" y1="165.49" x2="152.72" y2="163.91"/><line class="cls-5" x1="170" y1="173.4" x2="170" y2="163.91"/><line class="cls-5" x1="155.6" y1="165.49" x2="155.6" y2="163.91"/><line class="cls-5" x1="164.24" y1="167.07" x2="164.24" y2="163.91"/><line class="cls-5" x1="167.12" y1="167.07" x2="167.12" y2="163.91"/><line class="cls-5" x1="146.96" y1="165.49" x2="146.96" y2="163.91"/></g><g><line class="cls-5" x1="149.85" y1="284.09" x2="149.85" y2="280.93"/><line class="cls-5" x1="158.49" y1="285.67" x2="158.49" y2="280.93"/><line class="cls-5" x1="164.24" y1="287.25" x2="164.24" y2="280.93"/><line class="cls-5" x1="161.37" y1="285.67" x2="161.37" y2="280.93"/><line class="cls-5" x1="167.12" y1="287.25" x2="167.12" y2="280.93"/><line class="cls-5" x1="152.73" y1="284.09" x2="152.73" y2="280.93"/><line class="cls-5" x1="170" y1="287.25" x2="170" y2="280.93"/><line class="cls-5" x1="155.61" y1="284.09" x2="155.61" y2="280.93"/><line class="cls-5" x1="146.97" y1="282.51" x2="146.97" y2="280.93"/></g><g><line class="cls-5" x1="141.21" y1="424.82" x2="141.21" y2="423.24"/><line class="cls-5" x1="144.09" y1="424.82" x2="144.09" y2="423.24"/><line class="cls-5" x1="146.97" y1="424.82" x2="146.97" y2="423.24"/><line class="cls-5" x1="152.73" y1="426.41" x2="152.73" y2="423.24"/><line class="cls-5" x1="170" y1="437.48" x2="170" y2="423.24"/><line class="cls-5" x1="155.61" y1="426.41" x2="155.61" y2="423.24"/><line class="cls-5" x1="149.85" y1="424.82" x2="149.85" y2="423.24"/><line class="cls-5" x1="158.49" y1="426.41" x2="158.49" y2="423.24"/><line class="cls-5" x1="164.24" y1="427.99" x2="164.24" y2="423.24"/><line class="cls-5" x1="161.37" y1="426.41" x2="161.37" y2="423.24"/><line class="cls-5" x1="138.33" y1="424.82" x2="138.33" y2="423.24"/><line class="cls-5" x1="167.12" y1="429.57" x2="167.12" y2="423.24"/></g><g><line class="cls-5" x1="170" y1="551.33" x2="170" y2="541.84"/><line class="cls-5" x1="161.37" y1="543.42" x2="161.37" y2="541.84"/><line class="cls-5" x1="164.24" y1="543.42" x2="164.24" y2="541.84"/><line class="cls-5" x1="167.12" y1="543.42" x2="167.12" y2="541.84"/><line class="cls-5" x1="158.49" y1="543.42" x2="158.49" y2="541.84"/></g><g><line class="cls-5" x1="161.37" y1="594.03" x2="161.37" y2="589.28"/><line class="cls-5" x1="144.09" y1="590.86" x2="144.09" y2="589.28"/><line class="cls-5" x1="146.97" y1="590.86" x2="146.97" y2="589.28"/><line class="cls-5" x1="167.12" y1="595.61" x2="167.12" y2="589.28"/><line class="cls-5" x1="149.85" y1="590.86" x2="149.85" y2="589.28"/><line class="cls-5" x1="152.73" y1="590.86" x2="152.73" y2="589.28"/><line class="cls-5" x1="155.61" y1="590.86" x2="155.61" y2="589.28"/><line class="cls-5" x1="158.49" y1="592.44" x2="158.49" y2="589.28"/><line class="cls-5" x1="141.21" y1="590.86" x2="141.21" y2="589.28"/><line class="cls-5" x1="164.24" y1="594.03" x2="164.24" y2="589.28"/><line class="cls-5" x1="170" y1="595.61" x2="170" y2="589.28"/></g><line class="cls-5" x1="170" y1="709.46" x2="170" y2="707.88"/><g><line class="cls-5" x1="149.85" y1="1283.47" x2="149.85" y2="1278.73"/><line class="cls-5" x1="115.29" y1="1280.31" x2="115.29" y2="1278.73"/><line class="cls-5" x1="118.17" y1="1280.31" x2="118.17" y2="1278.73"/><line class="cls-5" x1="121.05" y1="1280.31" x2="121.05" y2="1278.73"/><line class="cls-5" x1="158.49" y1="1286.64" x2="158.49" y2="1278.73"/><line class="cls-5" x1="152.73" y1="1283.47" x2="152.73" y2="1278.73"/><line class="cls-5" x1="123.93" y1="1280.31" x2="123.93" y2="1278.73"/><line class="cls-5" x1="126.81" y1="1280.31" x2="126.81" y2="1278.73"/><line class="cls-5" x1="155.61" y1="1283.47" x2="155.61" y2="1278.73"/><line class="cls-5" x1="129.69" y1="1280.31" x2="129.69" y2="1278.73"/><line class="cls-5" x1="170" y1="1291.38" x2="170" y2="1278.73"/><line class="cls-5" x1="132.57" y1="1280.31" x2="132.57" y2="1278.73"/><line class="cls-5" x1="161.37" y1="1286.64" x2="161.37" y2="1278.73"/><line class="cls-5" x1="135.45" y1="1280.31" x2="135.45" y2="1278.73"/><line class="cls-5" x1="138.33" y1="1280.31" x2="138.33" y2="1278.73"/><line class="cls-5" x1="141.21" y1="1280.31" x2="141.21" y2="1278.73"/><line class="cls-5" x1="144.09" y1="1280.31" x2="144.09" y2="1278.73"/><line class="cls-5" x1="167.12" y1="1288.22" x2="167.12" y2="1278.73"/><line class="cls-5" x1="164.24" y1="1286.64" x2="164.24" y2="1278.73"/><line class="cls-5" x1="146.97" y1="1280.31" x2="146.97" y2="1278.73"/><line class="cls-5" x1="112.41" y1="1280.31" x2="112.41" y2="1278.73"/></g><g><line class="cls-5" x1="141.21" y1="1305.61" x2="141.21" y2="1299.29"/><line class="cls-5" x1="155.61" y1="1310.36" x2="155.61" y2="1299.29"/><line class="cls-5" x1="123.93" y1="1302.45" x2="123.93" y2="1299.29"/><line class="cls-5" x1="126.81" y1="1302.45" x2="126.81" y2="1299.29"/><line class="cls-5" x1="129.69" y1="1302.45" x2="129.69" y2="1299.29"/><line class="cls-5" x1="170" y1="1319.84" x2="170" y2="1299.29"/><line class="cls-5" x1="158.49" y1="1310.36" x2="158.49" y2="1299.29"/><line class="cls-5" x1="144.09" y1="1305.61" x2="144.09" y2="1299.29"/><line class="cls-5" x1="118.17" y1="1300.87" x2="118.17" y2="1299.29"/><line class="cls-5" x1="152.73" y1="1307.19" x2="152.73" y2="1299.29"/><line class="cls-5" x1="132.57" y1="1302.45" x2="132.57" y2="1299.29"/><line class="cls-5" x1="146.97" y1="1305.61" x2="146.97" y2="1299.29"/><line class="cls-5" x1="161.37" y1="1311.94" x2="161.37" y2="1299.29"/><line class="cls-5" x1="164.24" y1="1311.94" x2="164.24" y2="1299.29"/><line class="cls-5" x1="135.45" y1="1302.45" x2="135.45" y2="1299.29"/><line class="cls-5" x1="121.05" y1="1300.87" x2="121.05" y2="1299.29"/><line class="cls-5" x1="149.85" y1="1305.61" x2="149.85" y2="1299.29"/><line class="cls-5" x1="167.12" y1="1311.94" x2="167.12" y2="1299.29"/><line class="cls-5" x1="115.29" y1="1300.87" x2="115.29" y2="1299.29"/><line class="cls-5" x1="138.33" y1="1302.45" x2="138.33" y2="1299.29"/></g><g><line class="cls-5" x1="164.24" y1="329.95" x2="164.24" y2="328.37"/><line class="cls-5" x1="167.12" y1="331.53" x2="167.12" y2="328.37"/><line class="cls-5" x1="170" y1="331.53" x2="170" y2="328.37"/></g><g><line class="cls-5" x1="152.73" y1="568.72" x2="152.73" y2="565.56"/><line class="cls-5" x1="138.33" y1="567.14" x2="138.33" y2="565.56"/><line class="cls-5" x1="155.61" y1="568.72" x2="155.61" y2="565.56"/><line class="cls-5" x1="141.21" y1="567.14" x2="141.21" y2="565.56"/><line class="cls-5" x1="170" y1="571.89" x2="170" y2="565.56"/><line class="cls-5" x1="158.49" y1="568.72" x2="158.49" y2="565.56"/><line class="cls-5" x1="144.09" y1="567.14" x2="144.09" y2="565.56"/><line class="cls-5" x1="167.12" y1="570.3" x2="167.12" y2="565.56"/><line class="cls-5" x1="161.37" y1="568.72" x2="161.37" y2="565.56"/><line class="cls-5" x1="146.97" y1="567.14" x2="146.97" y2="565.56"/><line class="cls-5" x1="164.24" y1="568.72" x2="164.24" y2="565.56"/><line class="cls-5" x1="149.85" y1="567.14" x2="149.85" y2="565.56"/><line class="cls-5" x1="135.45" y1="567.14" x2="135.45" y2="565.56"/></g><g><line class="cls-5" x1="161.37" y1="639.88" x2="161.37" y2="636.72"/><line class="cls-5" x1="149.85" y1="638.3" x2="149.85" y2="636.72"/><line class="cls-5" x1="152.73" y1="638.3" x2="152.73" y2="636.72"/><line class="cls-5" x1="155.61" y1="638.3" x2="155.61" y2="636.72"/><line class="cls-5" x1="158.49" y1="638.3" x2="158.49" y2="636.72"/><line class="cls-5" x1="164.24" y1="639.88" x2="164.24" y2="636.72"/><line class="cls-5" x1="167.12" y1="639.88" x2="167.12" y2="636.72"/><line class="cls-5" x1="170" y1="641.46" x2="170" y2="636.72"/><line class="cls-5" x1="146.97" y1="638.3" x2="146.97" y2="636.72"/></g><g><line class="cls-5" x1="146.97" y1="854.94" x2="146.97" y2="848.61"/><line class="cls-5" x1="167.12" y1="858.1" x2="167.12" y2="848.61"/><line class="cls-5" x1="170" y1="859.69" x2="170" y2="848.61"/><line class="cls-5" x1="106.65" y1="850.2" x2="106.65" y2="848.61"/><line class="cls-5" x1="149.85" y1="854.94" x2="149.85" y2="848.61"/><line class="cls-5" x1="109.53" y1="850.2" x2="109.53" y2="848.61"/><line class="cls-5" x1="112.41" y1="850.2" x2="112.41" y2="848.61"/><line class="cls-5" x1="141.21" y1="853.36" x2="141.21" y2="848.61"/><line class="cls-5" x1="152.73" y1="854.94" x2="152.73" y2="848.61"/><line class="cls-5" x1="144.09" y1="853.36" x2="144.09" y2="848.61"/><line class="cls-5" x1="115.29" y1="850.2" x2="115.29" y2="848.61"/><line class="cls-5" x1="138.33" y1="851.78" x2="138.33" y2="848.61"/><line class="cls-5" x1="118.17" y1="850.2" x2="118.17" y2="848.61"/><line class="cls-5" x1="155.61" y1="854.94" x2="155.61" y2="848.61"/><line class="cls-5" x1="121.05" y1="850.2" x2="121.05" y2="848.61"/><line class="cls-5" x1="123.93" y1="850.2" x2="123.93" y2="848.61"/><line class="cls-5" x1="126.81" y1="850.2" x2="126.81" y2="848.61"/><line class="cls-5" x1="129.69" y1="850.2" x2="129.69" y2="848.61"/><line class="cls-5" x1="132.57" y1="850.2" x2="132.57" y2="848.61"/><line class="cls-5" x1="164.24" y1="856.52" x2="164.24" y2="848.61"/><line class="cls-5" x1="135.45" y1="850.2" x2="135.45" y2="848.61"/><line class="cls-5" x1="103.77" y1="850.2" x2="103.77" y2="848.61"/><line class="cls-5" x1="158.49" y1="854.94" x2="158.49" y2="848.61"/><line class="cls-5" x1="161.37" y1="854.94" x2="161.37" y2="848.61"/></g><g><line class="cls-5" x1="149.85" y1="903.96" x2="149.85" y2="899.22"/><line class="cls-5" x1="152.73" y1="903.96" x2="152.73" y2="899.22"/><line class="cls-5" x1="95.13" y1="900.8" x2="95.13" y2="899.22"/><line class="cls-5" x1="98.01" y1="900.8" x2="98.01" y2="899.22"/><line class="cls-5" x1="100.89" y1="900.8" x2="100.89" y2="899.22"/><line class="cls-5" x1="103.77" y1="900.8" x2="103.77" y2="899.22"/><line class="cls-5" x1="167.12" y1="908.7" x2="167.12" y2="899.22"/><line class="cls-5" x1="106.65" y1="900.8" x2="106.65" y2="899.22"/><line class="cls-5" x1="158.49" y1="905.54" x2="158.49" y2="899.22"/><line class="cls-5" x1="109.53" y1="900.8" x2="109.53" y2="899.22"/><line class="cls-5" x1="112.41" y1="900.8" x2="112.41" y2="899.22"/><line class="cls-5" x1="115.29" y1="900.8" x2="115.29" y2="899.22"/><line class="cls-5" x1="118.17" y1="900.8" x2="118.17" y2="899.22"/><line class="cls-5" x1="155.61" y1="903.96" x2="155.61" y2="899.22"/><line class="cls-5" x1="121.05" y1="900.8" x2="121.05" y2="899.22"/><line class="cls-5" x1="123.93" y1="900.8" x2="123.93" y2="899.22"/><line class="cls-5" x1="126.81" y1="900.8" x2="126.81" y2="899.22"/><line class="cls-5" x1="161.37" y1="905.54" x2="161.37" y2="899.22"/><line class="cls-5" x1="129.69" y1="900.8" x2="129.69" y2="899.22"/><line class="cls-5" x1="146.97" y1="902.38" x2="146.97" y2="899.22"/><line class="cls-5" x1="132.57" y1="900.8" x2="132.57" y2="899.22"/><line class="cls-5" x1="164.24" y1="905.54" x2="164.24" y2="899.22"/><line class="cls-5" x1="135.45" y1="900.8" x2="135.45" y2="899.22"/><line class="cls-5" x1="138.33" y1="900.8" x2="138.33" y2="899.22"/><line class="cls-5" x1="141.21" y1="900.8" x2="141.21" y2="899.22"/><line class="cls-5" x1="144.09" y1="900.8" x2="144.09" y2="899.22"/><line class="cls-5" x1="170" y1="913.45" x2="170" y2="899.22"/><line class="cls-5" x1="92.25" y1="900.8" x2="92.25" y2="899.22"/></g><g><line class="cls-5" x1="121.05" y1="951.4" x2="121.05" y2="946.66"/><line class="cls-5" x1="123.93" y1="951.4" x2="123.93" y2="946.66"/><line class="cls-5" x1="167.12" y1="957.72" x2="167.12" y2="946.66"/><line class="cls-5" x1="170" y1="957.72" x2="170" y2="946.66"/><line class="cls-5" x1="132.57" y1="952.98" x2="132.57" y2="946.66"/><line class="cls-5" x1="135.45" y1="952.98" x2="135.45" y2="946.66"/><line class="cls-5" x1="138.33" y1="952.98" x2="138.33" y2="946.66"/><line class="cls-5" x1="126.81" y1="951.4" x2="126.81" y2="946.66"/><line class="cls-5" x1="95.13" y1="948.24" x2="95.13" y2="946.66"/><line class="cls-5" x1="103.77" y1="949.82" x2="103.77" y2="946.66"/><line class="cls-5" x1="106.65" y1="949.82" x2="106.65" y2="946.66"/><line class="cls-5" x1="141.21" y1="952.98" x2="141.21" y2="946.66"/><line class="cls-5" x1="129.69" y1="951.4" x2="129.69" y2="946.66"/><line class="cls-5" x1="158.49" y1="954.56" x2="158.49" y2="946.66"/><line class="cls-5" x1="109.53" y1="949.82" x2="109.53" y2="946.66"/><line class="cls-5" x1="144.09" y1="952.98" x2="144.09" y2="946.66"/><line class="cls-5" x1="98.01" y1="948.24" x2="98.01" y2="946.66"/><line class="cls-5" x1="146.97" y1="952.98" x2="146.97" y2="946.66"/><line class="cls-5" x1="112.41" y1="949.82" x2="112.41" y2="946.66"/><line class="cls-5" x1="149.85" y1="952.98" x2="149.85" y2="946.66"/><line class="cls-5" x1="152.73" y1="952.98" x2="152.73" y2="946.66"/><line class="cls-5" x1="161.37" y1="954.56" x2="161.37" y2="946.66"/><line class="cls-5" x1="155.61" y1="952.98" x2="155.61" y2="946.66"/><line class="cls-5" x1="115.29" y1="949.82" x2="115.29" y2="946.66"/><line class="cls-5" x1="100.89" y1="948.24" x2="100.89" y2="946.66"/><line class="cls-5" x1="118.17" y1="949.82" x2="118.17" y2="946.66"/><line class="cls-5" x1="164.24" y1="956.14" x2="164.24" y2="946.66"/><line class="cls-5" x1="92.25" y1="948.24" x2="92.25" y2="946.66"/></g><g><line class="cls-5" x1="103.77" y1="971.96" x2="103.77" y2="970.38"/><line class="cls-5" x1="167.12" y1="986.19" x2="167.12" y2="970.38"/><line class="cls-5" x1="106.65" y1="971.96" x2="106.65" y2="970.38"/><line class="cls-5" x1="109.53" y1="971.96" x2="109.53" y2="970.38"/><line class="cls-5" x1="135.45" y1="973.54" x2="135.45" y2="970.38"/><line class="cls-5" x1="112.41" y1="971.96" x2="112.41" y2="970.38"/><line class="cls-5" x1="115.29" y1="971.96" x2="115.29" y2="970.38"/><line class="cls-5" x1="118.17" y1="971.96" x2="118.17" y2="970.38"/><line class="cls-5" x1="158.49" y1="981.45" x2="158.49" y2="970.38"/><line class="cls-5" x1="152.73" y1="978.28" x2="152.73" y2="970.38"/><line class="cls-5" x1="121.05" y1="971.96" x2="121.05" y2="970.38"/><line class="cls-5" x1="144.09" y1="975.12" x2="144.09" y2="970.38"/><line class="cls-5" x1="170" y1="990.93" x2="170" y2="970.38"/><line class="cls-5" x1="123.93" y1="971.96" x2="123.93" y2="970.38"/><line class="cls-5" x1="161.37" y1="981.45" x2="161.37" y2="970.38"/><line class="cls-5" x1="126.81" y1="971.96" x2="126.81" y2="970.38"/><line class="cls-5" x1="155.61" y1="979.86" x2="155.61" y2="970.38"/><line class="cls-5" x1="138.33" y1="973.54" x2="138.33" y2="970.38"/><line class="cls-5" x1="141.21" y1="973.54" x2="141.21" y2="970.38"/><line class="cls-5" x1="129.69" y1="971.96" x2="129.69" y2="970.38"/><line class="cls-5" x1="132.57" y1="971.96" x2="132.57" y2="970.38"/><line class="cls-5" x1="100.89" y1="971.96" x2="100.89" y2="970.38"/><line class="cls-5" x1="146.97" y1="975.12" x2="146.97" y2="970.38"/><line class="cls-5" x1="164.24" y1="983.03" x2="164.24" y2="970.38"/><line class="cls-5" x1="149.85" y1="976.7" x2="149.85" y2="970.38"/></g><g><line class="cls-5" x1="152.73" y1="1009.91" x2="152.73" y2="994.09"/><line class="cls-5" x1="138.33" y1="1005.16" x2="138.33" y2="994.09"/><line class="cls-5" x1="155.61" y1="1009.91" x2="155.61" y2="994.09"/><line class="cls-5" x1="112.41" y1="1002" x2="112.41" y2="994.09"/><line class="cls-5" x1="77.85" y1="1000.42" x2="77.85" y2="994.09"/><line class="cls-5" x1="158.49" y1="1009.91" x2="158.49" y2="994.09"/><line class="cls-5" x1="170" y1="1011.49" x2="170" y2="994.09"/><line class="cls-5" x1="115.29" y1="1002" x2="115.29" y2="994.09"/><line class="cls-5" x1="69.21" y1="998.84" x2="69.21" y2="994.09"/><line class="cls-5" x1="123.93" y1="1003.58" x2="123.93" y2="994.09"/><line class="cls-5" x1="126.81" y1="1003.58" x2="126.81" y2="994.09"/><line class="cls-5" x1="141.21" y1="1005.16" x2="141.21" y2="994.09"/><line class="cls-5" x1="161.37" y1="1009.91" x2="161.37" y2="994.09"/><line class="cls-5" x1="54.81" y1="995.68" x2="54.81" y2="994.09"/><line class="cls-5" x1="129.69" y1="1003.58" x2="129.69" y2="994.09"/><line class="cls-5" x1="63.45" y1="997.26" x2="63.45" y2="994.09"/><line class="cls-5" x1="80.73" y1="1000.42" x2="80.73" y2="994.09"/><line class="cls-5" x1="83.61" y1="1000.42" x2="83.61" y2="994.09"/><line class="cls-5" x1="132.57" y1="1003.58" x2="132.57" y2="994.09"/><line class="cls-5" x1="144.09" y1="1005.16" x2="144.09" y2="994.09"/><line class="cls-5" x1="57.69" y1="995.68" x2="57.69" y2="994.09"/><line class="cls-5" x1="86.49" y1="1000.42" x2="86.49" y2="994.09"/><line class="cls-5" x1="89.37" y1="1000.42" x2="89.37" y2="994.09"/><line class="cls-5" x1="92.25" y1="1000.42" x2="92.25" y2="994.09"/><line class="cls-5" x1="66.33" y1="997.26" x2="66.33" y2="994.09"/><line class="cls-5" x1="95.13" y1="1000.42" x2="95.13" y2="994.09"/><line class="cls-5" x1="146.97" y1="1005.16" x2="146.97" y2="994.09"/><line class="cls-5" x1="98.01" y1="1000.42" x2="98.01" y2="994.09"/><line class="cls-5" x1="149.85" y1="1005.16" x2="149.85" y2="994.09"/><line class="cls-5" x1="100.89" y1="1000.42" x2="100.89" y2="994.09"/><line class="cls-5" x1="103.77" y1="1000.42" x2="103.77" y2="994.09"/><line class="cls-5" x1="60.57" y1="995.68" x2="60.57" y2="994.09"/><line class="cls-5" x1="72.09" y1="998.84" x2="72.09" y2="994.09"/><line class="cls-5" x1="164.24" y1="1009.91" x2="164.24" y2="994.09"/><line class="cls-5" x1="118.17" y1="1002" x2="118.17" y2="994.09"/><line class="cls-5" x1="74.97" y1="998.84" x2="74.97" y2="994.09"/><line class="cls-5" x1="121.05" y1="1002" x2="121.05" y2="994.09"/><line class="cls-5" x1="167.12" y1="1009.91" x2="167.12" y2="994.09"/><line class="cls-5" x1="51.93" y1="995.68" x2="51.93" y2="994.09"/><line class="cls-5" x1="106.65" y1="1000.42" x2="106.65" y2="994.09"/><line class="cls-5" x1="109.53" y1="1000.42" x2="109.53" y2="994.09"/><line class="cls-5" x1="135.45" y1="1003.58" x2="135.45" y2="994.09"/></g><g><line class="cls-5" x1="123.93" y1="1047.86" x2="123.93" y2="1041.53"/><line class="cls-5" x1="103.77" y1="1044.7" x2="103.77" y2="1041.53"/><line class="cls-5" x1="126.81" y1="1047.86" x2="126.81" y2="1041.53"/><line class="cls-5" x1="86.49" y1="1043.12" x2="86.49" y2="1041.53"/><line class="cls-5" x1="129.69" y1="1047.86" x2="129.69" y2="1041.53"/><line class="cls-5" x1="106.65" y1="1044.7" x2="106.65" y2="1041.53"/><line class="cls-5" x1="132.57" y1="1047.86" x2="132.57" y2="1041.53"/><line class="cls-5" x1="89.37" y1="1043.12" x2="89.37" y2="1041.53"/><line class="cls-5" x1="92.25" y1="1043.12" x2="92.25" y2="1041.53"/><line class="cls-5" x1="95.13" y1="1043.12" x2="95.13" y2="1041.53"/><line class="cls-5" x1="109.53" y1="1046.28" x2="109.53" y2="1041.53"/><line class="cls-5" x1="164.24" y1="1052.6" x2="164.24" y2="1041.53"/><line class="cls-5" x1="158.49" y1="1051.02" x2="158.49" y2="1041.53"/><line class="cls-5" x1="98.01" y1="1043.12" x2="98.01" y2="1041.53"/><line class="cls-5" x1="135.45" y1="1047.86" x2="135.45" y2="1041.53"/><line class="cls-5" x1="161.37" y1="1051.02" x2="161.37" y2="1041.53"/><line class="cls-5" x1="138.33" y1="1047.86" x2="138.33" y2="1041.53"/><line class="cls-5" x1="141.21" y1="1047.86" x2="141.21" y2="1041.53"/><line class="cls-5" x1="112.41" y1="1046.28" x2="112.41" y2="1041.53"/><line class="cls-5" x1="144.09" y1="1047.86" x2="144.09" y2="1041.53"/><line class="cls-5" x1="100.89" y1="1043.12" x2="100.89" y2="1041.53"/><line class="cls-5" x1="83.61" y1="1043.12" x2="83.61" y2="1041.53"/><line class="cls-5" x1="146.97" y1="1047.86" x2="146.97" y2="1041.53"/><line class="cls-5" x1="115.29" y1="1046.28" x2="115.29" y2="1041.53"/><line class="cls-5" x1="149.85" y1="1047.86" x2="149.85" y2="1041.53"/><line class="cls-5" x1="152.73" y1="1047.86" x2="152.73" y2="1041.53"/><line class="cls-5" x1="118.17" y1="1046.28" x2="118.17" y2="1041.53"/><line class="cls-5" x1="155.61" y1="1047.86" x2="155.61" y2="1041.53"/><line class="cls-5" x1="167.12" y1="1052.6" x2="167.12" y2="1041.53"/><line class="cls-5" x1="170" y1="1057.35" x2="170" y2="1041.53"/><line class="cls-5" x1="121.05" y1="1046.28" x2="121.05" y2="1041.53"/></g><g><line class="cls-5" x1="92.25" y1="1095.3" x2="92.25" y2="1088.97"/><line class="cls-5" x1="80.73" y1="1093.72" x2="80.73" y2="1088.97"/><line class="cls-5" x1="54.81" y1="1090.55" x2="54.81" y2="1088.97"/><line class="cls-5" x1="57.69" y1="1090.55" x2="57.69" y2="1088.97"/><line class="cls-5" x1="83.61" y1="1093.72" x2="83.61" y2="1088.97"/><line class="cls-5" x1="115.29" y1="1096.88" x2="115.29" y2="1088.97"/><line class="cls-5" x1="95.13" y1="1095.3" x2="95.13" y2="1088.97"/><line class="cls-5" x1="118.17" y1="1096.88" x2="118.17" y2="1088.97"/><line class="cls-5" x1="98.01" y1="1095.3" x2="98.01" y2="1088.97"/><line class="cls-5" x1="121.05" y1="1096.88" x2="121.05" y2="1088.97"/><line class="cls-5" x1="60.57" y1="1090.55" x2="60.57" y2="1088.97"/><line class="cls-5" x1="132.57" y1="1098.46" x2="132.57" y2="1088.97"/><line class="cls-5" x1="63.45" y1="1090.55" x2="63.45" y2="1088.97"/><line class="cls-5" x1="100.89" y1="1095.3" x2="100.89" y2="1088.97"/><line class="cls-5" x1="123.93" y1="1096.88" x2="123.93" y2="1088.97"/><line class="cls-5" x1="135.45" y1="1100.04" x2="135.45" y2="1088.97"/><line class="cls-5" x1="103.77" y1="1095.3" x2="103.77" y2="1088.97"/><line class="cls-5" x1="86.49" y1="1093.72" x2="86.49" y2="1088.97"/><line class="cls-5" x1="89.37" y1="1093.72" x2="89.37" y2="1088.97"/><line class="cls-5" x1="158.49" y1="1103.21" x2="158.49" y2="1088.97"/><line class="cls-5" x1="138.33" y1="1100.04" x2="138.33" y2="1088.97"/><line class="cls-5" x1="66.33" y1="1090.55" x2="66.33" y2="1088.97"/><line class="cls-5" x1="106.65" y1="1095.3" x2="106.65" y2="1088.97"/><line class="cls-5" x1="69.21" y1="1090.55" x2="69.21" y2="1088.97"/><line class="cls-5" x1="72.09" y1="1090.55" x2="72.09" y2="1088.97"/><line class="cls-5" x1="74.97" y1="1090.55" x2="74.97" y2="1088.97"/><line class="cls-5" x1="109.53" y1="1095.3" x2="109.53" y2="1088.97"/><line class="cls-5" x1="141.21" y1="1100.04" x2="141.21" y2="1088.97"/><line class="cls-5" x1="144.09" y1="1100.04" x2="144.09" y2="1088.97"/><line class="cls-5" x1="51.93" y1="1090.55" x2="51.93" y2="1088.97"/><line class="cls-5" x1="146.97" y1="1100.04" x2="146.97" y2="1088.97"/><line class="cls-5" x1="112.41" y1="1095.3" x2="112.41" y2="1088.97"/><line class="cls-5" x1="126.81" y1="1096.88" x2="126.81" y2="1088.97"/><line class="cls-5" x1="161.37" y1="1103.21" x2="161.37" y2="1088.97"/><line class="cls-5" x1="164.24" y1="1103.21" x2="164.24" y2="1088.97"/><line class="cls-5" x1="149.85" y1="1100.04" x2="149.85" y2="1088.97"/><line class="cls-5" x1="152.73" y1="1100.04" x2="152.73" y2="1088.97"/><line class="cls-5" x1="170" y1="1109.53" x2="170" y2="1088.97"/><line class="cls-5" x1="167.12" y1="1107.95" x2="167.12" y2="1088.97"/><line class="cls-5" x1="77.85" y1="1092.14" x2="77.85" y2="1088.97"/><line class="cls-5" x1="155.61" y1="1100.04" x2="155.61" y2="1088.97"/><line class="cls-5" x1="129.69" y1="1096.88" x2="129.69" y2="1088.97"/></g><g><line class="cls-5" x1="138.33" y1="1145.9" x2="138.33" y2="1136.41"/><line class="cls-5" x1="141.21" y1="1145.9" x2="141.21" y2="1136.41"/><line class="cls-5" x1="149.85" y1="1147.48" x2="149.85" y2="1136.41"/><line class="cls-5" x1="152.73" y1="1147.48" x2="152.73" y2="1136.41"/><line class="cls-5" x1="72.09" y1="1137.99" x2="72.09" y2="1136.41"/><line class="cls-5" x1="100.89" y1="1139.57" x2="100.89" y2="1136.41"/><line class="cls-5" x1="144.09" y1="1145.9" x2="144.09" y2="1136.41"/><line class="cls-5" x1="132.57" y1="1144.32" x2="132.57" y2="1136.41"/><line class="cls-5" x1="121.05" y1="1142.74" x2="121.05" y2="1136.41"/><line class="cls-5" x1="74.97" y1="1137.99" x2="74.97" y2="1136.41"/><line class="cls-5" x1="77.85" y1="1137.99" x2="77.85" y2="1136.41"/><line class="cls-5" x1="161.37" y1="1150.64" x2="161.37" y2="1136.41"/><line class="cls-5" x1="80.73" y1="1137.99" x2="80.73" y2="1136.41"/><line class="cls-5" x1="83.61" y1="1137.99" x2="83.61" y2="1136.41"/><line class="cls-5" x1="146.97" y1="1145.9" x2="146.97" y2="1136.41"/><line class="cls-5" x1="86.49" y1="1137.99" x2="86.49" y2="1136.41"/><line class="cls-5" x1="103.77" y1="1139.57" x2="103.77" y2="1136.41"/><line class="cls-5" x1="155.61" y1="1147.48" x2="155.61" y2="1136.41"/><line class="cls-5" x1="109.53" y1="1141.16" x2="109.53" y2="1136.41"/><line class="cls-5" x1="89.37" y1="1137.99" x2="89.37" y2="1136.41"/><line class="cls-5" x1="158.49" y1="1147.48" x2="158.49" y2="1136.41"/><line class="cls-5" x1="92.25" y1="1137.99" x2="92.25" y2="1136.41"/><line class="cls-5" x1="95.13" y1="1137.99" x2="95.13" y2="1136.41"/><line class="cls-5" x1="106.65" y1="1139.57" x2="106.65" y2="1136.41"/><line class="cls-5" x1="112.41" y1="1141.16" x2="112.41" y2="1136.41"/><line class="cls-5" x1="123.93" y1="1142.74" x2="123.93" y2="1136.41"/><line class="cls-5" x1="98.01" y1="1137.99" x2="98.01" y2="1136.41"/><line class="cls-5" x1="126.81" y1="1142.74" x2="126.81" y2="1136.41"/><line class="cls-5" x1="164.24" y1="1150.64" x2="164.24" y2="1136.41"/><line class="cls-5" x1="167.12" y1="1150.64" x2="167.12" y2="1136.41"/><line class="cls-5" x1="129.69" y1="1142.74" x2="129.69" y2="1136.41"/><line class="cls-5" x1="135.45" y1="1144.32" x2="135.45" y2="1136.41"/><line class="cls-5" x1="170" y1="1150.64" x2="170" y2="1136.41"/><line class="cls-5" x1="69.21" y1="1137.99" x2="69.21" y2="1136.41"/><line class="cls-5" x1="115.29" y1="1141.16" x2="115.29" y2="1136.41"/><line class="cls-5" x1="118.17" y1="1141.16" x2="118.17" y2="1136.41"/></g><g><line class="cls-5" x1="95.13" y1="1161.71" x2="95.13" y2="1160.13"/><line class="cls-5" x1="98.01" y1="1161.71" x2="98.01" y2="1160.13"/><line class="cls-5" x1="100.89" y1="1161.71" x2="100.89" y2="1160.13"/><line class="cls-5" x1="161.37" y1="1171.2" x2="161.37" y2="1160.13"/><line class="cls-5" x1="121.05" y1="1164.88" x2="121.05" y2="1160.13"/><line class="cls-5" x1="132.57" y1="1166.46" x2="132.57" y2="1160.13"/><line class="cls-5" x1="103.77" y1="1161.71" x2="103.77" y2="1160.13"/><line class="cls-5" x1="149.85" y1="1169.62" x2="149.85" y2="1160.13"/><line class="cls-5" x1="170" y1="1177.53" x2="170" y2="1160.13"/><line class="cls-5" x1="106.65" y1="1161.71" x2="106.65" y2="1160.13"/><line class="cls-5" x1="109.53" y1="1161.71" x2="109.53" y2="1160.13"/><line class="cls-5" x1="123.93" y1="1164.88" x2="123.93" y2="1160.13"/><line class="cls-5" x1="152.73" y1="1169.62" x2="152.73" y2="1160.13"/><line class="cls-5" x1="135.45" y1="1166.46" x2="135.45" y2="1160.13"/><line class="cls-5" x1="126.81" y1="1164.88" x2="126.81" y2="1160.13"/><line class="cls-5" x1="112.41" y1="1161.71" x2="112.41" y2="1160.13"/><line class="cls-5" x1="138.33" y1="1166.46" x2="138.33" y2="1160.13"/><line class="cls-5" x1="118.17" y1="1163.29" x2="118.17" y2="1160.13"/><line class="cls-5" x1="146.97" y1="1168.04" x2="146.97" y2="1160.13"/><line class="cls-5" x1="167.12" y1="1175.94" x2="167.12" y2="1160.13"/><line class="cls-5" x1="155.61" y1="1169.62" x2="155.61" y2="1160.13"/><line class="cls-5" x1="115.29" y1="1161.71" x2="115.29" y2="1160.13"/><line class="cls-5" x1="141.21" y1="1166.46" x2="141.21" y2="1160.13"/><line class="cls-5" x1="92.25" y1="1161.71" x2="92.25" y2="1160.13"/><line class="cls-5" x1="158.49" y1="1169.62" x2="158.49" y2="1160.13"/><line class="cls-5" x1="129.69" y1="1164.88" x2="129.69" y2="1160.13"/><line class="cls-5" x1="144.09" y1="1166.46" x2="144.09" y2="1160.13"/><line class="cls-5" x1="164.24" y1="1172.78" x2="164.24" y2="1160.13"/></g><g><line class="cls-5" x1="51.93" y1="1185.43" x2="51.93" y2="1183.85"/><line class="cls-5" x1="170" y1="1224.97" x2="170" y2="1183.85"/><line class="cls-5" x1="109.53" y1="1188.6" x2="109.53" y2="1183.85"/><line class="cls-5" x1="112.41" y1="1188.6" x2="112.41" y2="1183.85"/><line class="cls-5" x1="132.57" y1="1190.18" x2="132.57" y2="1183.85"/><line class="cls-5" x1="54.81" y1="1185.43" x2="54.81" y2="1183.85"/><line class="cls-5" x1="135.45" y1="1190.18" x2="135.45" y2="1183.85"/><line class="cls-5" x1="57.69" y1="1185.43" x2="57.69" y2="1183.85"/><line class="cls-5" x1="60.57" y1="1185.43" x2="60.57" y2="1183.85"/><line class="cls-5" x1="138.33" y1="1190.18" x2="138.33" y2="1183.85"/><line class="cls-5" x1="63.45" y1="1185.43" x2="63.45" y2="1183.85"/><line class="cls-5" x1="115.29" y1="1188.6" x2="115.29" y2="1183.85"/><line class="cls-5" x1="118.17" y1="1188.6" x2="118.17" y2="1183.85"/><line class="cls-5" x1="121.05" y1="1188.6" x2="121.05" y2="1183.85"/><line class="cls-5" x1="66.33" y1="1185.43" x2="66.33" y2="1183.85"/><line class="cls-5" x1="167.12" y1="1199.66" x2="167.12" y2="1183.85"/><line class="cls-5" x1="161.37" y1="1198.08" x2="161.37" y2="1183.85"/><line class="cls-5" x1="123.93" y1="1188.6" x2="123.93" y2="1183.85"/><line class="cls-5" x1="69.21" y1="1185.43" x2="69.21" y2="1183.85"/><line class="cls-5" x1="141.21" y1="1190.18" x2="141.21" y2="1183.85"/><line class="cls-5" x1="72.09" y1="1185.43" x2="72.09" y2="1183.85"/><line class="cls-5" x1="74.97" y1="1185.43" x2="74.97" y2="1183.85"/><line class="cls-5" x1="144.09" y1="1190.18" x2="144.09" y2="1183.85"/><line class="cls-5" x1="77.85" y1="1185.43" x2="77.85" y2="1183.85"/><line class="cls-5" x1="152.73" y1="1193.34" x2="152.73" y2="1183.85"/><line class="cls-5" x1="80.73" y1="1185.43" x2="80.73" y2="1183.85"/><line class="cls-5" x1="83.61" y1="1185.43" x2="83.61" y2="1183.85"/><line class="cls-5" x1="86.49" y1="1185.43" x2="86.49" y2="1183.85"/><line class="cls-5" x1="146.97" y1="1190.18" x2="146.97" y2="1183.85"/><line class="cls-5" x1="164.24" y1="1198.08" x2="164.24" y2="1183.85"/><line class="cls-5" x1="155.61" y1="1193.34" x2="155.61" y2="1183.85"/><line class="cls-5" x1="89.37" y1="1185.43" x2="89.37" y2="1183.85"/><line class="cls-5" x1="92.25" y1="1185.43" x2="92.25" y2="1183.85"/><line class="cls-5" x1="95.13" y1="1185.43" x2="95.13" y2="1183.85"/><line class="cls-5" x1="149.85" y1="1190.18" x2="149.85" y2="1183.85"/><line class="cls-5" x1="98.01" y1="1185.43" x2="98.01" y2="1183.85"/><line class="cls-5" x1="100.89" y1="1185.43" x2="100.89" y2="1183.85"/><line class="cls-5" x1="103.77" y1="1185.43" x2="103.77" y2="1183.85"/><line class="cls-5" x1="106.65" y1="1187.02" x2="106.65" y2="1183.85"/><line class="cls-5" x1="126.81" y1="1188.6" x2="126.81" y2="1183.85"/><line class="cls-5" x1="49.05" y1="1185.43" x2="49.05" y2="1183.85"/><line class="cls-5" x1="129.69" y1="1188.6" x2="129.69" y2="1183.85"/><line class="cls-5" x1="158.49" y1="1193.34" x2="158.49" y2="1183.85"/></g><g><line class="cls-5" x1="109.53" y1="1209.15" x2="109.53" y2="1207.57"/><line class="cls-5" x1="152.73" y1="1213.9" x2="152.73" y2="1207.57"/><line class="cls-5" x1="158.49" y1="1215.48" x2="158.49" y2="1207.57"/><line class="cls-5" x1="112.41" y1="1209.15" x2="112.41" y2="1207.57"/><line class="cls-5" x1="115.29" y1="1209.15" x2="115.29" y2="1207.57"/><line class="cls-5" x1="118.17" y1="1209.15" x2="118.17" y2="1207.57"/><line class="cls-5" x1="164.24" y1="1217.06" x2="164.24" y2="1207.57"/><line class="cls-5" x1="121.05" y1="1209.15" x2="121.05" y2="1207.57"/><line class="cls-5" x1="161.37" y1="1215.48" x2="161.37" y2="1207.57"/><line class="cls-5" x1="123.93" y1="1209.15" x2="123.93" y2="1207.57"/><line class="cls-5" x1="126.81" y1="1209.15" x2="126.81" y2="1207.57"/><line class="cls-5" x1="155.61" y1="1213.9" x2="155.61" y2="1207.57"/><line class="cls-5" x1="129.69" y1="1209.15" x2="129.69" y2="1207.57"/><line class="cls-5" x1="167.12" y1="1221.8" x2="167.12" y2="1207.57"/><line class="cls-5" x1="132.57" y1="1209.15" x2="132.57" y2="1207.57"/><line class="cls-5" x1="135.45" y1="1209.15" x2="135.45" y2="1207.57"/><line class="cls-5" x1="138.33" y1="1209.15" x2="138.33" y2="1207.57"/><line class="cls-5" x1="144.09" y1="1212.32" x2="144.09" y2="1207.57"/><line class="cls-5" x1="141.21" y1="1209.15" x2="141.21" y2="1207.57"/><line class="cls-5" x1="106.65" y1="1209.15" x2="106.65" y2="1207.57"/><line class="cls-5" x1="170" y1="1228.13" x2="170" y2="1207.57"/><line class="cls-5" x1="146.97" y1="1212.32" x2="146.97" y2="1207.57"/><line class="cls-5" x1="149.85" y1="1212.32" x2="149.85" y2="1207.57"/></g><g><line class="cls-5" x1="138.33" y1="1240.78" x2="138.33" y2="1231.29"/><line class="cls-5" x1="141.21" y1="1240.78" x2="141.21" y2="1231.29"/><line class="cls-5" x1="66.33" y1="1232.87" x2="66.33" y2="1231.29"/><line class="cls-5" x1="129.69" y1="1239.2" x2="129.69" y2="1231.29"/><line class="cls-5" x1="86.49" y1="1236.03" x2="86.49" y2="1231.29"/><line class="cls-5" x1="89.37" y1="1236.03" x2="89.37" y2="1231.29"/><line class="cls-5" x1="69.21" y1="1232.87" x2="69.21" y2="1231.29"/><line class="cls-5" x1="164.24" y1="1245.52" x2="164.24" y2="1231.29"/><line class="cls-5" x1="103.77" y1="1237.62" x2="103.77" y2="1231.29"/><line class="cls-5" x1="72.09" y1="1232.87" x2="72.09" y2="1231.29"/><line class="cls-5" x1="74.97" y1="1232.87" x2="74.97" y2="1231.29"/><line class="cls-5" x1="106.65" y1="1237.62" x2="106.65" y2="1231.29"/><line class="cls-5" x1="109.53" y1="1237.62" x2="109.53" y2="1231.29"/><line class="cls-5" x1="77.85" y1="1232.87" x2="77.85" y2="1231.29"/><line class="cls-5" x1="158.49" y1="1242.36" x2="158.49" y2="1231.29"/><line class="cls-5" x1="144.09" y1="1240.78" x2="144.09" y2="1231.29"/><line class="cls-5" x1="112.41" y1="1237.62" x2="112.41" y2="1231.29"/><line class="cls-5" x1="146.97" y1="1240.78" x2="146.97" y2="1231.29"/><line class="cls-5" x1="80.73" y1="1232.87" x2="80.73" y2="1231.29"/><line class="cls-5" x1="115.29" y1="1237.62" x2="115.29" y2="1231.29"/><line class="cls-5" x1="149.85" y1="1240.78" x2="149.85" y2="1231.29"/><line class="cls-5" x1="118.17" y1="1237.62" x2="118.17" y2="1231.29"/><line class="cls-5" x1="121.05" y1="1237.62" x2="121.05" y2="1231.29"/><line class="cls-5" x1="123.93" y1="1237.62" x2="123.93" y2="1231.29"/><line class="cls-5" x1="167.12" y1="1245.52" x2="167.12" y2="1231.29"/><line class="cls-5" x1="132.57" y1="1239.2" x2="132.57" y2="1231.29"/><line class="cls-5" x1="83.61" y1="1232.87" x2="83.61" y2="1231.29"/><line class="cls-5" x1="63.45" y1="1232.87" x2="63.45" y2="1231.29"/><line class="cls-5" x1="126.81" y1="1237.62" x2="126.81" y2="1231.29"/><line class="cls-5" x1="170" y1="1258.17" x2="170" y2="1231.29"/><line class="cls-5" x1="92.25" y1="1236.03" x2="92.25" y2="1231.29"/><line class="cls-5" x1="95.13" y1="1236.03" x2="95.13" y2="1231.29"/><line class="cls-5" x1="152.73" y1="1240.78" x2="152.73" y2="1231.29"/><line class="cls-5" x1="135.45" y1="1239.2" x2="135.45" y2="1231.29"/><line class="cls-5" x1="98.01" y1="1236.03" x2="98.01" y2="1231.29"/><line class="cls-5" x1="155.61" y1="1240.78" x2="155.61" y2="1231.29"/><line class="cls-5" x1="161.37" y1="1243.94" x2="161.37" y2="1231.29"/><line class="cls-5" x1="100.89" y1="1236.03" x2="100.89" y2="1231.29"/></g><g><line class="cls-5" x1="146.97" y1="1256.59" x2="146.97" y2="1255.01"/><line class="cls-5" x1="149.85" y1="1256.59" x2="149.85" y2="1255.01"/><line class="cls-5" x1="161.37" y1="1258.17" x2="161.37" y2="1255.01"/><line class="cls-5" x1="152.73" y1="1256.59" x2="152.73" y2="1255.01"/><line class="cls-5" x1="155.61" y1="1256.59" x2="155.61" y2="1255.01"/><line class="cls-5" x1="158.49" y1="1256.59" x2="158.49" y2="1255.01"/><line class="cls-5" x1="164.24" y1="1261.33" x2="164.24" y2="1255.01"/><line class="cls-5" x1="167.12" y1="1261.33" x2="167.12" y2="1255.01"/><line class="cls-5" x1="144.09" y1="1256.59" x2="144.09" y2="1255.01"/><line class="cls-5" x1="170" y1="1264.5" x2="170" y2="1255.01"/></g><g><line class="cls-5" x1="115.29" y1="1326.17" x2="115.29" y2="1323.01"/><line class="cls-5" x1="126.81" y1="1329.33" x2="126.81" y2="1323.01"/><line class="cls-5" x1="129.69" y1="1329.33" x2="129.69" y2="1323.01"/><line class="cls-5" x1="112.41" y1="1324.59" x2="112.41" y2="1323.01"/><line class="cls-5" x1="141.21" y1="1334.08" x2="141.21" y2="1323.01"/><line class="cls-5" x1="155.61" y1="1335.66" x2="155.61" y2="1323.01"/><line class="cls-5" x1="109.53" y1="1324.59" x2="109.53" y2="1323.01"/><line class="cls-5" x1="167.12" y1="1340.4" x2="167.12" y2="1323.01"/><line class="cls-5" x1="144.09" y1="1334.08" x2="144.09" y2="1323.01"/><line class="cls-5" x1="118.17" y1="1326.17" x2="118.17" y2="1323.01"/><line class="cls-5" x1="132.57" y1="1329.33" x2="132.57" y2="1323.01"/><line class="cls-5" x1="135.45" y1="1330.91" x2="135.45" y2="1323.01"/><line class="cls-5" x1="146.97" y1="1334.08" x2="146.97" y2="1323.01"/><line class="cls-5" x1="149.85" y1="1334.08" x2="149.85" y2="1323.01"/><line class="cls-5" x1="123.93" y1="1327.75" x2="123.93" y2="1323.01"/><line class="cls-5" x1="121.05" y1="1326.17" x2="121.05" y2="1323.01"/><line class="cls-5" x1="138.33" y1="1330.91" x2="138.33" y2="1323.01"/><line class="cls-5" x1="158.49" y1="1337.24" x2="158.49" y2="1323.01"/><line class="cls-5" x1="161.37" y1="1337.24" x2="161.37" y2="1323.01"/><line class="cls-5" x1="152.73" y1="1334.08" x2="152.73" y2="1323.01"/><line class="cls-5" x1="164.24" y1="1337.24" x2="164.24" y2="1323.01"/><line class="cls-5" x1="170" y1="1343.56" x2="170" y2="1323.01"/></g><g><line class="cls-5" x1="164.24" y1="1359.38" x2="164.24" y2="1346.73"/><line class="cls-5" x1="167.12" y1="1360.96" x2="167.12" y2="1346.73"/><line class="cls-5" x1="149.85" y1="1348.31" x2="149.85" y2="1346.73"/><line class="cls-5" x1="170" y1="1362.54" x2="170" y2="1346.73"/><line class="cls-5" x1="152.73" y1="1349.89" x2="152.73" y2="1346.73"/><line class="cls-5" x1="155.61" y1="1353.05" x2="155.61" y2="1346.73"/><line class="cls-5" x1="158.49" y1="1354.63" x2="158.49" y2="1346.73"/><line class="cls-5" x1="161.37" y1="1357.8" x2="161.37" y2="1346.73"/></g><g><line class="cls-5" x1="167.12" y1="1395.75" x2="167.12" y2="1394.17"/><line class="cls-5" x1="170" y1="1430.54" x2="170" y2="1394.17"/></g><g><line class="cls-2" x1="171" y1="233.49" x2="26.01" y2="233.49"/><line class="cls-2" x1="171" y1="1631.36" x2="26.01" y2="1631.36"/><line class="cls-2" x1="171" y1="802.76" x2="26.01" y2="802.76"/><line class="cls-2" x1="171" y1="304.65" x2="26.01" y2="304.65"/><line class="cls-2" x1="171" y1="116.47" x2="26.01" y2="116.47"/><line class="cls-2" x1="171" y1="613" x2="26.01" y2="613"/><line class="cls-2" x1="171" y1="352.09" x2="26.01" y2="352.09"/><line class="cls-2" x1="171" y1="375.81" x2="26.01" y2="375.81"/><line class="cls-2" x1="171" y1="518.13" x2="26.01" y2="518.13"/><line class="cls-2" x1="171" y1="1017.82" x2="26.01" y2="1017.82"/><line class="cls-2" x1="171" y1="731.6" x2="26.01" y2="731.6"/><line class="cls-2" x1="171" y1="470.68" x2="26.01" y2="470.68"/><line class="cls-2" x1="171" y1="875.5" x2="26.01" y2="875.5"/><line class="cls-2" x1="171" y1="84.85" x2="26.01" y2="84.85"/><line class="cls-2" x1="171" y1="211.35" x2="26.01" y2="211.35"/><line class="cls-2" x1="171" y1="1112.7" x2="26.01" y2="1112.7"/><line class="cls-2" x1="171" y1="163.91" x2="26.01" y2="163.91"/><line class="cls-2" x1="171" y1="399.53" x2="26.01" y2="399.53"/><line class="cls-2" x1="171" y1="423.25" x2="26.01" y2="423.25"/><line class="cls-2" x1="171" y1="446.97" x2="26.01" y2="446.97"/><line class="cls-2" x1="171" y1="494.4" x2="26.01" y2="494.4"/><line class="cls-2" x1="171" y1="589.28" x2="26.01" y2="589.28"/><line class="cls-2" x1="171" y1="660.44" x2="26.01" y2="660.44"/><line class="cls-2" x1="171" y1="684.16" x2="26.01" y2="684.16"/><line class="cls-2" x1="171" y1="707.88" x2="26.01" y2="707.88"/><line class="cls-2" x1="171" y1="1278.73" x2="26.01" y2="1278.73"/><line class="cls-2" x1="171" y1="1299.29" x2="26.01" y2="1299.29"/><line class="cls-2" x1="171" y1="187.63" x2="26.01" y2="187.63"/><line class="cls-2" x1="171" y1="257.21" x2="26.01" y2="257.21"/><line class="cls-2" x1="171" y1="280.93" x2="26.01" y2="280.93"/><line class="cls-2" x1="171" y1="328.37" x2="26.01" y2="328.37"/><line class="cls-2" x1="171" y1="541.84" x2="26.01" y2="541.84"/><line class="cls-2" x1="171" y1="565.56" x2="26.01" y2="565.56"/><line class="cls-2" x1="171" y1="636.72" x2="26.01" y2="636.72"/><line class="cls-2" x1="171" y1="755.32" x2="26.01" y2="755.32"/><line class="cls-2" x1="171" y1="779.04" x2="26.01" y2="779.04"/><line class="cls-2" x1="171" y1="826.48" x2="26.01" y2="826.48"/><line class="cls-2" x1="171" y1="848.62" x2="26.01" y2="848.62"/><line class="cls-2" x1="171" y1="899.22" x2="26.01" y2="899.22"/><line class="cls-2" x1="171" y1="922.94" x2="26.01" y2="922.94"/><line class="cls-2" x1="171" y1="946.66" x2="26.01" y2="946.66"/><line class="cls-2" x1="171" y1="970.38" x2="26.01" y2="970.38"/><line class="cls-2" x1="171" y1="994.1" x2="26.01" y2="994.1"/><line class="cls-2" x1="171" y1="1041.54" x2="26.01" y2="1041.54"/><line class="cls-2" x1="171" y1="1065.25" x2="26.01" y2="1065.25"/><line class="cls-2" x1="171" y1="1088.98" x2="26.01" y2="1088.98"/><line class="cls-2" x1="171" y1="1136.41" x2="26.01" y2="1136.41"/><line class="cls-2" x1="171" y1="1160.13" x2="26.01" y2="1160.13"/><line class="cls-2" x1="171" y1="1183.85" x2="26.01" y2="1183.85"/><line class="cls-2" x1="171" y1="1207.57" x2="26.01" y2="1207.57"/><line class="cls-2" x1="171" y1="1231.29" x2="26.01" y2="1231.29"/><line class="cls-2" x1="171" y1="1255.01" x2="26.01" y2="1255.01"/><line class="cls-2" x1="171" y1="1323.01" x2="26.01" y2="1323.01"/><line class="cls-2" x1="171" y1="1346.73" x2="26.01" y2="1346.73"/><line class="cls-2" x1="171" y1="1394.17" x2="26.01" y2="1394.17"/><line class="cls-2" x1="171" y1="1441.61" x2="26.01" y2="1441.61"/><line class="cls-2" x1="171" y1="1489.04" x2="26.01" y2="1489.04"/><line class="cls-2" x1="171" y1="1536.48" x2="26.01" y2="1536.48"/><line class="cls-2" x1="171" y1="1583.92" x2="26.01" y2="1583.92"/></g><g><line class="cls-4" x1="198.63" y1="1515.86" x2="198.63" y2="1512.69"/><line class="cls-4" x1="195.75" y1="1517.44" x2="195.75" y2="1512.69"/><line class="cls-4" x1="201.51" y1="1514.27" x2="201.51" y2="1512.69"/><line class="cls-4" x1="189.99" y1="1522.18" x2="189.99" y2="1512.69"/><line class="cls-4" x1="204.39" y1="1514.27" x2="204.39" y2="1512.69"/><line class="cls-4" x1="192.87" y1="1517.44" x2="192.87" y2="1512.69"/></g><g><line class="cls-4" x1="198.63" y1="565.66" x2="198.63" y2="564.08"/><line class="cls-4" x1="195.75" y1="565.66" x2="195.75" y2="564.08"/><line class="cls-4" x1="189.99" y1="568.82" x2="189.99" y2="564.08"/><line class="cls-4" x1="201.51" y1="565.66" x2="201.51" y2="564.08"/><line class="cls-4" x1="192.87" y1="567.24" x2="192.87" y2="564.08"/></g><g><line class="cls-4" x1="230.31" y1="707.95" x2="230.31" y2="706.37"/><line class="cls-4" x1="227.43" y1="707.95" x2="227.43" y2="706.37"/><line class="cls-4" x1="221.67" y1="709.53" x2="221.67" y2="706.37"/><line class="cls-4" x1="224.55" y1="707.95" x2="224.55" y2="706.37"/><line class="cls-4" x1="210.15" y1="711.11" x2="210.15" y2="706.37"/><line class="cls-4" x1="218.79" y1="709.53" x2="218.79" y2="706.37"/><line class="cls-4" x1="215.91" y1="709.53" x2="215.91" y2="706.37"/><line class="cls-4" x1="195.75" y1="712.7" x2="195.75" y2="706.37"/><line class="cls-4" x1="207.27" y1="711.11" x2="207.27" y2="706.37"/><line class="cls-4" x1="233.19" y1="707.95" x2="233.19" y2="706.37"/><line class="cls-4" x1="204.39" y1="711.11" x2="204.39" y2="706.37"/><line class="cls-4" x1="201.51" y1="711.11" x2="201.51" y2="706.37"/><line class="cls-4" x1="192.87" y1="712.7" x2="192.87" y2="706.37"/><line class="cls-4" x1="189.99" y1="712.7" x2="189.99" y2="706.37"/><line class="cls-4" x1="198.63" y1="711.11" x2="198.63" y2="706.37"/><line class="cls-4" x1="213.03" y1="709.53" x2="213.03" y2="706.37"/></g><g><line class="cls-4" x1="201.51" y1="850.25" x2="201.51" y2="848.66"/><line class="cls-4" x1="189.99" y1="853.41" x2="189.99" y2="848.66"/><line class="cls-4" x1="195.75" y1="851.83" x2="195.75" y2="848.66"/><line class="cls-4" x1="198.63" y1="850.25" x2="198.63" y2="848.66"/><line class="cls-4" x1="192.87" y1="851.83" x2="192.87" y2="848.66"/><line class="cls-4" x1="204.39" y1="850.25" x2="204.39" y2="848.66"/></g><g><line class="cls-4" x1="198.63" y1="518.23" x2="198.63" y2="516.65"/><line class="cls-4" x1="189.99" y1="522.97" x2="189.99" y2="516.65"/><line class="cls-4" x1="195.75" y1="518.23" x2="195.75" y2="516.65"/><line class="cls-4" x1="192.87" y1="518.23" x2="192.87" y2="516.65"/><line class="cls-4" x1="201.51" y1="518.23" x2="201.51" y2="516.65"/></g><g><line class="cls-4" x1="189.99" y1="47.09" x2="189.99" y2="43.92"/><line class="cls-4" x1="192.87" y1="45.5" x2="192.87" y2="43.92"/></g><g><line class="cls-4" x1="210.15" y1="94.52" x2="210.15" y2="91.35"/><line class="cls-4" x1="198.63" y1="96.1" x2="198.63" y2="91.35"/><line class="cls-4" x1="195.75" y1="96.1" x2="195.75" y2="91.35"/><line class="cls-4" x1="213.03" y1="92.94" x2="213.03" y2="91.35"/><line class="cls-4" x1="207.27" y1="94.52" x2="207.27" y2="91.35"/><line class="cls-4" x1="192.87" y1="96.1" x2="192.87" y2="91.35"/><line class="cls-4" x1="204.39" y1="94.52" x2="204.39" y2="91.35"/><line class="cls-4" x1="189.99" y1="96.1" x2="189.99" y2="91.35"/><line class="cls-4" x1="201.51" y1="94.52" x2="201.51" y2="91.35"/></g><g><line class="cls-4" x1="192.87" y1="236.81" x2="192.87" y2="232.07"/><line class="cls-4" x1="204.39" y1="233.65" x2="204.39" y2="232.07"/><line class="cls-4" x1="201.51" y1="233.65" x2="201.51" y2="232.07"/><line class="cls-4" x1="198.63" y1="233.65" x2="198.63" y2="232.07"/><line class="cls-4" x1="195.75" y1="233.65" x2="195.75" y2="232.07"/><line class="cls-4" x1="189.99" y1="236.81" x2="189.99" y2="232.07"/><line class="cls-4" x1="207.27" y1="233.65" x2="207.27" y2="232.07"/></g><g><line class="cls-4" x1="198.63" y1="472.38" x2="198.63" y2="469.22"/><line class="cls-4" x1="201.51" y1="470.8" x2="201.51" y2="469.22"/><line class="cls-4" x1="192.87" y1="473.96" x2="192.87" y2="469.22"/><line class="cls-4" x1="195.75" y1="472.38" x2="195.75" y2="469.22"/><line class="cls-4" x1="189.99" y1="478.7" x2="189.99" y2="469.22"/></g><g><line class="cls-4" x1="233.19" y1="938.78" x2="233.19" y2="937.2"/><line class="cls-4" x1="227.43" y1="940.36" x2="227.43" y2="937.2"/><line class="cls-4" x1="230.31" y1="938.78" x2="230.31" y2="937.2"/><line class="cls-4" x1="204.39" y1="943.53" x2="204.39" y2="937.2"/><line class="cls-4" x1="224.55" y1="940.36" x2="224.55" y2="937.2"/><line class="cls-4" x1="215.91" y1="941.94" x2="215.91" y2="937.2"/><line class="cls-4" x1="221.67" y1="940.36" x2="221.67" y2="937.2"/><line class="cls-4" x1="195.75" y1="945.11" x2="195.75" y2="937.2"/><line class="cls-4" x1="192.87" y1="945.11" x2="192.87" y2="937.2"/><line class="cls-4" x1="189.99" y1="945.11" x2="189.99" y2="937.2"/><line class="cls-4" x1="213.03" y1="941.94" x2="213.03" y2="937.2"/><line class="cls-4" x1="218.79" y1="940.36" x2="218.79" y2="937.2"/><line class="cls-4" x1="236.07" y1="938.78" x2="236.07" y2="937.2"/><line class="cls-4" x1="210.15" y1="941.94" x2="210.15" y2="937.2"/><line class="cls-4" x1="201.51" y1="943.53" x2="201.51" y2="937.2"/><line class="cls-4" x1="207.27" y1="941.94" x2="207.27" y2="937.2"/><line class="cls-4" x1="198.63" y1="943.53" x2="198.63" y2="937.2"/></g><g><line class="cls-4" x1="201.51" y1="189.38" x2="201.51" y2="184.63"/><line class="cls-4" x1="207.27" y1="186.22" x2="207.27" y2="184.63"/><line class="cls-4" x1="204.39" y1="186.22" x2="204.39" y2="184.63"/><line class="cls-4" x1="210.15" y1="186.22" x2="210.15" y2="184.63"/><line class="cls-4" x1="198.63" y1="189.38" x2="198.63" y2="184.63"/><line class="cls-4" x1="195.75" y1="189.38" x2="195.75" y2="184.63"/><line class="cls-4" x1="192.87" y1="189.38" x2="192.87" y2="184.63"/><line class="cls-4" x1="189.99" y1="190.96" x2="189.99" y2="184.63"/></g><g><line class="cls-4" x1="210.15" y1="756.96" x2="210.15" y2="753.8"/><line class="cls-4" x1="204.39" y1="758.55" x2="204.39" y2="753.8"/><line class="cls-4" x1="215.91" y1="755.38" x2="215.91" y2="753.8"/><line class="cls-4" x1="201.51" y1="758.55" x2="201.51" y2="753.8"/><line class="cls-4" x1="198.63" y1="758.55" x2="198.63" y2="753.8"/><line class="cls-4" x1="195.75" y1="760.13" x2="195.75" y2="753.8"/><line class="cls-4" x1="192.87" y1="761.71" x2="192.87" y2="753.8"/><line class="cls-4" x1="213.03" y1="755.38" x2="213.03" y2="753.8"/><line class="cls-4" x1="218.79" y1="755.38" x2="218.79" y2="753.8"/><line class="cls-4" x1="207.27" y1="756.96" x2="207.27" y2="753.8"/><line class="cls-4" x1="189.99" y1="761.71" x2="189.99" y2="753.8"/></g><g><line class="cls-4" x1="247.59" y1="1229.69" x2="247.59" y2="1228.11"/><line class="cls-4" x1="233.19" y1="1231.27" x2="233.19" y2="1228.11"/><line class="cls-4" x1="201.51" y1="1236.02" x2="201.51" y2="1228.11"/><line class="cls-4" x1="218.79" y1="1232.85" x2="218.79" y2="1228.11"/><line class="cls-4" x1="244.71" y1="1229.69" x2="244.71" y2="1228.11"/><line class="cls-4" x1="241.83" y1="1229.69" x2="241.83" y2="1228.11"/><line class="cls-4" x1="215.91" y1="1232.85" x2="215.91" y2="1228.11"/><line class="cls-4" x1="230.31" y1="1231.27" x2="230.31" y2="1228.11"/><line class="cls-4" x1="204.39" y1="1234.43" x2="204.39" y2="1228.11"/><line class="cls-4" x1="238.95" y1="1229.69" x2="238.95" y2="1228.11"/><line class="cls-4" x1="227.43" y1="1231.27" x2="227.43" y2="1228.11"/><line class="cls-4" x1="213.03" y1="1232.85" x2="213.03" y2="1228.11"/><line class="cls-4" x1="236.07" y1="1229.69" x2="236.07" y2="1228.11"/><line class="cls-4" x1="210.15" y1="1232.85" x2="210.15" y2="1228.11"/><line class="cls-4" x1="250.47" y1="1229.69" x2="250.47" y2="1228.11"/><line class="cls-4" x1="198.63" y1="1236.02" x2="198.63" y2="1228.11"/><line class="cls-4" x1="207.27" y1="1232.85" x2="207.27" y2="1228.11"/><line class="cls-4" x1="189.99" y1="1239.18" x2="189.99" y2="1228.11"/><line class="cls-4" x1="192.87" y1="1237.6" x2="192.87" y2="1228.11"/><line class="cls-4" x1="195.75" y1="1236.02" x2="195.75" y2="1228.11"/><line class="cls-4" x1="224.55" y1="1231.27" x2="224.55" y2="1228.11"/><line class="cls-4" x1="221.67" y1="1231.27" x2="221.67" y2="1228.11"/></g><g><line class="cls-4" x1="207.27" y1="1612.3" x2="207.27" y2="1607.55"/><line class="cls-4" x1="215.91" y1="1610.72" x2="215.91" y2="1607.55"/><line class="cls-4" x1="204.39" y1="1612.3" x2="204.39" y2="1607.55"/><line class="cls-4" x1="236.07" y1="1609.14" x2="236.07" y2="1607.55"/><line class="cls-4" x1="189.99" y1="1613.88" x2="189.99" y2="1607.55"/><line class="cls-4" x1="201.51" y1="1612.3" x2="201.51" y2="1607.55"/><line class="cls-4" x1="233.19" y1="1609.14" x2="233.19" y2="1607.55"/><line class="cls-4" x1="198.63" y1="1612.3" x2="198.63" y2="1607.55"/><line class="cls-4" x1="195.75" y1="1612.3" x2="195.75" y2="1607.55"/><line class="cls-4" x1="230.31" y1="1609.14" x2="230.31" y2="1607.55"/><line class="cls-4" x1="227.43" y1="1609.14" x2="227.43" y2="1607.55"/><line class="cls-4" x1="192.87" y1="1612.3" x2="192.87" y2="1607.55"/><line class="cls-4" x1="224.55" y1="1609.14" x2="224.55" y2="1607.55"/><line class="cls-4" x1="221.67" y1="1609.14" x2="221.67" y2="1607.55"/><line class="cls-4" x1="218.79" y1="1609.14" x2="218.79" y2="1607.55"/><line class="cls-4" x1="213.03" y1="1610.72" x2="213.03" y2="1607.55"/><line class="cls-4" x1="238.95" y1="1609.14" x2="238.95" y2="1607.55"/><line class="cls-4" x1="210.15" y1="1610.72" x2="210.15" y2="1607.55"/></g><g><line class="cls-4" x1="233.19" y1="1656.57" x2="233.19" y2="1654.99"/><line class="cls-4" x1="218.79" y1="1659.73" x2="218.79" y2="1654.99"/><line class="cls-4" x1="215.91" y1="1659.73" x2="215.91" y2="1654.99"/><line class="cls-4" x1="195.75" y1="1662.89" x2="195.75" y2="1654.99"/><line class="cls-4" x1="192.87" y1="1662.89" x2="192.87" y2="1654.99"/><line class="cls-4" x1="230.31" y1="1656.57" x2="230.31" y2="1654.99"/><line class="cls-4" x1="227.43" y1="1658.15" x2="227.43" y2="1654.99"/><line class="cls-4" x1="224.55" y1="1658.15" x2="224.55" y2="1654.99"/><line class="cls-4" x1="213.03" y1="1659.73" x2="213.03" y2="1654.99"/><line class="cls-4" x1="204.39" y1="1661.31" x2="204.39" y2="1654.99"/><line class="cls-4" x1="201.51" y1="1661.31" x2="201.51" y2="1654.99"/><line class="cls-4" x1="210.15" y1="1659.73" x2="210.15" y2="1654.99"/><line class="cls-4" x1="236.07" y1="1656.57" x2="236.07" y2="1654.99"/><line class="cls-4" x1="207.27" y1="1659.73" x2="207.27" y2="1654.99"/><line class="cls-4" x1="221.67" y1="1658.15" x2="221.67" y2="1654.99"/><line class="cls-4" x1="198.63" y1="1661.31" x2="198.63" y2="1654.99"/><line class="cls-4" x1="189.99" y1="1662.89" x2="189.99" y2="1654.99"/></g><g><line class="cls-4" x1="207.27" y1="281.08" x2="207.27" y2="279.5"/><line class="cls-4" x1="192.87" y1="285.82" x2="192.87" y2="279.5"/><line class="cls-4" x1="204.39" y1="281.08" x2="204.39" y2="279.5"/><line class="cls-4" x1="189.99" y1="287.4" x2="189.99" y2="279.5"/><line class="cls-4" x1="201.51" y1="281.08" x2="201.51" y2="279.5"/><line class="cls-4" x1="195.75" y1="284.24" x2="195.75" y2="279.5"/><line class="cls-4" x1="198.63" y1="282.66" x2="198.63" y2="279.5"/><line class="cls-4" x1="210.15" y1="281.08" x2="210.15" y2="279.5"/></g><g><line class="cls-4" x1="221.67" y1="328.51" x2="221.67" y2="326.93"/><line class="cls-4" x1="213.03" y1="331.67" x2="213.03" y2="326.93"/><line class="cls-4" x1="201.51" y1="334.83" x2="201.51" y2="326.93"/><line class="cls-4" x1="198.63" y1="334.83" x2="198.63" y2="326.93"/><line class="cls-4" x1="192.87" y1="339.57" x2="192.87" y2="326.93"/><line class="cls-4" x1="218.79" y1="330.09" x2="218.79" y2="326.93"/><line class="cls-4" x1="210.15" y1="331.67" x2="210.15" y2="326.93"/><line class="cls-4" x1="215.91" y1="330.09" x2="215.91" y2="326.93"/><line class="cls-4" x1="189.99" y1="341.15" x2="189.99" y2="326.93"/><line class="cls-4" x1="207.27" y1="331.67" x2="207.27" y2="326.93"/><line class="cls-4" x1="204.39" y1="331.67" x2="204.39" y2="326.93"/><line class="cls-4" x1="195.75" y1="334.83" x2="195.75" y2="326.93"/></g><g><line class="cls-4" x1="247.59" y1="986.21" x2="247.59" y2="984.63"/><line class="cls-4" x1="189.99" y1="994.12" x2="189.99" y2="984.63"/><line class="cls-4" x1="244.71" y1="986.21" x2="244.71" y2="984.63"/><line class="cls-4" x1="233.19" y1="989.38" x2="233.19" y2="984.63"/><line class="cls-4" x1="207.27" y1="990.96" x2="207.27" y2="984.63"/><line class="cls-4" x1="241.83" y1="986.21" x2="241.83" y2="984.63"/><line class="cls-4" x1="204.39" y1="990.96" x2="204.39" y2="984.63"/><line class="cls-4" x1="238.95" y1="986.21" x2="238.95" y2="984.63"/><line class="cls-4" x1="230.31" y1="989.38" x2="230.31" y2="984.63"/><line class="cls-4" x1="227.43" y1="989.38" x2="227.43" y2="984.63"/><line class="cls-4" x1="224.55" y1="989.38" x2="224.55" y2="984.63"/><line class="cls-4" x1="221.67" y1="989.38" x2="221.67" y2="984.63"/><line class="cls-4" x1="198.63" y1="992.54" x2="198.63" y2="984.63"/><line class="cls-4" x1="195.75" y1="992.54" x2="195.75" y2="984.63"/><line class="cls-4" x1="218.79" y1="989.38" x2="218.79" y2="984.63"/><line class="cls-4" x1="236.07" y1="987.79" x2="236.07" y2="984.63"/><line class="cls-4" x1="215.91" y1="989.38" x2="215.91" y2="984.63"/><line class="cls-4" x1="250.47" y1="986.21" x2="250.47" y2="984.63"/><line class="cls-4" x1="213.03" y1="989.38" x2="213.03" y2="984.63"/><line class="cls-4" x1="192.87" y1="992.54" x2="192.87" y2="984.63"/><line class="cls-4" x1="201.51" y1="990.96" x2="201.51" y2="984.63"/><line class="cls-4" x1="210.15" y1="989.38" x2="210.15" y2="984.63"/></g><g><line class="cls-4" x1="189.99" y1="1427.32" x2="189.99" y2="1417.83"/><line class="cls-4" x1="213.03" y1="1422.57" x2="213.03" y2="1417.83"/><line class="cls-4" x1="204.39" y1="1424.16" x2="204.39" y2="1417.83"/><line class="cls-4" x1="210.15" y1="1422.57" x2="210.15" y2="1417.83"/><line class="cls-4" x1="207.27" y1="1422.57" x2="207.27" y2="1417.83"/><line class="cls-4" x1="198.63" y1="1425.74" x2="198.63" y2="1417.83"/><line class="cls-4" x1="215.91" y1="1420.99" x2="215.91" y2="1417.83"/><line class="cls-4" x1="195.75" y1="1425.74" x2="195.75" y2="1417.83"/><line class="cls-4" x1="201.51" y1="1424.16" x2="201.51" y2="1417.83"/><line class="cls-4" x1="218.79" y1="1419.41" x2="218.79" y2="1417.83"/><line class="cls-4" x1="192.87" y1="1425.74" x2="192.87" y2="1417.83"/></g><g><line class="cls-4" x1="213.03" y1="1468.42" x2="213.03" y2="1465.26"/><line class="cls-4" x1="230.31" y1="1466.84" x2="230.31" y2="1465.26"/><line class="cls-4" x1="201.51" y1="1470.01" x2="201.51" y2="1465.26"/><line class="cls-4" x1="227.43" y1="1466.84" x2="227.43" y2="1465.26"/><line class="cls-4" x1="189.99" y1="1473.17" x2="189.99" y2="1465.26"/><line class="cls-4" x1="224.55" y1="1466.84" x2="224.55" y2="1465.26"/><line class="cls-4" x1="198.63" y1="1470.01" x2="198.63" y2="1465.26"/><line class="cls-4" x1="210.15" y1="1468.42" x2="210.15" y2="1465.26"/><line class="cls-4" x1="221.67" y1="1466.84" x2="221.67" y2="1465.26"/><line class="cls-4" x1="218.79" y1="1466.84" x2="218.79" y2="1465.26"/><line class="cls-4" x1="195.75" y1="1470.01" x2="195.75" y2="1465.26"/><line class="cls-4" x1="215.91" y1="1466.84" x2="215.91" y2="1465.26"/><line class="cls-4" x1="233.19" y1="1466.84" x2="233.19" y2="1465.26"/><line class="cls-4" x1="207.27" y1="1468.42" x2="207.27" y2="1465.26"/><line class="cls-4" x1="204.39" y1="1468.42" x2="204.39" y2="1465.26"/><line class="cls-4" x1="192.87" y1="1470.01" x2="192.87" y2="1465.26"/></g><g><line class="cls-4" x1="192.87" y1="1564.87" x2="192.87" y2="1560.12"/><line class="cls-4" x1="210.15" y1="1561.71" x2="210.15" y2="1560.12"/><line class="cls-4" x1="189.99" y1="1566.45" x2="189.99" y2="1560.12"/><line class="cls-4" x1="195.75" y1="1563.29" x2="195.75" y2="1560.12"/><line class="cls-4" x1="207.27" y1="1561.71" x2="207.27" y2="1560.12"/><line class="cls-4" x1="204.39" y1="1561.71" x2="204.39" y2="1560.12"/><line class="cls-4" x1="201.51" y1="1561.71" x2="201.51" y2="1560.12"/><line class="cls-4" x1="198.63" y1="1561.71" x2="198.63" y2="1560.12"/><line class="cls-4" x1="213.03" y1="1561.71" x2="213.03" y2="1560.12"/></g><g><line class="cls-4" x1="204.39" y1="140.37" x2="204.39" y2="137.2"/><line class="cls-4" x1="198.63" y1="141.95" x2="198.63" y2="137.2"/><line class="cls-4" x1="201.51" y1="140.37" x2="201.51" y2="137.2"/><line class="cls-4" x1="215.91" y1="138.79" x2="215.91" y2="137.2"/><line class="cls-4" x1="213.03" y1="138.79" x2="213.03" y2="137.2"/><line class="cls-4" x1="210.15" y1="138.79" x2="210.15" y2="137.2"/><line class="cls-4" x1="195.75" y1="141.95" x2="195.75" y2="137.2"/><line class="cls-4" x1="207.27" y1="138.79" x2="207.27" y2="137.2"/><line class="cls-4" x1="192.87" y1="141.95" x2="192.87" y2="137.2"/><line class="cls-4" x1="218.79" y1="138.79" x2="218.79" y2="137.2"/><line class="cls-4" x1="189.99" y1="141.95" x2="189.99" y2="137.2"/></g><g><line class="cls-4" x1="207.27" y1="379.1" x2="207.27" y2="374.36"/><line class="cls-4" x1="210.15" y1="375.94" x2="210.15" y2="374.36"/><line class="cls-4" x1="204.39" y1="379.1" x2="204.39" y2="374.36"/><line class="cls-4" x1="201.51" y1="379.1" x2="201.51" y2="374.36"/><line class="cls-4" x1="198.63" y1="379.1" x2="198.63" y2="374.36"/><line class="cls-4" x1="195.75" y1="379.1" x2="195.75" y2="374.36"/><line class="cls-4" x1="192.87" y1="379.1" x2="192.87" y2="374.36"/><line class="cls-4" x1="189.99" y1="383.84" x2="189.99" y2="374.36"/><line class="cls-4" x1="213.03" y1="375.94" x2="213.03" y2="374.36"/></g><g><line class="cls-4" x1="198.63" y1="426.53" x2="198.63" y2="421.79"/><line class="cls-4" x1="195.75" y1="426.53" x2="195.75" y2="421.79"/><line class="cls-4" x1="204.39" y1="424.95" x2="204.39" y2="421.79"/><line class="cls-4" x1="213.03" y1="423.37" x2="213.03" y2="421.79"/><line class="cls-4" x1="210.15" y1="423.37" x2="210.15" y2="421.79"/><line class="cls-4" x1="192.87" y1="426.53" x2="192.87" y2="421.79"/><line class="cls-4" x1="201.51" y1="424.95" x2="201.51" y2="421.79"/><line class="cls-4" x1="189.99" y1="426.53" x2="189.99" y2="421.79"/><line class="cls-4" x1="207.27" y1="423.37" x2="207.27" y2="421.79"/><line class="cls-4" x1="215.91" y1="423.37" x2="215.91" y2="421.79"/></g><g><line class="cls-4" x1="192.87" y1="622.58" x2="192.87" y2="611.51"/><line class="cls-4" x1="215.91" y1="616.25" x2="215.91" y2="611.51"/><line class="cls-4" x1="218.79" y1="613.09" x2="218.79" y2="611.51"/><line class="cls-4" x1="201.51" y1="617.83" x2="201.51" y2="611.51"/><line class="cls-4" x1="213.03" y1="616.25" x2="213.03" y2="611.51"/><line class="cls-4" x1="195.75" y1="621" x2="195.75" y2="611.51"/><line class="cls-4" x1="221.67" y1="613.09" x2="221.67" y2="611.51"/><line class="cls-4" x1="198.63" y1="617.83" x2="198.63" y2="611.51"/><line class="cls-4" x1="210.15" y1="616.25" x2="210.15" y2="611.51"/><line class="cls-4" x1="207.27" y1="616.25" x2="207.27" y2="611.51"/><line class="cls-4" x1="189.99" y1="624.16" x2="189.99" y2="611.51"/><line class="cls-4" x1="204.39" y1="616.25" x2="204.39" y2="611.51"/></g><g><line class="cls-4" x1="215.91" y1="663.68" x2="215.91" y2="658.94"/><line class="cls-4" x1="213.03" y1="663.68" x2="213.03" y2="658.94"/><line class="cls-4" x1="236.07" y1="660.52" x2="236.07" y2="658.94"/><line class="cls-4" x1="210.15" y1="663.68" x2="210.15" y2="658.94"/><line class="cls-4" x1="207.27" y1="663.68" x2="207.27" y2="658.94"/><line class="cls-4" x1="192.87" y1="665.27" x2="192.87" y2="658.94"/><line class="cls-4" x1="233.19" y1="660.52" x2="233.19" y2="658.94"/><line class="cls-4" x1="204.39" y1="663.68" x2="204.39" y2="658.94"/><line class="cls-4" x1="201.51" y1="663.68" x2="201.51" y2="658.94"/><line class="cls-4" x1="230.31" y1="660.52" x2="230.31" y2="658.94"/><line class="cls-4" x1="189.99" y1="665.27" x2="189.99" y2="658.94"/><line class="cls-4" x1="227.43" y1="662.1" x2="227.43" y2="658.94"/><line class="cls-4" x1="238.95" y1="660.52" x2="238.95" y2="658.94"/><line class="cls-4" x1="198.63" y1="663.68" x2="198.63" y2="658.94"/><line class="cls-4" x1="224.55" y1="662.1" x2="224.55" y2="658.94"/><line class="cls-4" x1="195.75" y1="663.68" x2="195.75" y2="658.94"/><line class="cls-4" x1="221.67" y1="662.1" x2="221.67" y2="658.94"/><line class="cls-4" x1="218.79" y1="662.1" x2="218.79" y2="658.94"/></g><g><line class="cls-4" x1="192.87" y1="805.98" x2="192.87" y2="801.23"/><line class="cls-4" x1="201.51" y1="804.4" x2="201.51" y2="801.23"/><line class="cls-4" x1="198.63" y1="804.4" x2="198.63" y2="801.23"/><line class="cls-4" x1="189.99" y1="805.98" x2="189.99" y2="801.23"/><line class="cls-4" x1="204.39" y1="802.81" x2="204.39" y2="801.23"/><line class="cls-4" x1="207.27" y1="802.81" x2="207.27" y2="801.23"/><line class="cls-4" x1="195.75" y1="804.4" x2="195.75" y2="801.23"/></g><g><line class="cls-4" x1="218.79" y1="899.26" x2="218.79" y2="896.09"/><line class="cls-4" x1="189.99" y1="902.42" x2="189.99" y2="896.09"/><line class="cls-4" x1="215.91" y1="899.26" x2="215.91" y2="896.09"/><line class="cls-4" x1="221.67" y1="897.68" x2="221.67" y2="896.09"/><line class="cls-4" x1="213.03" y1="899.26" x2="213.03" y2="896.09"/><line class="cls-4" x1="210.15" y1="899.26" x2="210.15" y2="896.09"/><line class="cls-4" x1="207.27" y1="899.26" x2="207.27" y2="896.09"/><line class="cls-4" x1="204.39" y1="899.26" x2="204.39" y2="896.09"/><line class="cls-4" x1="201.51" y1="899.26" x2="201.51" y2="896.09"/><line class="cls-4" x1="195.75" y1="900.84" x2="195.75" y2="896.09"/><line class="cls-4" x1="198.63" y1="899.26" x2="198.63" y2="896.09"/><line class="cls-4" x1="192.87" y1="900.84" x2="192.87" y2="896.09"/></g><g><line class="cls-4" x1="221.67" y1="1038.39" x2="221.67" y2="1032.06"/><line class="cls-4" x1="218.79" y1="1038.39" x2="218.79" y2="1032.06"/><line class="cls-4" x1="256.23" y1="1033.64" x2="256.23" y2="1032.06"/><line class="cls-4" x1="253.35" y1="1033.64" x2="253.35" y2="1032.06"/><line class="cls-4" x1="215.91" y1="1038.39" x2="215.91" y2="1032.06"/><line class="cls-4" x1="247.59" y1="1035.23" x2="247.59" y2="1032.06"/><line class="cls-4" x1="213.03" y1="1038.39" x2="213.03" y2="1032.06"/><line class="cls-4" x1="241.83" y1="1036.81" x2="241.83" y2="1032.06"/><line class="cls-4" x1="250.47" y1="1033.64" x2="250.47" y2="1032.06"/><line class="cls-4" x1="201.51" y1="1039.97" x2="201.51" y2="1032.06"/><line class="cls-4" x1="238.95" y1="1036.81" x2="238.95" y2="1032.06"/><line class="cls-4" x1="236.07" y1="1036.81" x2="236.07" y2="1032.06"/><line class="cls-4" x1="259.11" y1="1033.64" x2="259.11" y2="1032.06"/><line class="cls-4" x1="210.15" y1="1038.39" x2="210.15" y2="1032.06"/><line class="cls-4" x1="207.27" y1="1038.39" x2="207.27" y2="1032.06"/><line class="cls-4" x1="233.19" y1="1036.81" x2="233.19" y2="1032.06"/><line class="cls-4" x1="230.31" y1="1036.81" x2="230.31" y2="1032.06"/><line class="cls-4" x1="198.63" y1="1041.55" x2="198.63" y2="1032.06"/><line class="cls-4" x1="195.75" y1="1041.55" x2="195.75" y2="1032.06"/><line class="cls-4" x1="227.43" y1="1036.81" x2="227.43" y2="1032.06"/><line class="cls-4" x1="224.55" y1="1036.81" x2="224.55" y2="1032.06"/><line class="cls-4" x1="204.39" y1="1038.39" x2="204.39" y2="1032.06"/><line class="cls-4" x1="244.71" y1="1035.23" x2="244.71" y2="1032.06"/><line class="cls-4" x1="189.99" y1="1060.52" x2="189.99" y2="1032.06"/><line class="cls-4" x1="192.87" y1="1051.04" x2="192.87" y2="1032.06"/></g><g><line class="cls-4" x1="238.95" y1="1084.24" x2="238.95" y2="1079.49"/><line class="cls-4" x1="247.59" y1="1082.66" x2="247.59" y2="1079.49"/><line class="cls-4" x1="224.55" y1="1085.82" x2="224.55" y2="1079.49"/><line class="cls-4" x1="195.75" y1="1088.98" x2="195.75" y2="1079.49"/><line class="cls-4" x1="253.35" y1="1081.07" x2="253.35" y2="1079.49"/><line class="cls-4" x1="236.07" y1="1084.24" x2="236.07" y2="1079.49"/><line class="cls-4" x1="233.19" y1="1084.24" x2="233.19" y2="1079.49"/><line class="cls-4" x1="221.67" y1="1085.82" x2="221.67" y2="1079.49"/><line class="cls-4" x1="250.47" y1="1081.07" x2="250.47" y2="1079.49"/><line class="cls-4" x1="244.71" y1="1082.66" x2="244.71" y2="1079.49"/><line class="cls-4" x1="218.79" y1="1085.82" x2="218.79" y2="1079.49"/><line class="cls-4" x1="230.31" y1="1084.24" x2="230.31" y2="1079.49"/><line class="cls-4" x1="204.39" y1="1087.4" x2="204.39" y2="1079.49"/><line class="cls-4" x1="215.91" y1="1085.82" x2="215.91" y2="1079.49"/><line class="cls-4" x1="256.23" y1="1081.07" x2="256.23" y2="1079.49"/><line class="cls-4" x1="213.03" y1="1085.82" x2="213.03" y2="1079.49"/><line class="cls-4" x1="201.51" y1="1087.4" x2="201.51" y2="1079.49"/><line class="cls-4" x1="198.63" y1="1087.4" x2="198.63" y2="1079.49"/><line class="cls-4" x1="210.15" y1="1085.82" x2="210.15" y2="1079.49"/><line class="cls-4" x1="227.43" y1="1084.24" x2="227.43" y2="1079.49"/><line class="cls-4" x1="207.27" y1="1085.82" x2="207.27" y2="1079.49"/><line class="cls-4" x1="192.87" y1="1088.98" x2="192.87" y2="1079.49"/><line class="cls-4" x1="189.99" y1="1096.89" x2="189.99" y2="1079.49"/><line class="cls-4" x1="241.83" y1="1082.66" x2="241.83" y2="1079.49"/></g><g><line class="cls-4" x1="259.11" y1="1131.67" x2="259.11" y2="1126.92"/><line class="cls-4" x1="241.83" y1="1133.25" x2="241.83" y2="1126.92"/><line class="cls-4" x1="238.95" y1="1133.25" x2="238.95" y2="1126.92"/><line class="cls-4" x1="236.07" y1="1133.25" x2="236.07" y2="1126.92"/><line class="cls-4" x1="224.55" y1="1134.83" x2="224.55" y2="1126.92"/><line class="cls-4" x1="267.75" y1="1130.09" x2="267.75" y2="1126.92"/><line class="cls-4" x1="195.75" y1="1139.57" x2="195.75" y2="1126.92"/><line class="cls-4" x1="256.23" y1="1131.67" x2="256.23" y2="1126.92"/><line class="cls-4" x1="233.19" y1="1133.25" x2="233.19" y2="1126.92"/><line class="cls-4" x1="230.31" y1="1133.25" x2="230.31" y2="1126.92"/><line class="cls-4" x1="221.67" y1="1134.83" x2="221.67" y2="1126.92"/><line class="cls-4" x1="264.87" y1="1130.09" x2="264.87" y2="1126.92"/><line class="cls-4" x1="218.79" y1="1134.83" x2="218.79" y2="1126.92"/><line class="cls-4" x1="253.35" y1="1131.67" x2="253.35" y2="1126.92"/><line class="cls-4" x1="215.91" y1="1134.83" x2="215.91" y2="1126.92"/><line class="cls-4" x1="250.47" y1="1131.67" x2="250.47" y2="1126.92"/><line class="cls-4" x1="213.03" y1="1134.83" x2="213.03" y2="1126.92"/><line class="cls-4" x1="227.43" y1="1133.25" x2="227.43" y2="1126.92"/><line class="cls-4" x1="189.99" y1="1147.48" x2="189.99" y2="1126.92"/><line class="cls-4" x1="270.63" y1="1128.51" x2="270.63" y2="1126.92"/><line class="cls-4" x1="192.87" y1="1139.57" x2="192.87" y2="1126.92"/><line class="cls-4" x1="247.59" y1="1131.67" x2="247.59" y2="1126.92"/><line class="cls-4" x1="204.39" y1="1137.99" x2="204.39" y2="1126.92"/><line class="cls-4" x1="210.15" y1="1134.83" x2="210.15" y2="1126.92"/><line class="cls-4" x1="201.51" y1="1137.99" x2="201.51" y2="1126.92"/><line class="cls-4" x1="207.27" y1="1134.83" x2="207.27" y2="1126.92"/><line class="cls-4" x1="261.99" y1="1130.09" x2="261.99" y2="1126.92"/><line class="cls-4" x1="244.71" y1="1131.67" x2="244.71" y2="1126.92"/><line class="cls-4" x1="198.63" y1="1137.99" x2="198.63" y2="1126.92"/></g><g><line class="cls-4" x1="230.31" y1="1183.84" x2="230.31" y2="1179.1"/><line class="cls-4" x1="227.43" y1="1183.84" x2="227.43" y2="1179.1"/><line class="cls-4" x1="201.51" y1="1185.42" x2="201.51" y2="1179.1"/><line class="cls-4" x1="253.35" y1="1180.68" x2="253.35" y2="1179.1"/><line class="cls-4" x1="189.99" y1="1199.65" x2="189.99" y2="1179.1"/><line class="cls-4" x1="224.55" y1="1183.84" x2="224.55" y2="1179.1"/><line class="cls-4" x1="221.67" y1="1183.84" x2="221.67" y2="1179.1"/><line class="cls-4" x1="198.63" y1="1185.42" x2="198.63" y2="1179.1"/><line class="cls-4" x1="250.47" y1="1180.68" x2="250.47" y2="1179.1"/><line class="cls-4" x1="218.79" y1="1183.84" x2="218.79" y2="1179.1"/><line class="cls-4" x1="195.75" y1="1187" x2="195.75" y2="1179.1"/><line class="cls-4" x1="241.83" y1="1182.26" x2="241.83" y2="1179.1"/><line class="cls-4" x1="247.59" y1="1180.68" x2="247.59" y2="1179.1"/><line class="cls-4" x1="238.95" y1="1182.26" x2="238.95" y2="1179.1"/><line class="cls-4" x1="215.91" y1="1183.84" x2="215.91" y2="1179.1"/><line class="cls-4" x1="244.71" y1="1180.68" x2="244.71" y2="1179.1"/><line class="cls-4" x1="213.03" y1="1183.84" x2="213.03" y2="1179.1"/><line class="cls-4" x1="210.15" y1="1183.84" x2="210.15" y2="1179.1"/><line class="cls-4" x1="207.27" y1="1183.84" x2="207.27" y2="1179.1"/><line class="cls-4" x1="256.23" y1="1180.68" x2="256.23" y2="1179.1"/><line class="cls-4" x1="236.07" y1="1182.26" x2="236.07" y2="1179.1"/><line class="cls-4" x1="233.19" y1="1182.26" x2="233.19" y2="1179.1"/><line class="cls-4" x1="192.87" y1="1187" x2="192.87" y2="1179.1"/><line class="cls-4" x1="204.39" y1="1183.84" x2="204.39" y2="1179.1"/></g><g><line class="cls-4" x1="224.55" y1="1277.12" x2="224.55" y2="1275.54"/><line class="cls-4" x1="210.15" y1="1280.28" x2="210.15" y2="1275.54"/><line class="cls-4" x1="207.27" y1="1280.28" x2="207.27" y2="1275.54"/><line class="cls-4" x1="221.67" y1="1277.12" x2="221.67" y2="1275.54"/><line class="cls-4" x1="218.79" y1="1277.12" x2="218.79" y2="1275.54"/><line class="cls-4" x1="198.63" y1="1281.87" x2="198.63" y2="1275.54"/><line class="cls-4" x1="192.87" y1="1283.44" x2="192.87" y2="1275.54"/><line class="cls-4" x1="227.43" y1="1277.12" x2="227.43" y2="1275.54"/><line class="cls-4" x1="215.91" y1="1278.7" x2="215.91" y2="1275.54"/><line class="cls-4" x1="195.75" y1="1281.87" x2="195.75" y2="1275.54"/><line class="cls-4" x1="204.39" y1="1280.28" x2="204.39" y2="1275.54"/><line class="cls-4" x1="213.03" y1="1278.7" x2="213.03" y2="1275.54"/><line class="cls-4" x1="201.51" y1="1280.28" x2="201.51" y2="1275.54"/><line class="cls-4" x1="189.99" y1="1288.19" x2="189.99" y2="1275.54"/></g><g><line class="cls-4" x1="195.75" y1="1330.88" x2="195.75" y2="1322.97"/><line class="cls-4" x1="227.43" y1="1324.55" x2="227.43" y2="1322.97"/><line class="cls-4" x1="224.55" y1="1324.55" x2="224.55" y2="1322.97"/><line class="cls-4" x1="210.15" y1="1327.71" x2="210.15" y2="1322.97"/><line class="cls-4" x1="192.87" y1="1334.04" x2="192.87" y2="1322.97"/><line class="cls-4" x1="207.27" y1="1327.71" x2="207.27" y2="1322.97"/><line class="cls-4" x1="221.67" y1="1324.55" x2="221.67" y2="1322.97"/><line class="cls-4" x1="218.79" y1="1324.55" x2="218.79" y2="1322.97"/><line class="cls-4" x1="213.03" y1="1326.13" x2="213.03" y2="1322.97"/><line class="cls-4" x1="204.39" y1="1327.71" x2="204.39" y2="1322.97"/><line class="cls-4" x1="215.91" y1="1324.55" x2="215.91" y2="1322.97"/><line class="cls-4" x1="198.63" y1="1329.29" x2="198.63" y2="1322.97"/><line class="cls-4" x1="201.51" y1="1327.71" x2="201.51" y2="1322.97"/><line class="cls-4" x1="189.99" y1="1348.27" x2="189.99" y2="1322.97"/><line class="cls-4" x1="230.31" y1="1324.55" x2="230.31" y2="1322.97"/></g><g><line class="cls-4" x1="230.31" y1="1371.98" x2="230.31" y2="1370.4"/><line class="cls-4" x1="201.51" y1="1378.31" x2="201.51" y2="1370.4"/><line class="cls-4" x1="198.63" y1="1378.31" x2="198.63" y2="1370.4"/><line class="cls-4" x1="204.39" y1="1376.73" x2="204.39" y2="1370.4"/><line class="cls-4" x1="227.43" y1="1371.98" x2="227.43" y2="1370.4"/><line class="cls-4" x1="195.75" y1="1378.31" x2="195.75" y2="1370.4"/><line class="cls-4" x1="224.55" y1="1371.98" x2="224.55" y2="1370.4"/><line class="cls-4" x1="218.79" y1="1373.56" x2="218.79" y2="1370.4"/><line class="cls-4" x1="213.03" y1="1375.14" x2="213.03" y2="1370.4"/><line class="cls-4" x1="210.15" y1="1375.14" x2="210.15" y2="1370.4"/><line class="cls-4" x1="207.27" y1="1375.14" x2="207.27" y2="1370.4"/><line class="cls-4" x1="221.67" y1="1371.98" x2="221.67" y2="1370.4"/><line class="cls-4" x1="192.87" y1="1379.89" x2="192.87" y2="1370.4"/><line class="cls-4" x1="189.99" y1="1383.05" x2="189.99" y2="1370.4"/><line class="cls-4" x1="215.91" y1="1373.56" x2="215.91" y2="1370.4"/><line class="cls-4" x1="233.19" y1="1371.98" x2="233.19" y2="1370.4"/></g><g><line class="cls-3" x1="188.99" y1="1512.7" x2="333.99" y2="1512.7"/><line class="cls-3" x1="188.99" y1="564.08" x2="333.99" y2="564.08"/><line class="cls-3" x1="188.99" y1="43.93" x2="333.99" y2="43.93"/><line class="cls-3" x1="188.99" y1="91.36" x2="333.99" y2="91.36"/><line class="cls-3" x1="188.99" y1="516.65" x2="333.99" y2="516.65"/><line class="cls-3" x1="188.99" y1="706.38" x2="333.99" y2="706.38"/><line class="cls-3" x1="188.99" y1="469.22" x2="333.99" y2="469.22"/><line class="cls-3" x1="188.99" y1="937.2" x2="333.99" y2="937.2"/><line class="cls-3" x1="188.99" y1="753.8" x2="333.99" y2="753.8"/><line class="cls-3" x1="188.99" y1="1607.56" x2="333.99" y2="1607.56"/><line class="cls-3" x1="188.99" y1="1654.99" x2="333.99" y2="1654.99"/><line class="cls-3" x1="188.99" y1="184.64" x2="333.99" y2="184.64"/><line class="cls-3" x1="188.99" y1="232.07" x2="333.99" y2="232.07"/><line class="cls-3" x1="188.99" y1="279.5" x2="333.99" y2="279.5"/><line class="cls-3" x1="188.99" y1="326.93" x2="333.99" y2="326.93"/><line class="cls-3" x1="188.99" y1="984.63" x2="333.99" y2="984.63"/><line class="cls-3" x1="188.99" y1="1417.84" x2="333.99" y2="1417.84"/><line class="cls-3" x1="188.99" y1="1465.27" x2="333.99" y2="1465.27"/><line class="cls-3" x1="188.99" y1="137.21" x2="333.99" y2="137.21"/><line class="cls-3" x1="188.99" y1="374.36" x2="333.99" y2="374.36"/><line class="cls-3" x1="188.99" y1="421.79" x2="333.99" y2="421.79"/><line class="cls-3" x1="188.99" y1="611.51" x2="333.99" y2="611.51"/><line class="cls-3" x1="188.99" y1="658.94" x2="333.99" y2="658.95"/><line class="cls-3" x1="188.99" y1="801.24" x2="333.99" y2="801.24"/><line class="cls-3" x1="188.99" y1="848.67" x2="333.99" y2="848.67"/><line class="cls-3" x1="188.99" y1="896.1" x2="333.99" y2="896.1"/><line class="cls-3" x1="188.99" y1="1032.07" x2="333.99" y2="1032.07"/><line class="cls-3" x1="188.99" y1="1079.5" x2="333.99" y2="1079.5"/><line class="cls-3" x1="188.99" y1="1126.93" x2="333.99" y2="1126.93"/><line class="cls-3" x1="188.99" y1="1179.1" x2="333.99" y2="1179.1"/><line class="cls-3" x1="188.99" y1="1228.11" x2="333.99" y2="1228.11"/><line class="cls-3" x1="188.99" y1="1275.54" x2="333.99" y2="1275.54"/><line class="cls-3" x1="188.99" y1="1322.97" x2="333.99" y2="1322.97"/><line class="cls-3" x1="188.99" y1="1370.41" x2="333.99" y2="1370.41"/><line class="cls-3" x1="188.99" y1="1560.13" x2="333.99" y2="1560.13"/></g></svg>