<?xml version="1.0" encoding="UTF-8"?><svg id="Layer_1" xmlns="http://www.w3.org/2000/svg" viewBox="0 0 360 1693.86"><defs><style>.cls-1{stroke:#939598;stroke-linecap:round;stroke-miterlimit:10;stroke-width:.5px;}.cls-1,.cls-2,.cls-3,.cls-4,.cls-5{fill:none;}.cls-2,.cls-3{stroke-width:.75px;}.cls-2,.cls-3,.cls-4,.cls-5{stroke-linejoin:round;}.cls-2,.cls-5{stroke:#43ad49;}.cls-3,.cls-4{stroke:#0051aa;}.cls-6{letter-spacing:-.07em;}.cls-4,.cls-5{stroke-width:2px;}.cls-7{fill:#939598;font-family:Helvetica, Helvetica;font-size:7px;}</style></defs><g><g><line class="cls-1" x1="0" y1="298.33" x2="360" y2="298.33"/><line class="cls-1" x1="0" y1="392.45" x2="360" y2="392.45"/><line class="cls-1" x1="0" y1="204.21" x2="360" y2="204.21"/><line class="cls-1" x1="0" y1="110.1" x2="360" y2="110.1"/><line class="cls-1" x1="0" y1="486.57" x2="360" y2="486.57"/><line class="cls-1" x1="0" y1="580.68" x2="360" y2="580.68"/><line class="cls-1" x1="0" y1="674.8" x2="360" y2="674.8"/><line class="cls-1" x1="0" y1="769.67" x2="360" y2="769.67"/><line class="cls-1" x1="0" y1="864.54" x2="360" y2="864.54"/><line class="cls-1" x1="0" y1="959.4" x2="360" y2="959.4"/><line class="cls-1" x1="0" y1="1054.27" x2="360" y2="1054.27"/><line class="cls-1" x1="0" y1="1149.14" x2="360" y2="1149.14"/><line class="cls-1" x1="0" y1="1244" x2="360" y2="1244"/><line class="cls-1" x1="0" y1="1338.87" x2="360" y2="1338.87"/><line class="cls-1" x1="0" y1="1433.73" x2="360" y2="1433.73"/><line class="cls-1" x1="0" y1="1528.6" x2="360" y2="1528.6"/><line class="cls-1" x1="0" y1="1623.46" x2="360" y2="1623.46"/></g><g><text class="cls-7" transform="translate(173.19 295.33)"><tspan x="0" y="0">8am</tspan></text><text class="cls-7" transform="translate(173.19 389.45)"><tspan x="0" y="0">9am</tspan></text><text class="cls-7" transform="translate(171.25 483.57)"><tspan x="0" y="0">10am</tspan></text><text class="cls-7" transform="translate(171.5 577.68)"><tspan class="cls-6" x="0" y="0">1</tspan><tspan x="3.38" y="0">1am</tspan></text><text class="cls-7" transform="translate(173.19 201.21)"><tspan x="0" y="0">7am</tspan></text><text class="cls-7" transform="translate(173.19 107.1)"><tspan x="0" y="0">6am</tspan></text><text class="cls-7" transform="translate(171.25 671.8)"><tspan x="0" y="0">12pm</tspan></text><text class="cls-7" transform="translate(173.19 766.67)"><tspan x="0" y="0">1pm</tspan></text><text class="cls-7" transform="translate(173.19 861.54)"><tspan x="0" y="0">2pm</tspan></text><text class="cls-7" transform="translate(173.19 956.4)"><tspan x="0" y="0">3pm</tspan></text><text class="cls-7" transform="translate(173.19 1051.27)"><tspan x="0" y="0">4pm</tspan></text><text class="cls-7" transform="translate(173.19 1146.14)"><tspan x="0" y="0">5pm</tspan></text><text class="cls-7" transform="translate(173.19 1240.94)"><tspan x="0" y="0">6pm</tspan></text><text class="cls-7" transform="translate(173.19 1335.87)"><tspan x="0" y="0">7pm</tspan></text><text class="cls-7" transform="translate(173.19 1430.73)"><tspan x="0" y="0">8pm</tspan></text><text class="cls-7" transform="translate(171.25 1620.46)"><tspan x="0" y="0">10pm</tspan></text><text class="cls-7" transform="translate(173.19 1525.6)"><tspan x="0" y="0">9pm</tspan></text></g></g><line class="cls-5" x1="170" y1="1476.56" x2="170" y2="1470.24"/><g><line class="cls-5" x1="170" y1="100.83" x2="170" y2="94.5"/><line class="cls-5" x1="167.12" y1="97.66" x2="167.12" y2="94.5"/></g><g><line class="cls-5" x1="170" y1="192.54" x2="170" y2="189.38"/><line class="cls-5" x1="167.12" y1="190.96" x2="167.12" y2="189.38"/></g><line class="cls-5" x1="170" y1="285.84" x2="170" y2="284.26"/><g><line class="cls-5" x1="167.12" y1="1282.06" x2="167.12" y2="1280.48"/><line class="cls-5" x1="170" y1="1283.64" x2="170" y2="1280.48"/></g><g><line class="cls-5" x1="167.12" y1="382.3" x2="167.12" y2="379.13"/><line class="cls-5" x1="170" y1="382.3" x2="170" y2="379.13"/></g><g><line class="cls-5" x1="167.12" y1="1524" x2="167.12" y2="1517.67"/><line class="cls-5" x1="170" y1="1524" x2="170" y2="1517.67"/></g><g><line class="cls-5" x1="161.36" y1="1092.3" x2="161.36" y2="1090.72"/><line class="cls-5" x1="167.12" y1="1103.37" x2="167.12" y2="1090.72"/><line class="cls-5" x1="170" y1="1103.37" x2="170" y2="1090.72"/><line class="cls-5" x1="164.24" y1="1097.05" x2="164.24" y2="1090.72"/><line class="cls-5" x1="158.48" y1="1092.3" x2="158.48" y2="1090.72"/></g><g><line class="cls-5" x1="164.24" y1="572.06" x2="164.24" y2="568.89"/><line class="cls-5" x1="167.12" y1="573.64" x2="167.12" y2="568.89"/><line class="cls-5" x1="158.48" y1="570.47" x2="158.48" y2="568.89"/><line class="cls-5" x1="161.36" y1="570.47" x2="161.36" y2="568.89"/><line class="cls-5" x1="170" y1="578.38" x2="170" y2="568.89"/><line class="cls-5" x1="155.6" y1="570.47" x2="155.6" y2="568.89"/></g><line class="cls-5" x1="170" y1="347.51" x2="170" y2="331.7"/><g><line class="cls-5" x1="167.12" y1="475.59" x2="167.12" y2="474.01"/><line class="cls-5" x1="164.24" y1="475.59" x2="164.24" y2="474.01"/><line class="cls-5" x1="170" y1="504.06" x2="170" y2="474.01"/></g><g><line class="cls-5" x1="164.24" y1="1381.68" x2="164.24" y2="1375.36"/><line class="cls-5" x1="155.6" y1="1378.52" x2="155.6" y2="1375.36"/><line class="cls-5" x1="158.48" y1="1380.1" x2="158.48" y2="1375.36"/><line class="cls-5" x1="167.12" y1="1388.01" x2="167.12" y2="1375.36"/><line class="cls-5" x1="170" y1="1411.73" x2="170" y2="1375.36"/><line class="cls-5" x1="161.36" y1="1380.1" x2="161.36" y2="1375.36"/></g><g><line class="cls-5" x1="167.12" y1="238.4" x2="167.12" y2="236.82"/><line class="cls-5" x1="170" y1="246.31" x2="170" y2="236.82"/></g><g><line class="cls-5" x1="158.48" y1="761.81" x2="158.48" y2="758.65"/><line class="cls-5" x1="155.6" y1="760.23" x2="155.6" y2="758.65"/><line class="cls-5" x1="167.12" y1="779.21" x2="167.12" y2="758.65"/><line class="cls-5" x1="170" y1="780.79" x2="170" y2="758.65"/><line class="cls-5" x1="164.24" y1="764.97" x2="164.24" y2="758.65"/><line class="cls-5" x1="161.36" y1="763.39" x2="161.36" y2="758.65"/></g><g><line class="cls-5" x1="146.96" y1="807.67" x2="146.96" y2="806.09"/><line class="cls-5" x1="152.72" y1="809.25" x2="152.72" y2="806.09"/><line class="cls-5" x1="149.84" y1="807.67" x2="149.84" y2="806.09"/><line class="cls-5" x1="155.6" y1="810.83" x2="155.6" y2="806.09"/><line class="cls-5" x1="158.48" y1="812.41" x2="158.48" y2="806.09"/><line class="cls-5" x1="161.36" y1="812.41" x2="161.36" y2="806.09"/><line class="cls-5" x1="144.08" y1="807.67" x2="144.08" y2="806.09"/><line class="cls-5" x1="170" y1="828.23" x2="170" y2="806.09"/><line class="cls-5" x1="167.12" y1="826.64" x2="167.12" y2="806.09"/><line class="cls-5" x1="164.24" y1="820.32" x2="164.24" y2="806.09"/></g><g><line class="cls-5" x1="141.2" y1="902.55" x2="141.2" y2="900.97"/><line class="cls-5" x1="146.96" y1="904.13" x2="146.96" y2="900.97"/><line class="cls-5" x1="155.6" y1="905.71" x2="155.6" y2="900.97"/><line class="cls-5" x1="158.48" y1="907.29" x2="158.48" y2="900.97"/><line class="cls-5" x1="149.84" y1="904.13" x2="149.84" y2="900.97"/><line class="cls-5" x1="144.08" y1="902.55" x2="144.08" y2="900.97"/><line class="cls-5" x1="167.12" y1="916.78" x2="167.12" y2="900.97"/><line class="cls-5" x1="138.32" y1="902.55" x2="138.32" y2="900.97"/><line class="cls-5" x1="164.24" y1="910.45" x2="164.24" y2="900.97"/><line class="cls-5" x1="152.72" y1="904.13" x2="152.72" y2="900.97"/><line class="cls-5" x1="170" y1="923.1" x2="170" y2="900.97"/><line class="cls-5" x1="161.36" y1="908.87" x2="161.36" y2="900.97"/></g><g><line class="cls-5" x1="158.48" y1="1046.45" x2="158.48" y2="1043.28"/><line class="cls-5" x1="161.36" y1="1046.45" x2="161.36" y2="1043.28"/><line class="cls-5" x1="164.24" y1="1048.03" x2="164.24" y2="1043.28"/><line class="cls-5" x1="167.12" y1="1049.61" x2="167.12" y2="1043.28"/><line class="cls-5" x1="170" y1="1079.65" x2="170" y2="1043.28"/><line class="cls-5" x1="155.6" y1="1046.45" x2="155.6" y2="1043.28"/></g><g><line class="cls-5" x1="146.96" y1="1141.33" x2="146.96" y2="1138.16"/><line class="cls-5" x1="149.84" y1="1141.33" x2="149.84" y2="1138.16"/><line class="cls-5" x1="152.72" y1="1141.33" x2="152.72" y2="1138.16"/><line class="cls-5" x1="144.08" y1="1139.74" x2="144.08" y2="1138.16"/><line class="cls-5" x1="158.48" y1="1144.49" x2="158.48" y2="1138.16"/><line class="cls-5" x1="161.36" y1="1144.49" x2="161.36" y2="1138.16"/><line class="cls-5" x1="167.12" y1="1160.3" x2="167.12" y2="1138.16"/><line class="cls-5" x1="155.6" y1="1142.91" x2="155.6" y2="1138.16"/><line class="cls-5" x1="170" y1="1177.7" x2="170" y2="1138.16"/><line class="cls-5" x1="164.24" y1="1144.49" x2="164.24" y2="1138.16"/></g><g><line class="cls-5" x1="161.36" y1="1188.76" x2="161.36" y2="1185.6"/><line class="cls-5" x1="167.12" y1="1191.93" x2="167.12" y2="1185.6"/><line class="cls-5" x1="164.24" y1="1190.34" x2="164.24" y2="1185.6"/><line class="cls-5" x1="170" y1="1203" x2="170" y2="1185.6"/><line class="cls-5" x1="158.48" y1="1187.18" x2="158.48" y2="1185.6"/></g><g><line class="cls-5" x1="164.24" y1="524.62" x2="164.24" y2="521.45"/><line class="cls-5" x1="161.36" y1="523.03" x2="161.36" y2="521.45"/><line class="cls-5" x1="170" y1="530.94" x2="170" y2="521.45"/><line class="cls-5" x1="167.12" y1="527.78" x2="167.12" y2="521.45"/></g><g><line class="cls-5" x1="152.72" y1="619.49" x2="152.72" y2="616.33"/><line class="cls-5" x1="155.6" y1="619.49" x2="155.6" y2="616.33"/><line class="cls-5" x1="167.12" y1="624.24" x2="167.12" y2="616.33"/><line class="cls-5" x1="149.84" y1="617.91" x2="149.84" y2="616.33"/><line class="cls-5" x1="158.48" y1="619.49" x2="158.48" y2="616.33"/><line class="cls-5" x1="161.36" y1="621.07" x2="161.36" y2="616.33"/><line class="cls-5" x1="170" y1="632.14" x2="170" y2="616.33"/><line class="cls-5" x1="164.24" y1="622.66" x2="164.24" y2="616.33"/></g><g><line class="cls-5" x1="167.12" y1="670.1" x2="167.12" y2="663.77"/><line class="cls-5" x1="155.6" y1="666.93" x2="155.6" y2="663.77"/><line class="cls-5" x1="152.72" y1="665.35" x2="152.72" y2="663.77"/><line class="cls-5" x1="164.24" y1="668.52" x2="164.24" y2="663.77"/><line class="cls-5" x1="170" y1="671.68" x2="170" y2="663.77"/><line class="cls-5" x1="158.48" y1="666.93" x2="158.48" y2="663.77"/><line class="cls-5" x1="161.36" y1="666.93" x2="161.36" y2="663.77"/><line class="cls-5" x1="149.84" y1="665.35" x2="149.84" y2="663.77"/></g><g><line class="cls-5" x1="167.12" y1="968.96" x2="167.12" y2="948.4"/><line class="cls-5" x1="158.48" y1="949.99" x2="158.48" y2="948.4"/><line class="cls-5" x1="155.6" y1="949.99" x2="155.6" y2="948.4"/><line class="cls-5" x1="170" y1="968.96" x2="170" y2="948.4"/><line class="cls-5" x1="161.36" y1="953.15" x2="161.36" y2="948.4"/><line class="cls-5" x1="164.24" y1="954.73" x2="164.24" y2="948.4"/></g><g><line class="cls-5" x1="158.48" y1="1425.96" x2="158.48" y2="1422.8"/><line class="cls-5" x1="155.6" y1="1424.38" x2="155.6" y2="1422.8"/><line class="cls-5" x1="161.36" y1="1425.96" x2="161.36" y2="1422.8"/><line class="cls-5" x1="170" y1="1443.35" x2="170" y2="1422.8"/><line class="cls-5" x1="164.24" y1="1425.96" x2="164.24" y2="1422.8"/><line class="cls-5" x1="167.12" y1="1432.28" x2="167.12" y2="1422.8"/></g><g><line class="cls-5" x1="170" y1="151.43" x2="170" y2="141.94"/><line class="cls-5" x1="167.12" y1="145.1" x2="167.12" y2="141.94"/><line class="cls-5" x1="164.24" y1="145.1" x2="164.24" y2="141.94"/></g><g><line class="cls-5" x1="170" y1="439.22" x2="170" y2="426.58"/><line class="cls-5" x1="167.12" y1="429.74" x2="167.12" y2="426.58"/></g><g><line class="cls-5" x1="158.48" y1="712.79" x2="158.48" y2="711.21"/><line class="cls-5" x1="164.24" y1="714.37" x2="164.24" y2="711.21"/><line class="cls-5" x1="161.36" y1="712.79" x2="161.36" y2="711.21"/><line class="cls-5" x1="167.12" y1="714.37" x2="167.12" y2="711.21"/><line class="cls-5" x1="155.6" y1="712.79" x2="155.6" y2="711.21"/><line class="cls-5" x1="170" y1="720.7" x2="170" y2="711.21"/></g><g><line class="cls-5" x1="155.6" y1="855.11" x2="155.6" y2="853.53"/><line class="cls-5" x1="164.24" y1="859.85" x2="164.24" y2="853.53"/><line class="cls-5" x1="167.12" y1="859.85" x2="167.12" y2="853.53"/><line class="cls-5" x1="170" y1="861.43" x2="170" y2="853.53"/><line class="cls-5" x1="158.48" y1="855.11" x2="158.48" y2="853.53"/><line class="cls-5" x1="161.36" y1="855.11" x2="161.36" y2="853.53"/><line class="cls-5" x1="152.72" y1="855.11" x2="152.72" y2="853.53"/></g><g><line class="cls-5" x1="164.24" y1="1003.75" x2="164.24" y2="995.85"/><line class="cls-5" x1="149.84" y1="997.43" x2="149.84" y2="995.85"/><line class="cls-5" x1="146.96" y1="997.43" x2="146.96" y2="995.85"/><line class="cls-5" x1="155.6" y1="1002.17" x2="155.6" y2="995.85"/><line class="cls-5" x1="158.48" y1="1002.17" x2="158.48" y2="995.85"/><line class="cls-5" x1="152.72" y1="1000.59" x2="152.72" y2="995.85"/><line class="cls-5" x1="170" y1="1021.15" x2="170" y2="995.85"/><line class="cls-5" x1="161.36" y1="1002.17" x2="161.36" y2="995.85"/><line class="cls-5" x1="167.12" y1="1005.33" x2="167.12" y2="995.85"/></g><g><line class="cls-5" x1="152.72" y1="1236.2" x2="152.72" y2="1233.04"/><line class="cls-5" x1="149.84" y1="1236.2" x2="149.84" y2="1233.04"/><line class="cls-5" x1="158.48" y1="1239.37" x2="158.48" y2="1233.04"/><line class="cls-5" x1="167.12" y1="1242.53" x2="167.12" y2="1233.04"/><line class="cls-5" x1="170" y1="1242.53" x2="170" y2="1233.04"/><line class="cls-5" x1="161.36" y1="1239.37" x2="161.36" y2="1233.04"/><line class="cls-5" x1="155.6" y1="1237.79" x2="155.6" y2="1233.04"/><line class="cls-5" x1="164.24" y1="1239.37" x2="164.24" y2="1233.04"/></g><g><line class="cls-2" x1="171" y1="94.5" x2="26" y2="94.5"/><line class="cls-2" x1="171" y1="1327.92" x2="26" y2="1327.92"/><line class="cls-2" x1="171" y1="189.38" x2="26" y2="189.38"/><line class="cls-2" x1="171" y1="1565.11" x2="26" y2="1565.11"/><line class="cls-2" x1="171" y1="1517.67" x2="26" y2="1517.67"/><line class="cls-2" x1="171" y1="284.26" x2="26" y2="284.26"/><line class="cls-2" x1="171" y1="474.01" x2="26" y2="474.01"/><line class="cls-2" x1="171" y1="568.89" x2="26" y2="568.89"/><line class="cls-2" x1="171" y1="1280.48" x2="26" y2="1280.48"/><line class="cls-2" x1="171" y1="1375.35" x2="26" y2="1375.35"/><line class="cls-2" x1="171" y1="331.69" x2="26" y2="331.69"/><line class="cls-2" x1="171" y1="806.08" x2="26" y2="806.08"/><line class="cls-2" x1="171" y1="1090.72" x2="26" y2="1090.72"/><line class="cls-2" x1="171" y1="1138.16" x2="26" y2="1138.16"/><line class="cls-2" x1="171" y1="379.13" x2="26" y2="379.13"/><line class="cls-2" x1="171" y1="521.45" x2="26" y2="521.45"/><line class="cls-2" x1="171" y1="616.33" x2="26" y2="616.33"/><line class="cls-2" x1="171" y1="663.77" x2="26" y2="663.77"/><line class="cls-2" x1="171" y1="1422.8" x2="26" y2="1422.8"/><line class="cls-2" x1="171" y1="1470.23" x2="26" y2="1470.23"/><line class="cls-2" x1="171" y1="141.94" x2="26" y2="141.94"/><line class="cls-2" x1="171" y1="236.82" x2="26" y2="236.82"/><line class="cls-2" x1="171" y1="426.57" x2="26" y2="426.57"/><line class="cls-2" x1="171" y1="711.21" x2="26" y2="711.21"/><line class="cls-2" x1="171" y1="758.65" x2="26" y2="758.65"/><line class="cls-2" x1="171" y1="853.53" x2="26" y2="853.53"/><line class="cls-2" x1="171" y1="900.96" x2="26" y2="900.96"/><line class="cls-2" x1="171" y1="948.4" x2="26" y2="948.4"/><line class="cls-2" x1="171" y1="995.84" x2="26" y2="995.84"/><line class="cls-2" x1="171" y1="1043.28" x2="26" y2="1043.28"/><line class="cls-2" x1="171" y1="1185.6" x2="26" y2="1185.6"/><line class="cls-2" x1="171" y1="1233.04" x2="26" y2="1233.04"/></g><line class="cls-4" x1="190" y1="664.67" x2="190" y2="656.77"/><line class="cls-4" x1="190" y1="753.97" x2="190" y2="752.39"/><line class="cls-4" x1="190" y1="1324.72" x2="190" y2="1319.98"/><line class="cls-4" x1="190" y1="1416.42" x2="190" y2="1414.84"/><line class="cls-4" x1="190" y1="187.96" x2="190" y2="183.22"/><line class="cls-4" x1="190" y1="659.93" x2="190" y2="656.77"/><line class="cls-4" x1="190" y1="758.71" x2="190" y2="752.39"/><line class="cls-4" x1="190" y1="663.09" x2="190" y2="656.77"/><line class="cls-4" x1="190" y1="758.71" x2="190" y2="752.39"/><g><line class="cls-4" x1="190" y1="1564.34" x2="190" y2="1556.43"/><line class="cls-4" x1="192.88" y1="1559.59" x2="192.88" y2="1556.43"/></g><line class="cls-4" x1="190" y1="758.71" x2="190" y2="752.39"/><line class="cls-4" x1="190" y1="661.51" x2="190" y2="656.77"/><g><line class="cls-4" x1="195.76" y1="1467.01" x2="195.76" y2="1462.27"/><line class="cls-4" x1="192.88" y1="1467.01" x2="192.88" y2="1462.27"/><line class="cls-4" x1="198.64" y1="1463.85" x2="198.64" y2="1462.27"/><line class="cls-4" x1="201.52" y1="1463.85" x2="201.52" y2="1462.27"/><line class="cls-4" x1="190" y1="1467.01" x2="190" y2="1462.27"/></g><line class="cls-4" x1="190" y1="1511.28" x2="190" y2="1509.7"/><g><line class="cls-4" x1="195.76" y1="327.41" x2="195.76" y2="325.83"/><line class="cls-4" x1="192.88" y1="330.57" x2="192.88" y2="325.83"/><line class="cls-4" x1="190" y1="333.73" x2="190" y2="325.83"/><line class="cls-4" x1="198.64" y1="327.41" x2="198.64" y2="325.83"/></g><line class="cls-4" x1="190" y1="1233.02" x2="190" y2="1226.7"/><line class="cls-4" x1="190" y1="91.52" x2="190" y2="86.78"/><g><line class="cls-4" x1="192.88" y1="230.65" x2="192.88" y2="229.07"/><line class="cls-4" x1="190" y1="230.65" x2="190" y2="229.07"/></g><g><line class="cls-4" x1="195.76" y1="420.37" x2="195.76" y2="418.79"/><line class="cls-4" x1="192.88" y1="420.37" x2="192.88" y2="418.79"/><line class="cls-4" x1="198.64" y1="420.37" x2="198.64" y2="418.79"/><line class="cls-4" x1="190" y1="423.54" x2="190" y2="418.79"/></g><g><line class="cls-4" x1="190" y1="519.98" x2="190" y2="513.66"/><line class="cls-4" x1="192.88" y1="518.4" x2="192.88" y2="513.66"/><line class="cls-4" x1="195.76" y1="518.4" x2="195.76" y2="513.66"/></g><g><line class="cls-4" x1="192.88" y1="1277.29" x2="192.88" y2="1272.55"/><line class="cls-4" x1="195.76" y1="1275.71" x2="195.76" y2="1272.55"/><line class="cls-4" x1="190" y1="1282.03" x2="190" y2="1272.55"/></g><g><line class="cls-4" x1="195.76" y1="992.92" x2="195.76" y2="989.76"/><line class="cls-4" x1="192.88" y1="994.5" x2="192.88" y2="989.76"/><line class="cls-4" x1="190" y1="996.08" x2="190" y2="989.76"/><line class="cls-4" x1="198.64" y1="992.92" x2="198.64" y2="989.76"/></g><g><line class="cls-4" x1="192.88" y1="1041.72" x2="192.88" y2="1036.97"/><line class="cls-4" x1="190" y1="1043.3" x2="190" y2="1036.97"/></g><g><line class="cls-4" x1="195.76" y1="610.1" x2="195.76" y2="608.52"/><line class="cls-4" x1="192.88" y1="610.1" x2="192.88" y2="608.52"/><line class="cls-4" x1="190" y1="611.68" x2="190" y2="608.52"/></g><line class="cls-4" x1="190" y1="659.93" x2="190" y2="656.77"/><line class="cls-4" x1="190" y1="765.04" x2="190" y2="752.39"/><g><line class="cls-4" x1="190" y1="946.86" x2="190" y2="940.53"/><line class="cls-4" x1="192.88" y1="945.27" x2="192.88" y2="940.53"/></g><g><line class="cls-4" x1="195.76" y1="1182.43" x2="195.76" y2="1177.68"/><line class="cls-4" x1="192.88" y1="1182.43" x2="192.88" y2="1177.68"/><line class="cls-4" x1="198.64" y1="1180.85" x2="198.64" y2="1177.68"/><line class="cls-4" x1="190" y1="1184.01" x2="190" y2="1177.68"/></g><g><line class="cls-4" x1="192.88" y1="1368.99" x2="192.88" y2="1367.41"/><line class="cls-4" x1="195.76" y1="1368.99" x2="195.76" y2="1367.41"/><line class="cls-4" x1="190" y1="1368.99" x2="190" y2="1367.41"/></g><g><line class="cls-4" x1="192.88" y1="1610.88" x2="192.88" y2="1604.56"/><line class="cls-4" x1="195.76" y1="1609.31" x2="195.76" y2="1604.56"/><line class="cls-4" x1="198.64" y1="1609.31" x2="198.64" y2="1604.56"/><line class="cls-4" x1="190" y1="1612.47" x2="190" y2="1604.56"/></g><g><line class="cls-4" x1="207.28" y1="469.39" x2="207.28" y2="467.8"/><line class="cls-4" x1="198.64" y1="472.55" x2="198.64" y2="467.8"/><line class="cls-4" x1="195.76" y1="472.55" x2="195.76" y2="467.8"/><line class="cls-4" x1="210.16" y1="469.38" x2="210.16" y2="467.8"/><line class="cls-4" x1="204.4" y1="470.97" x2="204.4" y2="467.8"/><line class="cls-4" x1="201.52" y1="470.97" x2="201.52" y2="467.8"/><line class="cls-4" x1="192.88" y1="472.55" x2="192.88" y2="467.8"/><line class="cls-4" x1="190" y1="474.13" x2="190" y2="467.8"/></g><line class="cls-4" x1="190" y1="757.13" x2="190" y2="752.39"/><g><line class="cls-4" x1="204.4" y1="848.83" x2="204.4" y2="847.25"/><line class="cls-4" x1="198.64" y1="850.41" x2="198.64" y2="847.25"/><line class="cls-4" x1="195.76" y1="851.99" x2="195.76" y2="847.25"/><line class="cls-4" x1="207.28" y1="848.83" x2="207.28" y2="847.25"/><line class="cls-4" x1="201.52" y1="848.83" x2="201.52" y2="847.25"/><line class="cls-4" x1="192.88" y1="851.99" x2="192.88" y2="847.25"/><line class="cls-4" x1="190" y1="855.15" x2="190" y2="847.25"/></g><g><line class="cls-4" x1="192.88" y1="138.95" x2="192.88" y2="134.21"/><line class="cls-4" x1="190" y1="143.7" x2="190" y2="134.21"/></g><g><line class="cls-4" x1="190" y1="380.85" x2="190" y2="371.36"/><line class="cls-4" x1="192.88" y1="376.11" x2="192.88" y2="371.36"/><line class="cls-4" x1="198.64" y1="372.94" x2="198.64" y2="371.36"/><line class="cls-4" x1="195.76" y1="374.53" x2="195.76" y2="371.36"/></g><g><line class="cls-4" x1="210.16" y1="704.96" x2="210.16" y2="703.38"/><line class="cls-4" x1="192.88" y1="711.28" x2="192.88" y2="703.38"/><line class="cls-4" x1="213.04" y1="704.96" x2="213.04" y2="703.38"/><line class="cls-4" x1="201.52" y1="708.12" x2="201.52" y2="703.38"/><line class="cls-4" x1="190" y1="712.86" x2="190" y2="703.38"/><line class="cls-4" x1="207.28" y1="706.54" x2="207.28" y2="703.38"/><line class="cls-4" x1="198.64" y1="708.12" x2="198.64" y2="703.38"/><line class="cls-4" x1="195.76" y1="708.12" x2="195.76" y2="703.38"/><line class="cls-4" x1="204.4" y1="706.54" x2="204.4" y2="703.38"/></g><g><line class="cls-4" x1="192.88" y1="565.83" x2="192.88" y2="562.67"/><line class="cls-4" x1="207.28" y1="564.25" x2="207.28" y2="562.67"/><line class="cls-4" x1="201.52" y1="565.83" x2="201.52" y2="562.67"/><line class="cls-4" x1="198.64" y1="565.83" x2="198.64" y2="562.67"/><line class="cls-4" x1="204.4" y1="564.25" x2="204.4" y2="562.67"/><line class="cls-4" x1="210.16" y1="564.25" x2="210.16" y2="562.67"/><line class="cls-4" x1="195.76" y1="565.83" x2="195.76" y2="562.67"/><line class="cls-4" x1="190" y1="570.57" x2="190" y2="562.67"/></g><line class="cls-4" x1="190" y1="757.13" x2="190" y2="752.39"/><g><line class="cls-4" x1="210.16" y1="801.4" x2="210.16" y2="799.82"/><line class="cls-4" x1="192.88" y1="806.15" x2="192.88" y2="799.82"/><line class="cls-4" x1="207.28" y1="801.4" x2="207.28" y2="799.82"/><line class="cls-4" x1="213.04" y1="801.4" x2="213.04" y2="799.82"/><line class="cls-4" x1="190" y1="806.15" x2="190" y2="799.82"/><line class="cls-4" x1="195.76" y1="804.57" x2="195.76" y2="799.82"/><line class="cls-4" x1="204.4" y1="802.98" x2="204.4" y2="799.82"/><line class="cls-4" x1="201.52" y1="802.98" x2="201.52" y2="799.82"/><line class="cls-4" x1="198.64" y1="802.98" x2="198.64" y2="799.82"/></g><g><line class="cls-4" x1="192.88" y1="899.43" x2="192.88" y2="894.68"/><line class="cls-4" x1="190" y1="899.43" x2="190" y2="894.68"/><line class="cls-4" x1="195.76" y1="896.26" x2="195.76" y2="894.68"/></g><g><line class="cls-4" x1="195.76" y1="1090.73" x2="195.76" y2="1084.41"/><line class="cls-4" x1="210.16" y1="1089.15" x2="210.16" y2="1084.41"/><line class="cls-4" x1="192.88" y1="1090.73" x2="192.88" y2="1084.41"/><line class="cls-4" x1="204.4" y1="1089.15" x2="204.4" y2="1084.41"/><line class="cls-4" x1="190" y1="1093.89" x2="190" y2="1084.41"/><line class="cls-4" x1="201.52" y1="1089.15" x2="201.52" y2="1084.41"/><line class="cls-4" x1="207.28" y1="1089.15" x2="207.28" y2="1084.41"/><line class="cls-4" x1="198.64" y1="1089.15" x2="198.64" y2="1084.41"/><line class="cls-4" x1="213.04" y1="1085.99" x2="213.04" y2="1084.41"/></g><g><line class="cls-4" x1="207.28" y1="1135" x2="207.28" y2="1131.84"/><line class="cls-4" x1="210.16" y1="1135" x2="210.16" y2="1131.84"/><line class="cls-4" x1="204.4" y1="1136.58" x2="204.4" y2="1131.84"/><line class="cls-4" x1="198.64" y1="1139.74" x2="198.64" y2="1131.84"/><line class="cls-4" x1="215.92" y1="1133.42" x2="215.92" y2="1131.84"/><line class="cls-4" x1="213.04" y1="1133.42" x2="213.04" y2="1131.84"/><line class="cls-4" x1="201.52" y1="1138.16" x2="201.52" y2="1131.84"/><line class="cls-4" x1="195.76" y1="1139.74" x2="195.76" y2="1131.84"/><line class="cls-4" x1="218.8" y1="1133.42" x2="218.8" y2="1131.84"/><line class="cls-4" x1="192.88" y1="1139.74" x2="192.88" y2="1131.84"/><line class="cls-4" x1="190" y1="1153.97" x2="190" y2="1131.84"/></g><g><line class="cls-3" x1="189" y1="1556.43" x2="334" y2="1556.43"/><line class="cls-3" x1="189" y1="183.22" x2="334" y2="183.22"/><line class="cls-3" x1="189" y1="1509.7" x2="334" y2="1509.7"/><line class="cls-3" x1="189" y1="1226.7" x2="334" y2="1226.7"/><line class="cls-3" x1="189" y1="86.78" x2="334" y2="86.78"/><line class="cls-3" x1="189" y1="229.07" x2="334" y2="229.07"/><line class="cls-3" x1="189" y1="418.8" x2="334" y2="418.8"/><line class="cls-3" x1="189" y1="513.66" x2="334" y2="513.66"/><line class="cls-3" x1="189" y1="1272.55" x2="334" y2="1272.55"/><line class="cls-3" x1="189" y1="1319.98" x2="334" y2="1319.98"/><line class="cls-3" x1="189" y1="989.55" x2="334" y2="989.55"/><line class="cls-3" x1="189" y1="608.52" x2="334" y2="608.52"/><line class="cls-3" x1="189" y1="940.53" x2="334" y2="940.53"/><line class="cls-3" x1="189" y1="1177.69" x2="334" y2="1177.69"/><line class="cls-3" x1="189" y1="1367.41" x2="334" y2="1367.41"/><line class="cls-3" x1="189" y1="1462.27" x2="334" y2="1462.27"/><line class="cls-3" x1="189" y1="467.81" x2="334" y2="467.81"/><line class="cls-3" x1="189" y1="657.53" x2="334" y2="657.53"/><line class="cls-3" x1="189" y1="847.25" x2="334" y2="847.25"/><line class="cls-3" x1="189" y1="134.21" x2="334" y2="134.21"/><line class="cls-3" x1="189" y1="276.5" x2="334" y2="276.5"/><line class="cls-3" x1="189" y1="371.37" x2="334" y2="371.37"/><line class="cls-3" x1="189" y1="703.38" x2="334" y2="703.38"/><line class="cls-3" x1="189" y1="1414.84" x2="334" y2="1414.84"/><line class="cls-3" x1="189" y1="1604.56" x2="334" y2="1604.56"/><line class="cls-3" x1="189" y1="325.52" x2="334" y2="325.52"/><line class="cls-3" x1="189" y1="562.67" x2="334" y2="562.67"/><line class="cls-3" x1="189" y1="752.39" x2="334" y2="752.39"/><line class="cls-3" x1="189" y1="799.82" x2="334" y2="799.82"/><line class="cls-3" x1="189" y1="894.68" x2="334" y2="894.68"/><line class="cls-3" x1="189" y1="1036.98" x2="334" y2="1036.98"/><line class="cls-3" x1="189" y1="1084.41" x2="334" y2="1084.41"/><line class="cls-3" x1="189" y1="1131.84" x2="334" y2="1131.84"/></g></svg>