<?xml version="1.0" encoding="UTF-8"?><svg id="Layer_1" xmlns="http://www.w3.org/2000/svg" viewBox="0 0 360 1693.86"><defs><style>.cls-1{stroke:#939598;stroke-linecap:round;stroke-width:.5px;}.cls-1,.cls-2,.cls-3,.cls-4,.cls-5{fill:none;}.cls-1,.cls-3,.cls-4,.cls-5{stroke-miterlimit:10;}.cls-2{stroke-linejoin:round;}.cls-2,.cls-3{stroke-width:.75px;}.cls-2,.cls-5{stroke:#0051aa;}.cls-3,.cls-4{stroke:#43ad49;}.cls-6{letter-spacing:-.07em;}.cls-4,.cls-5{stroke-width:2px;}.cls-7{fill:#939598;font-family:Helvetica, Helvetica;font-size:7px;}</style></defs><g><g><line class="cls-1" x1="0" y1="298.33" x2="360" y2="298.33"/><line class="cls-1" x1="0" y1="392.45" x2="360" y2="392.45"/><line class="cls-1" x1="0" y1="204.21" x2="360" y2="204.21"/><line class="cls-1" x1="0" y1="110.1" x2="360" y2="110.1"/><line class="cls-1" x1="0" y1="486.57" x2="360" y2="486.57"/><line class="cls-1" x1="0" y1="580.68" x2="360" y2="580.68"/><line class="cls-1" x1="0" y1="674.8" x2="360" y2="674.8"/><line class="cls-1" x1="0" y1="769.67" x2="360" y2="769.67"/><line class="cls-1" x1="0" y1="864.54" x2="360" y2="864.54"/><line class="cls-1" x1="0" y1="959.4" x2="360" y2="959.4"/><line class="cls-1" x1="0" y1="1054.27" x2="360" y2="1054.27"/><line class="cls-1" x1="0" y1="1149.14" x2="360" y2="1149.14"/><line class="cls-1" x1="0" y1="1244" x2="360" y2="1244"/><line class="cls-1" x1="0" y1="1338.87" x2="360" y2="1338.87"/><line class="cls-1" x1="0" y1="1433.73" x2="360" y2="1433.73"/><line class="cls-1" x1="0" y1="1528.6" x2="360" y2="1528.6"/><line class="cls-1" x1="0" y1="1623.46" x2="360" y2="1623.46"/></g><g><text class="cls-7" transform="translate(173.19 295.33)"><tspan x="0" y="0">8am</tspan></text><text class="cls-7" transform="translate(173.19 389.45)"><tspan x="0" y="0">9am</tspan></text><text class="cls-7" transform="translate(171.25 483.57)"><tspan x="0" y="0">10am</tspan></text><text class="cls-7" transform="translate(171.5 577.68)"><tspan class="cls-6" x="0" y="0">1</tspan><tspan x="3.38" y="0">1am</tspan></text><text class="cls-7" transform="translate(173.19 201.21)"><tspan x="0" y="0">7am</tspan></text><text class="cls-7" transform="translate(173.19 107.1)"><tspan x="0" y="0">6am</tspan></text><text class="cls-7" transform="translate(171.25 671.8)"><tspan x="0" y="0">12pm</tspan></text><text class="cls-7" transform="translate(173.19 766.67)"><tspan x="0" y="0">1pm</tspan></text><text class="cls-7" transform="translate(173.19 861.54)"><tspan x="0" y="0">2pm</tspan></text><text class="cls-7" transform="translate(173.19 956.4)"><tspan x="0" y="0">3pm</tspan></text><text class="cls-7" transform="translate(173.19 1051.27)"><tspan x="0" y="0">4pm</tspan></text><text class="cls-7" transform="translate(173.19 1146.14)"><tspan x="0" y="0">5pm</tspan></text><text class="cls-7" transform="translate(173.19 1240.94)"><tspan x="0" y="0">6pm</tspan></text><text class="cls-7" transform="translate(173.19 1335.87)"><tspan x="0" y="0">7pm</tspan></text><text class="cls-7" transform="translate(173.19 1430.73)"><tspan x="0" y="0">8pm</tspan></text><text class="cls-7" transform="translate(171.25 1620.46)"><tspan x="0" y="0">10pm</tspan></text><text class="cls-7" transform="translate(173.19 1525.6)"><tspan x="0" y="0">9pm</tspan></text></g></g><line class="cls-5" x1="195" y1="1512.92" x2="195" y2="1511.34"/><line class="cls-5" x1="195" y1="1514.5" x2="195" y2="1511.34"/><line class="cls-5" x1="195" y1="1512.92" x2="195" y2="1511.34"/><line class="cls-5" x1="195" y1="1514.5" x2="195" y2="1511.34"/><line class="cls-5" x1="195" y1="1514.5" x2="195" y2="1511.34"/><line class="cls-5" x1="195" y1="1520.82" x2="195" y2="1511.34"/><line class="cls-5" x1="195" y1="1512.92" x2="195" y2="1511.34"/><g><line class="cls-5" x1="206.52" y1="991.53" x2="206.52" y2="989.95"/><line class="cls-5" x1="203.64" y1="991.53" x2="203.64" y2="989.95"/><line class="cls-5" x1="195" y1="993.11" x2="195" y2="989.95"/><line class="cls-5" x1="200.76" y1="991.53" x2="200.76" y2="989.95"/><line class="cls-5" x1="197.88" y1="991.53" x2="197.88" y2="989.95"/><line class="cls-5" x1="209.4" y1="991.53" x2="209.4" y2="989.95"/></g><g><line class="cls-5" x1="206.52" y1="470.13" x2="206.52" y2="468.55"/><line class="cls-5" x1="203.64" y1="470.13" x2="203.64" y2="468.55"/><line class="cls-5" x1="195" y1="471.71" x2="195" y2="468.55"/><line class="cls-5" x1="200.76" y1="470.13" x2="200.76" y2="468.55"/><line class="cls-5" x1="197.88" y1="470.13" x2="197.88" y2="468.55"/><line class="cls-5" x1="209.4" y1="470.13" x2="209.4" y2="468.55"/></g><g><line class="cls-5" x1="206.52" y1="1275.93" x2="206.52" y2="1274.35"/><line class="cls-5" x1="203.64" y1="1275.93" x2="203.64" y2="1274.35"/><line class="cls-5" x1="200.76" y1="1275.93" x2="200.76" y2="1274.35"/><line class="cls-5" x1="197.88" y1="1275.93" x2="197.88" y2="1274.35"/><line class="cls-5" x1="209.4" y1="1275.93" x2="209.4" y2="1274.35"/><line class="cls-5" x1="195" y1="1275.93" x2="195" y2="1274.35"/></g><g><line class="cls-5" x1="209.4" y1="517.53" x2="209.4" y2="515.95"/><line class="cls-5" x1="206.52" y1="517.53" x2="206.52" y2="515.95"/><line class="cls-5" x1="203.64" y1="517.53" x2="203.64" y2="515.95"/><line class="cls-5" x1="200.76" y1="517.53" x2="200.76" y2="515.95"/><line class="cls-5" x1="197.88" y1="517.53" x2="197.88" y2="515.95"/><line class="cls-5" x1="195" y1="519.11" x2="195" y2="515.95"/><line class="cls-5" x1="212.28" y1="517.53" x2="212.28" y2="515.95"/></g><g><line class="cls-5" x1="197.88" y1="850.91" x2="197.88" y2="847.75"/><line class="cls-5" x1="195" y1="852.49" x2="195" y2="847.75"/><line class="cls-5" x1="200.76" y1="849.33" x2="200.76" y2="847.75"/><line class="cls-5" x1="203.64" y1="849.33" x2="203.64" y2="847.75"/></g><g><line class="cls-5" x1="195" y1="615.49" x2="195" y2="610.75"/><line class="cls-5" x1="218.04" y1="612.33" x2="218.04" y2="610.75"/><line class="cls-5" x1="215.16" y1="612.33" x2="215.16" y2="610.75"/><line class="cls-5" x1="197.88" y1="613.91" x2="197.88" y2="610.75"/><line class="cls-5" x1="212.28" y1="612.33" x2="212.28" y2="610.75"/><line class="cls-5" x1="209.4" y1="612.33" x2="209.4" y2="610.75"/><line class="cls-5" x1="206.52" y1="612.33" x2="206.52" y2="610.75"/><line class="cls-5" x1="203.64" y1="612.33" x2="203.64" y2="610.75"/><line class="cls-5" x1="200.76" y1="612.33" x2="200.76" y2="610.75"/><line class="cls-5" x1="220.92" y1="612.33" x2="220.92" y2="610.75"/></g><g><line class="cls-5" x1="203.64" y1="896.73" x2="203.64" y2="895.15"/><line class="cls-5" x1="200.76" y1="896.73" x2="200.76" y2="895.15"/><line class="cls-5" x1="197.88" y1="896.73" x2="197.88" y2="895.15"/><line class="cls-5" x1="206.52" y1="896.73" x2="206.52" y2="895.15"/><line class="cls-5" x1="195" y1="898.31" x2="195" y2="895.15"/></g><g><line class="cls-5" x1="215.16" y1="1038.93" x2="215.16" y2="1037.35"/><line class="cls-5" x1="212.28" y1="1038.93" x2="212.28" y2="1037.35"/><line class="cls-5" x1="209.4" y1="1038.93" x2="209.4" y2="1037.35"/><line class="cls-5" x1="206.52" y1="1038.93" x2="206.52" y2="1037.35"/><line class="cls-5" x1="203.64" y1="1038.93" x2="203.64" y2="1037.35"/><line class="cls-5" x1="200.76" y1="1038.93" x2="200.76" y2="1037.35"/><line class="cls-5" x1="195" y1="1040.51" x2="195" y2="1037.35"/><line class="cls-5" x1="197.88" y1="1038.93" x2="197.88" y2="1037.35"/><line class="cls-5" x1="218.04" y1="1038.93" x2="218.04" y2="1037.35"/></g><g><line class="cls-5" x1="212.28" y1="1181.13" x2="212.28" y2="1179.55"/><line class="cls-5" x1="200.76" y1="1182.71" x2="200.76" y2="1179.55"/><line class="cls-5" x1="209.4" y1="1181.13" x2="209.4" y2="1179.55"/><line class="cls-5" x1="206.52" y1="1181.13" x2="206.52" y2="1179.55"/><line class="cls-5" x1="197.88" y1="1182.71" x2="197.88" y2="1179.55"/><line class="cls-5" x1="203.64" y1="1181.13" x2="203.64" y2="1179.55"/><line class="cls-5" x1="215.16" y1="1181.13" x2="215.16" y2="1179.55"/><line class="cls-5" x1="195" y1="1184.29" x2="195" y2="1179.55"/></g><g><line class="cls-5" x1="200.76" y1="1372.31" x2="200.76" y2="1369.14"/><line class="cls-5" x1="206.52" y1="1370.73" x2="206.52" y2="1369.14"/><line class="cls-5" x1="203.64" y1="1370.73" x2="203.64" y2="1369.14"/><line class="cls-5" x1="209.4" y1="1370.73" x2="209.4" y2="1369.14"/><line class="cls-5" x1="197.88" y1="1372.31" x2="197.88" y2="1369.14"/><line class="cls-5" x1="195" y1="1380.2" x2="195" y2="1369.14"/></g><g><line class="cls-5" x1="197.88" y1="1418.12" x2="197.88" y2="1416.55"/><line class="cls-5" x1="200.76" y1="1418.12" x2="200.76" y2="1416.55"/><line class="cls-5" x1="195" y1="1418.12" x2="195" y2="1416.55"/></g><g><line class="cls-5" x1="197.88" y1="1467.11" x2="197.88" y2="1463.94"/><line class="cls-5" x1="200.76" y1="1467.11" x2="200.76" y2="1463.94"/><line class="cls-5" x1="195" y1="1467.11" x2="195" y2="1463.94"/></g><g><line class="cls-5" x1="209.4" y1="707.13" x2="209.4" y2="705.55"/><line class="cls-5" x1="206.52" y1="707.13" x2="206.52" y2="705.55"/><line class="cls-5" x1="203.64" y1="707.13" x2="203.64" y2="705.55"/><line class="cls-5" x1="200.76" y1="707.13" x2="200.76" y2="705.55"/><line class="cls-5" x1="197.88" y1="707.13" x2="197.88" y2="705.55"/><line class="cls-5" x1="195" y1="708.71" x2="195" y2="705.55"/><line class="cls-5" x1="212.28" y1="707.13" x2="212.28" y2="705.55"/></g><g><line class="cls-5" x1="212.28" y1="801.93" x2="212.28" y2="800.35"/><line class="cls-5" x1="209.4" y1="801.93" x2="209.4" y2="800.35"/><line class="cls-5" x1="195" y1="805.09" x2="195" y2="800.35"/><line class="cls-5" x1="206.52" y1="801.93" x2="206.52" y2="800.35"/><line class="cls-5" x1="200.76" y1="803.51" x2="200.76" y2="800.35"/><line class="cls-5" x1="203.64" y1="801.93" x2="203.64" y2="800.35"/><line class="cls-5" x1="215.16" y1="801.93" x2="215.16" y2="800.35"/><line class="cls-5" x1="197.88" y1="803.51" x2="197.88" y2="800.35"/></g><g><line class="cls-5" x1="215.16" y1="1086.33" x2="215.16" y2="1084.75"/><line class="cls-5" x1="212.28" y1="1086.33" x2="212.28" y2="1084.75"/><line class="cls-5" x1="209.4" y1="1086.33" x2="209.4" y2="1084.75"/><line class="cls-5" x1="206.52" y1="1086.33" x2="206.52" y2="1084.75"/><line class="cls-5" x1="197.88" y1="1087.91" x2="197.88" y2="1084.75"/><line class="cls-5" x1="203.64" y1="1086.33" x2="203.64" y2="1084.75"/><line class="cls-5" x1="195" y1="1087.91" x2="195" y2="1084.75"/><line class="cls-5" x1="200.76" y1="1086.33" x2="200.76" y2="1084.75"/><line class="cls-5" x1="218.04" y1="1086.33" x2="218.04" y2="1084.75"/></g><g><line class="cls-5" x1="195" y1="1324.91" x2="195" y2="1321.75"/><line class="cls-5" x1="220.92" y1="1323.33" x2="220.92" y2="1321.75"/><line class="cls-5" x1="218.04" y1="1323.33" x2="218.04" y2="1321.75"/><line class="cls-5" x1="215.16" y1="1323.33" x2="215.16" y2="1321.75"/><line class="cls-5" x1="212.28" y1="1323.33" x2="212.28" y2="1321.75"/><line class="cls-5" x1="209.4" y1="1323.33" x2="209.4" y2="1321.75"/><line class="cls-5" x1="206.52" y1="1323.33" x2="206.52" y2="1321.75"/><line class="cls-5" x1="203.64" y1="1323.33" x2="203.64" y2="1321.75"/><line class="cls-5" x1="200.76" y1="1323.33" x2="200.76" y2="1321.75"/><line class="cls-5" x1="197.88" y1="1323.33" x2="197.88" y2="1321.75"/><line class="cls-5" x1="223.8" y1="1323.33" x2="223.8" y2="1321.75"/></g><g><line class="cls-5" x1="206.52" y1="67.24" x2="206.52" y2="65.66"/><line class="cls-5" x1="197.88" y1="76.72" x2="197.88" y2="65.66"/><line class="cls-5" x1="200.76" y1="75.14" x2="200.76" y2="65.66"/><line class="cls-5" x1="203.64" y1="68.82" x2="203.64" y2="65.66"/><line class="cls-5" x1="195" y1="76.72" x2="195" y2="65.66"/></g><g><line class="cls-5" x1="200.76" y1="138.34" x2="200.76" y2="136.76"/><line class="cls-5" x1="197.88" y1="139.92" x2="197.88" y2="136.76"/><line class="cls-5" x1="203.64" y1="138.34" x2="203.64" y2="136.76"/><line class="cls-5" x1="195" y1="139.92" x2="195" y2="136.76"/></g><g><line class="cls-5" x1="203.64" y1="185.74" x2="203.64" y2="184.16"/><line class="cls-5" x1="206.52" y1="185.74" x2="206.52" y2="184.16"/><line class="cls-5" x1="195" y1="188.9" x2="195" y2="184.16"/><line class="cls-5" x1="200.76" y1="187.32" x2="200.76" y2="184.16"/><line class="cls-5" x1="197.88" y1="187.32" x2="197.88" y2="184.16"/></g><g><line class="cls-5" x1="212.28" y1="327.93" x2="212.28" y2="326.36"/><line class="cls-5" x1="209.4" y1="327.93" x2="209.4" y2="326.36"/><line class="cls-5" x1="206.52" y1="327.93" x2="206.52" y2="326.36"/><line class="cls-5" x1="200.76" y1="329.52" x2="200.76" y2="326.36"/><line class="cls-5" x1="203.64" y1="327.93" x2="203.64" y2="326.36"/><line class="cls-5" x1="215.16" y1="327.93" x2="215.16" y2="326.36"/><line class="cls-5" x1="195" y1="331.09" x2="195" y2="326.36"/><line class="cls-5" x1="197.88" y1="329.52" x2="197.88" y2="326.36"/></g><g><line class="cls-5" x1="200.76" y1="425.89" x2="200.76" y2="421.16"/><line class="cls-5" x1="220.92" y1="422.73" x2="220.92" y2="421.16"/><line class="cls-5" x1="218.04" y1="422.73" x2="218.04" y2="421.16"/><line class="cls-5" x1="215.16" y1="422.73" x2="215.16" y2="421.16"/><line class="cls-5" x1="197.88" y1="425.89" x2="197.88" y2="421.16"/><line class="cls-5" x1="212.28" y1="422.73" x2="212.28" y2="421.16"/><line class="cls-5" x1="203.64" y1="424.31" x2="203.64" y2="421.16"/><line class="cls-5" x1="195" y1="425.89" x2="195" y2="421.16"/><line class="cls-5" x1="209.4" y1="422.73" x2="209.4" y2="421.16"/><line class="cls-5" x1="206.52" y1="422.73" x2="206.52" y2="421.16"/><line class="cls-5" x1="223.8" y1="422.73" x2="223.8" y2="421.16"/></g><g><line class="cls-5" x1="212.28" y1="659.73" x2="212.28" y2="658.15"/><line class="cls-5" x1="209.4" y1="659.73" x2="209.4" y2="658.15"/><line class="cls-5" x1="206.52" y1="659.73" x2="206.52" y2="658.15"/><line class="cls-5" x1="203.64" y1="659.73" x2="203.64" y2="658.15"/><line class="cls-5" x1="197.88" y1="661.31" x2="197.88" y2="658.15"/><line class="cls-5" x1="200.76" y1="659.73" x2="200.76" y2="658.15"/><line class="cls-5" x1="195" y1="662.89" x2="195" y2="658.15"/><line class="cls-5" x1="215.16" y1="659.73" x2="215.16" y2="658.15"/></g><g><line class="cls-5" x1="212.28" y1="754.53" x2="212.28" y2="752.95"/><line class="cls-5" x1="209.4" y1="754.53" x2="209.4" y2="752.95"/><line class="cls-5" x1="206.52" y1="754.53" x2="206.52" y2="752.95"/><line class="cls-5" x1="197.88" y1="756.11" x2="197.88" y2="752.95"/><line class="cls-5" x1="203.64" y1="754.53" x2="203.64" y2="752.95"/><line class="cls-5" x1="195" y1="757.69" x2="195" y2="752.95"/><line class="cls-5" x1="200.76" y1="754.53" x2="200.76" y2="752.95"/><line class="cls-5" x1="215.16" y1="754.53" x2="215.16" y2="752.95"/></g><g><line class="cls-5" x1="195" y1="1563.48" x2="195" y2="1558.74"/><line class="cls-5" x1="206.52" y1="1560.32" x2="206.52" y2="1558.74"/><line class="cls-5" x1="203.64" y1="1560.32" x2="203.64" y2="1558.74"/><line class="cls-5" x1="200.76" y1="1560.32" x2="200.76" y2="1558.74"/><line class="cls-5" x1="197.88" y1="1561.9" x2="197.88" y2="1558.74"/><line class="cls-5" x1="209.4" y1="1560.32" x2="209.4" y2="1558.74"/></g><g><line class="cls-5" x1="206.52" y1="1607.72" x2="206.52" y2="1606.14"/><line class="cls-5" x1="203.64" y1="1607.72" x2="203.64" y2="1606.14"/><line class="cls-5" x1="200.76" y1="1607.72" x2="200.76" y2="1606.14"/><line class="cls-5" x1="197.88" y1="1607.72" x2="197.88" y2="1606.14"/><line class="cls-5" x1="209.4" y1="1607.72" x2="209.4" y2="1606.14"/><line class="cls-5" x1="195" y1="1607.72" x2="195" y2="1606.14"/></g><g><line class="cls-5" x1="218.04" y1="233.14" x2="218.04" y2="231.56"/><line class="cls-5" x1="215.16" y1="233.14" x2="215.16" y2="231.56"/><line class="cls-5" x1="212.28" y1="233.14" x2="212.28" y2="231.56"/><line class="cls-5" x1="209.4" y1="233.14" x2="209.4" y2="231.56"/><line class="cls-5" x1="206.52" y1="233.14" x2="206.52" y2="231.56"/><line class="cls-5" x1="203.64" y1="233.14" x2="203.64" y2="231.56"/><line class="cls-5" x1="200.76" y1="234.72" x2="200.76" y2="231.56"/><line class="cls-5" x1="197.88" y1="234.72" x2="197.88" y2="231.56"/><line class="cls-5" x1="195" y1="234.72" x2="195" y2="231.56"/><line class="cls-5" x1="220.92" y1="233.14" x2="220.92" y2="231.56"/></g><g><line class="cls-5" x1="209.4" y1="280.54" x2="209.4" y2="278.96"/><line class="cls-5" x1="197.88" y1="282.11" x2="197.88" y2="278.96"/><line class="cls-5" x1="206.52" y1="280.54" x2="206.52" y2="278.96"/><line class="cls-5" x1="195" y1="282.11" x2="195" y2="278.96"/><line class="cls-5" x1="203.64" y1="280.54" x2="203.64" y2="278.96"/><line class="cls-5" x1="200.76" y1="280.54" x2="200.76" y2="278.96"/><line class="cls-5" x1="212.28" y1="280.54" x2="212.28" y2="278.96"/></g><g><line class="cls-5" x1="223.8" y1="375.34" x2="223.8" y2="373.75"/><line class="cls-5" x1="203.64" y1="378.5" x2="203.64" y2="373.75"/><line class="cls-5" x1="200.76" y1="378.5" x2="200.76" y2="373.75"/><line class="cls-5" x1="220.92" y1="375.34" x2="220.92" y2="373.75"/><line class="cls-5" x1="197.88" y1="378.5" x2="197.88" y2="373.75"/><line class="cls-5" x1="215.16" y1="376.91" x2="215.16" y2="373.75"/><line class="cls-5" x1="212.28" y1="376.91" x2="212.28" y2="373.75"/><line class="cls-5" x1="218.04" y1="375.34" x2="218.04" y2="373.75"/><line class="cls-5" x1="195" y1="378.5" x2="195" y2="373.75"/><line class="cls-5" x1="209.4" y1="376.91" x2="209.4" y2="373.75"/><line class="cls-5" x1="206.52" y1="376.91" x2="206.52" y2="373.75"/><line class="cls-5" x1="226.68" y1="375.34" x2="226.68" y2="373.75"/></g><g><line class="cls-5" x1="223.8" y1="564.93" x2="223.8" y2="563.35"/><line class="cls-5" x1="200.76" y1="566.51" x2="200.76" y2="563.35"/><line class="cls-5" x1="197.88" y1="566.51" x2="197.88" y2="563.35"/><line class="cls-5" x1="220.92" y1="564.93" x2="220.92" y2="563.35"/><line class="cls-5" x1="218.04" y1="564.93" x2="218.04" y2="563.35"/><line class="cls-5" x1="215.16" y1="564.93" x2="215.16" y2="563.35"/><line class="cls-5" x1="195" y1="568.09" x2="195" y2="563.35"/><line class="cls-5" x1="212.28" y1="564.93" x2="212.28" y2="563.35"/><line class="cls-5" x1="209.4" y1="564.93" x2="209.4" y2="563.35"/><line class="cls-5" x1="206.52" y1="564.93" x2="206.52" y2="563.35"/><line class="cls-5" x1="203.64" y1="564.93" x2="203.64" y2="563.35"/><line class="cls-5" x1="226.68" y1="564.93" x2="226.68" y2="563.35"/></g><g><line class="cls-5" x1="195" y1="947.29" x2="195" y2="942.55"/><line class="cls-5" x1="203.64" y1="944.13" x2="203.64" y2="942.55"/><line class="cls-5" x1="200.76" y1="944.13" x2="200.76" y2="942.55"/><line class="cls-5" x1="197.88" y1="944.13" x2="197.88" y2="942.55"/><line class="cls-5" x1="206.52" y1="944.13" x2="206.52" y2="942.55"/></g><g><line class="cls-5" x1="209.4" y1="1133.73" x2="209.4" y2="1132.15"/><line class="cls-5" x1="206.52" y1="1133.73" x2="206.52" y2="1132.15"/><line class="cls-5" x1="203.64" y1="1133.73" x2="203.64" y2="1132.15"/><line class="cls-5" x1="200.76" y1="1133.73" x2="200.76" y2="1132.15"/><line class="cls-5" x1="195" y1="1135.31" x2="195" y2="1132.15"/><line class="cls-5" x1="197.88" y1="1133.73" x2="197.88" y2="1132.15"/><line class="cls-5" x1="212.28" y1="1133.73" x2="212.28" y2="1132.15"/></g><g><line class="cls-5" x1="215.16" y1="1228.53" x2="215.16" y2="1226.95"/><line class="cls-5" x1="212.28" y1="1228.53" x2="212.28" y2="1226.95"/><line class="cls-5" x1="209.4" y1="1228.53" x2="209.4" y2="1226.95"/><line class="cls-5" x1="206.52" y1="1228.53" x2="206.52" y2="1226.95"/><line class="cls-5" x1="203.64" y1="1228.53" x2="203.64" y2="1226.95"/><line class="cls-5" x1="200.76" y1="1228.53" x2="200.76" y2="1226.95"/><line class="cls-5" x1="197.88" y1="1228.53" x2="197.88" y2="1226.95"/><line class="cls-5" x1="195" y1="1230.11" x2="195" y2="1226.95"/><line class="cls-5" x1="218.04" y1="1228.53" x2="218.04" y2="1226.95"/></g><g><line class="cls-2" x1="194" y1="1274.35" x2="339" y2="1274.35"/><line class="cls-2" x1="194" y1="468.55" x2="339" y2="468.55"/><line class="cls-2" x1="194" y1="847.75" x2="339" y2="847.75"/><line class="cls-2" x1="194" y1="610.75" x2="339" y2="610.75"/><line class="cls-2" x1="194" y1="1037.35" x2="339" y2="1037.35"/><line class="cls-2" x1="194" y1="1369.14" x2="339" y2="1369.14"/><line class="cls-2" x1="194" y1="1416.55" x2="339" y2="1416.55"/><line class="cls-2" x1="194" y1="1463.94" x2="339" y2="1463.94"/><line class="cls-2" x1="194" y1="160.46" x2="339" y2="160.46"/><line class="cls-2" x1="194" y1="705.55" x2="339" y2="705.55"/><line class="cls-2" x1="194" y1="800.35" x2="339" y2="800.35"/><line class="cls-2" x1="194" y1="65.66" x2="339" y2="65.66"/><line class="cls-2" x1="194" y1="136.76" x2="339" y2="136.76"/><line class="cls-2" x1="194" y1="184.16" x2="339" y2="184.16"/><line class="cls-2" x1="194" y1="421.16" x2="339" y2="421.16"/><line class="cls-2" x1="194" y1="658.15" x2="339" y2="658.15"/><line class="cls-2" x1="194" y1="752.95" x2="339" y2="752.95"/><line class="cls-2" x1="194" y1="895.15" x2="339" y2="895.15"/><line class="cls-2" x1="194" y1="1179.55" x2="339" y2="1179.55"/><line class="cls-2" x1="194" y1="1321.75" x2="339" y2="1321.75"/><line class="cls-2" x1="194" y1="1511.34" x2="339" y2="1511.34"/><line class="cls-2" x1="194" y1="1558.74" x2="339" y2="1558.74"/><line class="cls-2" x1="194" y1="1606.14" x2="339" y2="1606.14"/><line class="cls-2" x1="194" y1="231.56" x2="339" y2="231.56"/><line class="cls-2" x1="194" y1="278.96" x2="339" y2="278.96"/><line class="cls-2" x1="194" y1="326.36" x2="339" y2="326.36"/><line class="cls-2" x1="194" y1="373.75" x2="339" y2="373.75"/><line class="cls-2" x1="194" y1="515.95" x2="339" y2="515.95"/><line class="cls-2" x1="194" y1="563.35" x2="339" y2="563.35"/><line class="cls-2" x1="194" y1="942.55" x2="339" y2="942.55"/><line class="cls-2" x1="194" y1="989.95" x2="339" y2="989.95"/><line class="cls-2" x1="194" y1="1084.75" x2="339" y2="1084.75"/><line class="cls-2" x1="194" y1="1132.15" x2="339" y2="1132.15"/><line class="cls-2" x1="194" y1="1226.95" x2="339" y2="1226.95"/></g><line class="cls-4" x1="170" y1="1359.16" x2="170" y2="1352.84"/><line class="cls-4" x1="170" y1="1356" x2="170" y2="1352.84"/><line class="cls-4" x1="170" y1="1357.58" x2="170" y2="1352.84"/><g><line class="cls-4" x1="167.12" y1="1406.6" x2="167.12" y2="1400.27"/><line class="cls-4" x1="170" y1="1406.6" x2="170" y2="1400.27"/></g><g><line class="cls-4" x1="167.12" y1="216.1" x2="167.12" y2="214.52"/><line class="cls-4" x1="170" y1="216.1" x2="170" y2="214.52"/></g><g><line class="cls-4" x1="161.36" y1="1306.99" x2="161.36" y2="1305.41"/><line class="cls-4" x1="164.24" y1="1308.57" x2="164.24" y2="1305.41"/><line class="cls-4" x1="158.48" y1="1306.99" x2="158.48" y2="1305.41"/><line class="cls-4" x1="170" y1="1318.06" x2="170" y2="1305.41"/><line class="cls-4" x1="167.12" y1="1308.57" x2="167.12" y2="1305.41"/></g><line class="cls-4" x1="170" y1="1365.49" x2="170" y2="1352.84"/><g><line class="cls-4" x1="164.24" y1="739.41" x2="164.24" y2="736.25"/><line class="cls-4" x1="161.36" y1="737.83" x2="161.36" y2="736.25"/><line class="cls-4" x1="167.12" y1="739.41" x2="167.12" y2="736.25"/><line class="cls-4" x1="158.48" y1="737.83" x2="158.48" y2="736.25"/><line class="cls-4" x1="170" y1="742.57" x2="170" y2="736.25"/></g><g><line class="cls-4" x1="167.12" y1="1455.61" x2="167.12" y2="1447.7"/><line class="cls-4" x1="158.48" y1="1449.28" x2="158.48" y2="1447.7"/><line class="cls-4" x1="161.36" y1="1452.44" x2="161.36" y2="1447.7"/><line class="cls-4" x1="164.24" y1="1452.44" x2="164.24" y2="1447.7"/><line class="cls-4" x1="170" y1="1460.35" x2="170" y2="1447.7"/></g><g><line class="cls-4" x1="164.24" y1="1591.57" x2="164.24" y2="1589.99"/><line class="cls-4" x1="161.36" y1="1591.57" x2="161.36" y2="1589.99"/><line class="cls-4" x1="167.12" y1="1602.64" x2="167.12" y2="1589.99"/><line class="cls-4" x1="170" y1="1610.54" x2="170" y2="1589.99"/></g><g><line class="cls-4" x1="164.24" y1="122.82" x2="164.24" y2="119.65"/><line class="cls-4" x1="161.36" y1="122.82" x2="161.36" y2="119.65"/><line class="cls-4" x1="167.12" y1="124.4" x2="167.12" y2="119.65"/><line class="cls-4" x1="170" y1="127.56" x2="170" y2="119.65"/></g><g><line class="cls-4" x1="167.12" y1="457.99" x2="167.12" y2="451.67"/><line class="cls-4" x1="158.48" y1="453.25" x2="158.48" y2="451.67"/><line class="cls-4" x1="161.36" y1="453.25" x2="161.36" y2="451.67"/><line class="cls-4" x1="164.24" y1="453.25" x2="164.24" y2="451.67"/><line class="cls-4" x1="155.6" y1="453.25" x2="155.6" y2="451.67"/><line class="cls-4" x1="170" y1="467.48" x2="170" y2="451.67"/></g><line class="cls-4" x1="170" y1="1359.16" x2="170" y2="1352.84"/><g><line class="cls-4" x1="155.6" y1="1496.71" x2="155.6" y2="1495.13"/><line class="cls-4" x1="158.48" y1="1496.71" x2="158.48" y2="1495.13"/><line class="cls-4" x1="161.36" y1="1496.71" x2="161.36" y2="1495.13"/><line class="cls-4" x1="164.24" y1="1496.71" x2="164.24" y2="1495.13"/><line class="cls-4" x1="152.72" y1="1496.71" x2="152.72" y2="1495.13"/><line class="cls-4" x1="170" y1="1514.1" x2="170" y2="1495.13"/><line class="cls-4" x1="167.12" y1="1501.45" x2="167.12" y2="1495.13"/></g><g><line class="cls-4" x1="155.6" y1="1074.58" x2="155.6" y2="1068.26"/><line class="cls-4" x1="144.08" y1="1069.84" x2="144.08" y2="1068.26"/><line class="cls-4" x1="146.96" y1="1069.84" x2="146.96" y2="1068.26"/><line class="cls-4" x1="149.84" y1="1073" x2="149.84" y2="1068.26"/><line class="cls-4" x1="167.12" y1="1084.07" x2="167.12" y2="1068.26"/><line class="cls-4" x1="141.2" y1="1069.84" x2="141.2" y2="1068.26"/><line class="cls-4" x1="152.72" y1="1073" x2="152.72" y2="1068.26"/><line class="cls-4" x1="161.36" y1="1077.74" x2="161.36" y2="1068.26"/><line class="cls-4" x1="158.48" y1="1074.58" x2="158.48" y2="1068.26"/><line class="cls-4" x1="164.24" y1="1080.91" x2="164.24" y2="1068.26"/><line class="cls-4" x1="170" y1="1084.07" x2="170" y2="1068.26"/></g><g><line class="cls-4" x1="156.17" y1="1259.56" x2="156.17" y2="1257.98"/><line class="cls-4" x1="158.48" y1="1259.56" x2="158.48" y2="1257.98"/><line class="cls-4" x1="153.87" y1="1259.56" x2="153.87" y2="1257.98"/><line class="cls-4" x1="160.78" y1="1262.72" x2="160.78" y2="1257.98"/><line class="cls-4" x1="163.09" y1="1262.72" x2="163.09" y2="1257.98"/><line class="cls-4" x1="165.39" y1="1262.72" x2="165.39" y2="1257.98"/><line class="cls-4" x1="170" y1="1267.47" x2="170" y2="1257.98"/><line class="cls-4" x1="167.7" y1="1262.72" x2="167.7" y2="1257.98"/></g><g><line class="cls-4" x1="164.24" y1="168.67" x2="164.24" y2="167.08"/><line class="cls-4" x1="167.12" y1="170.25" x2="167.12" y2="167.08"/><line class="cls-4" x1="170" y1="171.83" x2="170" y2="167.08"/></g><g><line class="cls-4" x1="155.6" y1="595.54" x2="155.6" y2="593.96"/><line class="cls-4" x1="158.48" y1="595.54" x2="158.48" y2="593.96"/><line class="cls-4" x1="170" y1="605.02" x2="170" y2="593.96"/><line class="cls-4" x1="152.72" y1="595.54" x2="152.72" y2="593.96"/><line class="cls-4" x1="167.12" y1="600.28" x2="167.12" y2="593.96"/><line class="cls-4" x1="161.36" y1="598.7" x2="161.36" y2="593.96"/><line class="cls-4" x1="164.24" y1="598.7" x2="164.24" y2="593.96"/></g><g><line class="cls-4" x1="152.72" y1="642.97" x2="152.72" y2="641.39"/><line class="cls-4" x1="155.6" y1="642.97" x2="155.6" y2="641.39"/><line class="cls-4" x1="158.48" y1="642.97" x2="158.48" y2="641.39"/><line class="cls-4" x1="161.36" y1="642.97" x2="161.36" y2="641.39"/><line class="cls-4" x1="149.84" y1="642.97" x2="149.84" y2="641.39"/><line class="cls-4" x1="164.24" y1="644.55" x2="164.24" y2="641.39"/><line class="cls-4" x1="167.12" y1="647.71" x2="167.12" y2="641.39"/><line class="cls-4" x1="170" y1="657.2" x2="170" y2="641.39"/></g><g><line class="cls-4" x1="144.08" y1="880.12" x2="144.08" y2="878.54"/><line class="cls-4" x1="146.96" y1="881.7" x2="146.96" y2="878.54"/><line class="cls-4" x1="149.84" y1="881.7" x2="149.84" y2="878.54"/><line class="cls-4" x1="158.48" y1="884.86" x2="158.48" y2="878.54"/><line class="cls-4" x1="152.72" y1="881.7" x2="152.72" y2="878.54"/><line class="cls-4" x1="155.6" y1="881.7" x2="155.6" y2="878.54"/><line class="cls-4" x1="141.2" y1="880.12" x2="141.2" y2="878.54"/><line class="cls-4" x1="167.12" y1="894.35" x2="167.12" y2="878.54"/><line class="cls-4" x1="170" y1="910.16" x2="170" y2="878.54"/><line class="cls-4" x1="161.36" y1="884.86" x2="161.36" y2="878.54"/><line class="cls-4" x1="164.24" y1="884.86" x2="164.24" y2="878.54"/></g><g><line class="cls-4" x1="155.6" y1="927.55" x2="155.6" y2="925.97"/><line class="cls-4" x1="158.48" y1="927.55" x2="158.48" y2="925.97"/><line class="cls-4" x1="161.36" y1="929.13" x2="161.36" y2="925.97"/><line class="cls-4" x1="152.72" y1="927.55" x2="152.72" y2="925.97"/><line class="cls-4" x1="164.24" y1="929.13" x2="164.24" y2="925.97"/><line class="cls-4" x1="167.12" y1="929.13" x2="167.12" y2="925.97"/><line class="cls-4" x1="170" y1="933.87" x2="170" y2="925.97"/></g><g><line class="cls-4" x1="155.6" y1="1166.28" x2="155.6" y2="1163.12"/><line class="cls-4" x1="158.48" y1="1166.28" x2="158.48" y2="1163.12"/><line class="cls-4" x1="152.72" y1="1166.28" x2="152.72" y2="1163.12"/><line class="cls-4" x1="170" y1="1208.97" x2="170" y2="1163.12"/><line class="cls-4" x1="167.12" y1="1178.93" x2="167.12" y2="1163.12"/><line class="cls-4" x1="161.36" y1="1167.86" x2="161.36" y2="1163.12"/><line class="cls-4" x1="164.24" y1="1174.19" x2="164.24" y2="1163.12"/></g><line class="cls-4" x1="170" y1="1368.65" x2="170" y2="1352.84"/><g><line class="cls-4" x1="164.24" y1="1545.72" x2="164.24" y2="1542.56"/><line class="cls-4" x1="167.12" y1="1550.47" x2="167.12" y2="1542.56"/><line class="cls-4" x1="170" y1="1552.05" x2="170" y2="1542.56"/></g><g><line class="cls-4" x1="152.72" y1="263.53" x2="152.72" y2="261.95"/><line class="cls-4" x1="155.6" y1="263.53" x2="155.6" y2="261.95"/><line class="cls-4" x1="149.84" y1="263.53" x2="149.84" y2="261.95"/><line class="cls-4" x1="167.12" y1="268.27" x2="167.12" y2="261.95"/><line class="cls-4" x1="158.48" y1="266.69" x2="158.48" y2="261.95"/><line class="cls-4" x1="170" y1="282.5" x2="170" y2="261.95"/><line class="cls-4" x1="161.36" y1="266.69" x2="161.36" y2="261.95"/><line class="cls-4" x1="164.24" y1="266.69" x2="164.24" y2="261.95"/></g><g><line class="cls-4" x1="149.84" y1="310.96" x2="149.84" y2="309.37"/><line class="cls-4" x1="152.72" y1="312.54" x2="152.72" y2="309.37"/><line class="cls-4" x1="155.6" y1="312.54" x2="155.6" y2="309.37"/><line class="cls-4" x1="146.96" y1="310.96" x2="146.96" y2="309.37"/><line class="cls-4" x1="164.24" y1="325.19" x2="164.24" y2="309.37"/><line class="cls-4" x1="161.36" y1="314.12" x2="161.36" y2="309.37"/><line class="cls-4" x1="170" y1="339.42" x2="170" y2="309.37"/><line class="cls-4" x1="158.48" y1="312.54" x2="158.48" y2="309.37"/><line class="cls-4" x1="167.12" y1="329.93" x2="167.12" y2="309.37"/></g><g><line class="cls-4" x1="170" y1="361.55" x2="170" y2="356.81"/><line class="cls-4" x1="167.12" y1="359.97" x2="167.12" y2="356.81"/></g><g><line class="cls-4" x1="155.6" y1="407.4" x2="155.6" y2="404.24"/><line class="cls-4" x1="149.84" y1="405.82" x2="149.84" y2="404.24"/><line class="cls-4" x1="152.72" y1="405.82" x2="152.72" y2="404.24"/><line class="cls-4" x1="146.96" y1="405.82" x2="146.96" y2="404.24"/><line class="cls-4" x1="158.48" y1="408.98" x2="158.48" y2="404.24"/><line class="cls-4" x1="161.36" y1="408.98" x2="161.36" y2="404.24"/><line class="cls-4" x1="170" y1="424.79" x2="170" y2="404.24"/><line class="cls-4" x1="164.24" y1="408.98" x2="164.24" y2="404.24"/><line class="cls-4" x1="167.12" y1="410.56" x2="167.12" y2="404.24"/></g><g><line class="cls-4" x1="152.72" y1="500.68" x2="152.72" y2="499.1"/><line class="cls-4" x1="155.6" y1="502.26" x2="155.6" y2="499.1"/><line class="cls-4" x1="167.12" y1="505.42" x2="167.12" y2="499.1"/><line class="cls-4" x1="149.84" y1="500.68" x2="149.84" y2="499.1"/><line class="cls-4" x1="170" y1="507" x2="170" y2="499.1"/><line class="cls-4" x1="158.48" y1="502.26" x2="158.48" y2="499.1"/><line class="cls-4" x1="161.36" y1="503.84" x2="161.36" y2="499.1"/><line class="cls-4" x1="164.24" y1="503.84" x2="164.24" y2="499.1"/></g><g><line class="cls-4" x1="146.96" y1="548.11" x2="146.96" y2="546.53"/><line class="cls-4" x1="149.84" y1="548.11" x2="149.84" y2="546.53"/><line class="cls-4" x1="152.72" y1="548.11" x2="152.72" y2="546.53"/><line class="cls-4" x1="164.24" y1="559.18" x2="164.24" y2="546.53"/><line class="cls-4" x1="155.6" y1="549.69" x2="155.6" y2="546.53"/><line class="cls-4" x1="158.48" y1="551.27" x2="158.48" y2="546.53"/><line class="cls-4" x1="144.08" y1="548.11" x2="144.08" y2="546.53"/><line class="cls-4" x1="167.12" y1="562.34" x2="167.12" y2="546.53"/><line class="cls-4" x1="170" y1="567.08" x2="170" y2="546.53"/><line class="cls-4" x1="161.36" y1="551.27" x2="161.36" y2="546.53"/></g><g><line class="cls-4" x1="146.96" y1="690.4" x2="146.96" y2="688.82"/><line class="cls-4" x1="170" y1="710.95" x2="170" y2="688.82"/><line class="cls-4" x1="164.24" y1="706.21" x2="164.24" y2="688.82"/><line class="cls-4" x1="152.72" y1="691.98" x2="152.72" y2="688.82"/><line class="cls-4" x1="149.84" y1="690.4" x2="149.84" y2="688.82"/><line class="cls-4" x1="144.08" y1="690.4" x2="144.08" y2="688.82"/><line class="cls-4" x1="167.12" y1="706.21" x2="167.12" y2="688.82"/><line class="cls-4" x1="161.36" y1="698.3" x2="161.36" y2="688.82"/><line class="cls-4" x1="158.48" y1="696.72" x2="158.48" y2="688.82"/><line class="cls-4" x1="155.6" y1="693.56" x2="155.6" y2="688.82"/></g><g><line class="cls-4" x1="155.6" y1="788.42" x2="155.6" y2="783.68"/><line class="cls-4" x1="146.96" y1="785.26" x2="146.96" y2="783.68"/><line class="cls-4" x1="161.36" y1="790" x2="161.36" y2="783.68"/><line class="cls-4" x1="149.84" y1="786.84" x2="149.84" y2="783.68"/><line class="cls-4" x1="144.08" y1="785.26" x2="144.08" y2="783.68"/><line class="cls-4" x1="152.72" y1="786.84" x2="152.72" y2="783.68"/><line class="cls-4" x1="158.48" y1="788.42" x2="158.48" y2="783.68"/><line class="cls-4" x1="167.12" y1="791.58" x2="167.12" y2="783.68"/><line class="cls-4" x1="170" y1="793.16" x2="170" y2="783.68"/><line class="cls-4" x1="164.24" y1="790" x2="164.24" y2="783.68"/></g><g><line class="cls-4" x1="158.48" y1="832.69" x2="158.48" y2="831.11"/><line class="cls-4" x1="164.24" y1="834.27" x2="164.24" y2="831.11"/><line class="cls-4" x1="161.36" y1="832.69" x2="161.36" y2="831.11"/><line class="cls-4" x1="155.6" y1="832.69" x2="155.6" y2="831.11"/><line class="cls-4" x1="167.12" y1="835.85" x2="167.12" y2="831.11"/><line class="cls-4" x1="170" y1="835.85" x2="170" y2="831.11"/></g><g><line class="cls-4" x1="155.6" y1="979.72" x2="155.6" y2="973.4"/><line class="cls-4" x1="135.44" y1="974.98" x2="135.44" y2="973.4"/><line class="cls-4" x1="132.56" y1="974.98" x2="132.56" y2="973.4"/><line class="cls-4" x1="138.32" y1="976.56" x2="138.32" y2="973.4"/><line class="cls-4" x1="141.2" y1="976.56" x2="141.2" y2="973.4"/><line class="cls-4" x1="167.12" y1="984.47" x2="167.12" y2="973.4"/><line class="cls-4" x1="144.08" y1="976.56" x2="144.08" y2="973.4"/><line class="cls-4" x1="146.96" y1="976.56" x2="146.96" y2="973.4"/><line class="cls-4" x1="149.84" y1="978.14" x2="149.84" y2="973.4"/><line class="cls-4" x1="158.48" y1="979.72" x2="158.48" y2="973.4"/><line class="cls-4" x1="170" y1="993.95" x2="170" y2="973.4"/><line class="cls-4" x1="152.72" y1="978.14" x2="152.72" y2="973.4"/><line class="cls-4" x1="161.36" y1="979.72" x2="161.36" y2="973.4"/><line class="cls-4" x1="164.24" y1="979.72" x2="164.24" y2="973.4"/></g><g><line class="cls-4" x1="164.24" y1="1023.99" x2="164.24" y2="1020.83"/><line class="cls-4" x1="161.36" y1="1022.41" x2="161.36" y2="1020.83"/><line class="cls-4" x1="158.48" y1="1022.41" x2="158.48" y2="1020.83"/><line class="cls-4" x1="170" y1="1052.45" x2="170" y2="1020.83"/><line class="cls-4" x1="167.12" y1="1025.57" x2="167.12" y2="1020.83"/></g><g><line class="cls-4" x1="138.32" y1="1117.27" x2="138.32" y2="1115.69"/><line class="cls-4" x1="141.2" y1="1117.27" x2="141.2" y2="1115.69"/><line class="cls-4" x1="152.72" y1="1118.85" x2="152.72" y2="1115.69"/><line class="cls-4" x1="144.08" y1="1117.27" x2="144.08" y2="1115.69"/><line class="cls-4" x1="146.96" y1="1117.27" x2="146.96" y2="1115.69"/><line class="cls-4" x1="149.84" y1="1117.27" x2="149.84" y2="1115.69"/><line class="cls-4" x1="135.44" y1="1117.27" x2="135.44" y2="1115.69"/><line class="cls-4" x1="155.6" y1="1118.85" x2="155.6" y2="1115.69"/><line class="cls-4" x1="161.36" y1="1122.01" x2="161.36" y2="1115.69"/><line class="cls-4" x1="167.12" y1="1136.24" x2="167.12" y2="1115.69"/><line class="cls-4" x1="170" y1="1158.38" x2="170" y2="1115.69"/><line class="cls-4" x1="158.48" y1="1120.43" x2="158.48" y2="1115.69"/><line class="cls-4" x1="164.24" y1="1122.01" x2="164.24" y2="1115.69"/></g><g><line class="cls-4" x1="152.72" y1="1215.29" x2="152.72" y2="1210.55"/><line class="cls-4" x1="144.08" y1="1213.71" x2="144.08" y2="1210.55"/><line class="cls-4" x1="146.96" y1="1213.71" x2="146.96" y2="1210.55"/><line class="cls-4" x1="167.12" y1="1223.2" x2="167.12" y2="1210.55"/><line class="cls-4" x1="149.84" y1="1213.71" x2="149.84" y2="1210.55"/><line class="cls-4" x1="141.2" y1="1212.13" x2="141.2" y2="1210.55"/><line class="cls-4" x1="170" y1="1256.4" x2="170" y2="1210.55"/><line class="cls-4" x1="158.48" y1="1216.87" x2="158.48" y2="1210.55"/><line class="cls-4" x1="164.24" y1="1221.62" x2="164.24" y2="1210.55"/><line class="cls-4" x1="161.36" y1="1218.45" x2="161.36" y2="1210.55"/><line class="cls-4" x1="155.6" y1="1215.29" x2="155.6" y2="1210.55"/></g><g><line class="cls-3" x1="171" y1="736.25" x2="26" y2="736.25"/><line class="cls-3" x1="171" y1="1400.27" x2="26" y2="1400.27"/><line class="cls-3" x1="171" y1="1447.7" x2="26" y2="1447.7"/><line class="cls-3" x1="171" y1="1589.99" x2="26" y2="1589.99"/><line class="cls-3" x1="171" y1="214.52" x2="26" y2="214.52"/><line class="cls-3" x1="171" y1="1305.41" x2="26" y2="1305.41"/><line class="cls-3" x1="171" y1="119.65" x2="26" y2="119.65"/><line class="cls-3" x1="171" y1="451.67" x2="26" y2="451.67"/><line class="cls-3" x1="171" y1="1495.13" x2="26" y2="1495.13"/><line class="cls-3" x1="171" y1="1068.26" x2="26" y2="1068.26"/><line class="cls-3" x1="171" y1="167.08" x2="26" y2="167.08"/><line class="cls-3" x1="171" y1="593.96" x2="26" y2="593.96"/><line class="cls-3" x1="171" y1="641.39" x2="26" y2="641.39"/><line class="cls-3" x1="171" y1="925.97" x2="26" y2="925.97"/><line class="cls-3" x1="171" y1="1163.12" x2="26" y2="1163.12"/><line class="cls-3" x1="171" y1="1352.84" x2="26" y2="1352.84"/><line class="cls-3" x1="171" y1="1542.56" x2="26" y2="1542.56"/><line class="cls-3" x1="171" y1="261.95" x2="26" y2="261.95"/><line class="cls-3" x1="171" y1="309.37" x2="26" y2="309.37"/><line class="cls-3" x1="171" y1="356.81" x2="26" y2="356.81"/><line class="cls-3" x1="171" y1="404.24" x2="26" y2="404.24"/><line class="cls-3" x1="171" y1="499.1" x2="26" y2="499.1"/><line class="cls-3" x1="171" y1="546.53" x2="26" y2="546.53"/><line class="cls-3" x1="171" y1="688.82" x2="26" y2="688.82"/><line class="cls-3" x1="171" y1="783.68" x2="26" y2="783.68"/><line class="cls-3" x1="171" y1="831.11" x2="26" y2="831.11"/><line class="cls-3" x1="171" y1="878.54" x2="26" y2="878.54"/><line class="cls-3" x1="171" y1="973.4" x2="26" y2="973.4"/><line class="cls-3" x1="171" y1="1020.83" x2="26" y2="1020.83"/><line class="cls-3" x1="171" y1="1115.69" x2="26" y2="1115.69"/><line class="cls-3" x1="171" y1="1210.55" x2="26" y2="1210.55"/><line class="cls-3" x1="171" y1="1257.98" x2="26" y2="1257.98"/></g></svg>